<svg width="55" height="55" viewBox="0 0 55 55" fill="none" xmlns="http://www.w3.org/2000/svg">
<circle cx="27.1057" cy="27.1057" r="26.6057" fill="#F8F8FF" stroke="#E9231B"/>
<g clip-path="url(#clip0_2968_323)">
<path d="M35.5005 37.1061H18.6848C18.2663 37.1051 17.8651 36.9384 17.5692 36.6424C17.2732 36.3464 17.1065 35.9453 17.1055 35.5267V31.8423C17.1065 31.4238 17.2732 31.0226 17.5692 30.7267C17.8651 30.4307 18.2663 30.264 18.6848 30.263H23.4205V24.9998C23.4226 24.5816 23.5897 24.1811 23.8854 23.8854C24.1811 23.5897 24.5816 23.4226 24.9998 23.4205H30.2767V18.7105C30.279 18.2856 30.4488 17.8788 30.7491 17.5783C31.0495 17.2778 31.4562 17.1079 31.8811 17.1055H35.5011C35.926 17.1079 36.3328 17.2778 36.6333 17.5783C36.9337 17.8787 37.1036 18.2856 37.1061 18.7105V35.5005C37.1036 35.9254 36.9337 36.3322 36.6333 36.6327C36.3328 36.9331 35.926 37.103 35.5011 37.1055L35.5005 37.1061Z" fill="#EE544E"/>
</g>
<defs>
<clipPath id="clip0_2968_323">
<rect width="20" height="20" fill="white" transform="translate(17.1055 17.1055)"/>
</clipPath>
</defs>
</svg>
