<svg width="104" height="50" viewBox="0 0 104 50" fill="none" xmlns="http://www.w3.org/2000/svg">
<g clip-path="url(#clip0_207_489)">
<path d="M87.0004 8.66602H83.3338V4.99935C83.3338 4.91094 83.2986 4.82616 83.2361 4.76365C83.1736 4.70113 83.0888 4.66602 83.0004 4.66602C82.912 4.66602 82.8272 4.70113 82.7647 4.76365C82.7022 4.82616 82.6671 4.91094 82.6671 4.99935V8.66602H79.0004C78.912 8.66602 78.8272 8.70113 78.7647 8.76365C78.7022 8.82616 78.6671 8.91094 78.6671 8.99935C78.6654 9.04267 78.6731 9.08584 78.6896 9.12595C78.706 9.16606 78.7309 9.20218 78.7624 9.23188C78.794 9.26157 78.8316 9.28414 78.8727 9.29808C78.9137 9.31202 78.9573 9.317 79.0004 9.31268H82.6671V12.9993C82.6671 13.0878 82.7022 13.1725 82.7647 13.2351C82.8272 13.2976 82.912 13.3327 83.0004 13.3327C83.0888 13.3327 83.1736 13.2976 83.2361 13.2351C83.2986 13.1725 83.3338 13.0878 83.3338 12.9993V9.33268H87.0004C87.0888 9.33268 87.1736 9.29756 87.2361 9.23505C87.2986 9.17254 87.3338 9.08775 87.3338 8.99935C87.3338 8.91094 87.2986 8.82616 87.2361 8.76365C87.1736 8.70113 87.0888 8.66602 87.0004 8.66602Z" fill="#0D1717"/>
</g>
<path d="M11.587 21.1818C11.587 22.4091 11.3654 23.4697 10.9222 24.3636C10.4791 25.2576 9.87111 25.947 9.09838 26.4318C8.32565 26.9167 7.44307 27.1591 6.45065 27.1591C5.45823 27.1591 4.57565 26.9167 3.80292 26.4318C3.0302 25.947 2.42224 25.2576 1.97906 24.3636C1.53588 23.4697 1.31429 22.4091 1.31429 21.1818C1.31429 19.9545 1.53588 18.8939 1.97906 18C2.42224 17.1061 3.0302 16.4167 3.80292 15.9318C4.57565 15.447 5.45823 15.2045 6.45065 15.2045C7.44307 15.2045 8.32565 15.447 9.09838 15.9318C9.87111 16.4167 10.4791 17.1061 10.9222 18C11.3654 18.8939 11.587 19.9545 11.587 21.1818ZM10.2234 21.1818C10.2234 20.1742 10.0548 19.3239 9.7177 18.6307C9.38436 17.9375 8.93171 17.4129 8.35974 17.0568C7.79156 16.7008 7.1552 16.5227 6.45065 16.5227C5.74611 16.5227 5.10785 16.7008 4.53588 17.0568C3.9677 17.4129 3.51504 17.9375 3.17792 18.6307C2.84459 19.3239 2.67792 20.1742 2.67792 21.1818C2.67792 22.1894 2.84459 23.0398 3.17792 23.733C3.51504 24.4261 3.9677 24.9508 4.53588 25.3068C5.10785 25.6629 5.74611 25.8409 6.45065 25.8409C7.1552 25.8409 7.79156 25.6629 8.35974 25.3068C8.93171 24.9508 9.38436 24.4261 9.7177 23.733C10.0548 23.0398 10.2234 22.1894 10.2234 21.1818ZM20.9109 18.2727L17.6836 27H16.32L13.0927 18.2727H14.5472L16.9563 25.2273H17.0472L19.4563 18.2727H20.9109ZM26.0274 27.1818C25.1864 27.1818 24.4611 26.9962 23.8512 26.625C23.2452 26.25 22.7774 25.7273 22.4478 25.0568C22.1221 24.3826 21.9592 23.5985 21.9592 22.7045C21.9592 21.8106 22.1221 21.0227 22.4478 20.3409C22.7774 19.6553 23.2357 19.1212 23.8228 18.7386C24.4137 18.3523 25.1031 18.1591 25.891 18.1591C26.3455 18.1591 26.7944 18.2348 27.2376 18.3864C27.6808 18.5379 28.0842 18.7841 28.4478 19.125C28.8114 19.4621 29.1012 19.9091 29.3171 20.4659C29.533 21.0227 29.641 21.7083 29.641 22.5227V23.0909H22.9137V21.9318H28.2774C28.2774 21.4394 28.1789 21 27.9819 20.6136C27.7887 20.2273 27.5122 19.9223 27.1524 19.6989C26.7963 19.4754 26.3758 19.3636 25.891 19.3636C25.3569 19.3636 24.8948 19.4962 24.5046 19.7614C24.1183 20.0227 23.8209 20.3636 23.6126 20.7841C23.4042 21.2045 23.3001 21.6553 23.3001 22.1364V22.9091C23.3001 23.5682 23.4137 24.1269 23.641 24.5852C23.8721 25.0398 24.1921 25.3864 24.6012 25.625C25.0103 25.8598 25.4857 25.9773 26.0274 25.9773C26.3796 25.9773 26.6978 25.928 26.9819 25.8295C27.2698 25.7273 27.5179 25.5758 27.7262 25.375C27.9346 25.1705 28.0955 24.9167 28.2092 24.6136L29.5046 24.9773C29.3683 25.4167 29.1391 25.803 28.8171 26.1364C28.4952 26.4659 28.0974 26.7235 27.6239 26.9091C27.1505 27.0909 26.6183 27.1818 26.0274 27.1818ZM31.6808 27V18.2727H32.9762V19.5909H33.0671C33.2262 19.1591 33.5141 18.8087 33.9308 18.5398C34.3474 18.2708 34.8171 18.1364 35.3399 18.1364C35.4383 18.1364 35.5614 18.1383 35.7092 18.142C35.8569 18.1458 35.9686 18.1515 36.0444 18.1591V19.5227C35.9989 19.5114 35.8948 19.4943 35.7319 19.4716C35.5728 19.4451 35.4042 19.4318 35.2262 19.4318C34.802 19.4318 34.4232 19.5208 34.0899 19.6989C33.7603 19.8731 33.4989 20.1155 33.3058 20.4261C33.1164 20.733 33.0217 21.0833 33.0217 21.4773V27H31.6808ZM45.7475 27.1591C45.0809 27.1591 44.4805 27.0265 43.9464 26.7614C43.4123 26.4962 42.9843 26.1326 42.6623 25.6705C42.3403 25.2083 42.1642 24.6818 42.1339 24.0909H43.4975C43.5506 24.6174 43.7892 25.053 44.2134 25.3977C44.6415 25.7386 45.1528 25.9091 45.7475 25.9091C46.2248 25.9091 46.649 25.7973 47.0203 25.5739C47.3953 25.3504 47.6888 25.0436 47.9009 24.6534C48.1168 24.2595 48.2248 23.8144 48.2248 23.3182C48.2248 22.8106 48.1131 22.358 47.8896 21.9602C47.6699 21.5587 47.3668 21.2424 46.9805 21.0114C46.5941 20.7803 46.1528 20.6629 45.6566 20.6591C45.3006 20.6553 44.935 20.7102 44.56 20.8239C44.185 20.9337 43.8763 21.0758 43.6339 21.25L42.3157 21.0909L43.0203 15.3636H49.0657V16.6136H44.2021L43.793 20.0455H43.8612C44.0998 19.8561 44.399 19.6989 44.7589 19.5739C45.1187 19.4489 45.4937 19.3864 45.8839 19.3864C46.596 19.3864 47.2305 19.5568 47.7873 19.8977C48.3479 20.2348 48.7873 20.697 49.1055 21.2841C49.4274 21.8712 49.5884 22.5417 49.5884 23.2955C49.5884 24.0379 49.4218 24.7008 49.0884 25.2841C48.7589 25.8636 48.3043 26.322 47.7248 26.6591C47.1453 26.9924 46.4862 27.1591 45.7475 27.1591ZM55.641 27.1591C54.7849 27.1591 54.0558 26.9261 53.4535 26.4602C52.8512 25.9905 52.391 25.3106 52.0728 24.4205C51.7546 23.5265 51.5955 22.447 51.5955 21.1818C51.5955 19.9242 51.7546 18.8504 52.0728 17.9602C52.3948 17.0663 52.8569 16.3845 53.4592 15.9148C54.0652 15.4413 54.7925 15.2045 55.641 15.2045C56.4895 15.2045 57.2149 15.4413 57.8171 15.9148C58.4232 16.3845 58.8853 17.0663 59.2035 17.9602C59.5255 18.8504 59.6864 19.9242 59.6864 21.1818C59.6864 22.447 59.5274 23.5265 59.2092 24.4205C58.891 25.3106 58.4308 25.9905 57.8285 26.4602C57.2262 26.9261 56.4971 27.1591 55.641 27.1591ZM55.641 25.9091C56.4895 25.9091 57.1486 25.5 57.6183 24.6818C58.088 23.8636 58.3228 22.697 58.3228 21.1818C58.3228 20.1742 58.2149 19.3163 57.9989 18.608C57.7868 17.8996 57.48 17.3598 57.0785 16.9886C56.6808 16.6174 56.2016 16.4318 55.641 16.4318C54.8001 16.4318 54.1429 16.8466 53.6694 17.6761C53.1959 18.5019 52.9592 19.6705 52.9592 21.1818C52.9592 22.1894 53.0652 23.0455 53.2774 23.75C53.4895 24.4545 53.7944 24.9905 54.1921 25.358C54.5936 25.7254 55.0766 25.9091 55.641 25.9091ZM65.641 27.1591C64.7849 27.1591 64.0558 26.9261 63.4535 26.4602C62.8512 25.9905 62.391 25.3106 62.0728 24.4205C61.7546 23.5265 61.5955 22.447 61.5955 21.1818C61.5955 19.9242 61.7546 18.8504 62.0728 17.9602C62.3948 17.0663 62.8569 16.3845 63.4592 15.9148C64.0652 15.4413 64.7925 15.2045 65.641 15.2045C66.4895 15.2045 67.2149 15.4413 67.8171 15.9148C68.4232 16.3845 68.8853 17.0663 69.2035 17.9602C69.5255 18.8504 69.6864 19.9242 69.6864 21.1818C69.6864 22.447 69.5274 23.5265 69.2092 24.4205C68.891 25.3106 68.4308 25.9905 67.8285 26.4602C67.2262 26.9261 66.4971 27.1591 65.641 27.1591ZM65.641 25.9091C66.4895 25.9091 67.1486 25.5 67.6183 24.6818C68.088 23.8636 68.3228 22.697 68.3228 21.1818C68.3228 20.1742 68.2149 19.3163 67.9989 18.608C67.7868 17.8996 67.48 17.3598 67.0785 16.9886C66.6808 16.6174 66.2016 16.4318 65.641 16.4318C64.8001 16.4318 64.1429 16.8466 63.6694 17.6761C63.1959 18.5019 62.9592 19.6705 62.9592 21.1818C62.9592 22.1894 63.0652 23.0455 63.2774 23.75C63.4895 24.4545 63.7944 24.9905 64.1921 25.358C64.5936 25.7254 65.0766 25.9091 65.641 25.9091ZM75.641 27.1591C74.7849 27.1591 74.0558 26.9261 73.4535 26.4602C72.8512 25.9905 72.391 25.3106 72.0728 24.4205C71.7546 23.5265 71.5955 22.447 71.5955 21.1818C71.5955 19.9242 71.7546 18.8504 72.0728 17.9602C72.3948 17.0663 72.8569 16.3845 73.4592 15.9148C74.0652 15.4413 74.7925 15.2045 75.641 15.2045C76.4895 15.2045 77.2149 15.4413 77.8171 15.9148C78.4232 16.3845 78.8853 17.0663 79.2035 17.9602C79.5255 18.8504 79.6864 19.9242 79.6864 21.1818C79.6864 22.447 79.5274 23.5265 79.2092 24.4205C78.891 25.3106 78.4308 25.9905 77.8285 26.4602C77.2262 26.9261 76.4971 27.1591 75.641 27.1591ZM75.641 25.9091C76.4895 25.9091 77.1486 25.5 77.6183 24.6818C78.088 23.8636 78.3228 22.697 78.3228 21.1818C78.3228 20.1742 78.2149 19.3163 77.9989 18.608C77.7868 17.8996 77.48 17.3598 77.0785 16.9886C76.6808 16.6174 76.2016 16.4318 75.641 16.4318C74.8001 16.4318 74.1429 16.8466 73.6694 17.6761C73.1959 18.5019 72.9592 19.6705 72.9592 21.1818C72.9592 22.1894 73.0652 23.0455 73.2774 23.75C73.4895 24.4545 73.7944 24.9905 74.1921 25.358C74.5936 25.7254 75.0766 25.9091 75.641 25.9091Z" fill="#0D1717"/>
<path d="M2.28765 45H0.99504L4.73368 34.8182H6.0064L9.74504 45H8.45243L5.40981 36.429H5.33027L2.28765 45ZM2.76493 41.0227H7.97515V42.1165H2.76493V41.0227ZM14.2742 45.1591C13.5582 45.1591 12.9418 44.9901 12.4247 44.652C11.9077 44.3139 11.51 43.8482 11.2315 43.255C10.9531 42.6617 10.8139 41.9839 10.8139 41.2216C10.8139 40.446 10.9565 39.7616 11.2415 39.1683C11.5298 38.5717 11.9309 38.1061 12.4446 37.7713C12.9617 37.4332 13.5649 37.2642 14.2543 37.2642C14.7912 37.2642 15.2751 37.3636 15.706 37.5625C16.1368 37.7614 16.4898 38.0398 16.7649 38.3977C17.04 38.7557 17.2107 39.1733 17.277 39.6506H16.1037C16.0142 39.3026 15.8154 38.9943 15.5071 38.7259C15.2022 38.4541 14.7912 38.3182 14.2742 38.3182C13.8168 38.3182 13.4157 38.4375 13.071 38.6761C12.7297 38.9115 12.4628 39.2446 12.2706 39.6754C12.0817 40.103 11.9872 40.6051 11.9872 41.1818C11.9872 41.7718 12.08 42.2855 12.2656 42.723C12.4546 43.1605 12.7197 43.5002 13.0611 43.7422C13.4058 43.9841 13.8101 44.1051 14.2742 44.1051C14.5791 44.1051 14.8558 44.0521 15.1044 43.946C15.353 43.84 15.5635 43.6875 15.7358 43.4886C15.9082 43.2898 16.0308 43.0511 16.1037 42.7727H17.277C17.2107 43.2235 17.0466 43.6295 16.7848 43.9908C16.5263 44.3487 16.1833 44.6338 15.7557 44.8459C15.3315 45.0547 14.8376 45.1591 14.2742 45.1591ZM22.3132 37.3636V38.358H18.3558V37.3636H22.3132ZM19.5092 35.5341H20.6825V42.8125C20.6825 43.1439 20.7306 43.3925 20.8267 43.5582C20.9261 43.7206 21.0521 43.83 21.2046 43.8864C21.3603 43.9394 21.5244 43.9659 21.6967 43.9659C21.826 43.9659 21.9321 43.9593 22.0149 43.946C22.0978 43.9295 22.1641 43.9162 22.2138 43.9062L22.4524 44.9602C22.3729 44.9901 22.2618 45.0199 22.1193 45.0497C21.9768 45.0829 21.7962 45.0994 21.5774 45.0994C21.246 45.0994 20.9212 45.0282 20.603 44.8857C20.2881 44.7431 20.0263 44.526 19.8175 44.2344C19.612 43.9427 19.5092 43.5748 19.5092 43.1307V35.5341ZM24.0781 45V37.3636H25.2514V45H24.0781ZM24.6747 36.0909C24.446 36.0909 24.2488 36.013 24.0831 35.8572C23.9207 35.7015 23.8395 35.5142 23.8395 35.2955C23.8395 35.0767 23.9207 34.8894 24.0831 34.7337C24.2488 34.5779 24.446 34.5 24.6747 34.5C24.9034 34.5 25.099 34.5779 25.2614 34.7337C25.4271 34.8894 25.51 35.0767 25.51 35.2955C25.51 35.5142 25.4271 35.7015 25.2614 35.8572C25.099 36.013 24.9034 36.0909 24.6747 36.0909ZM33.6447 37.3636L30.8209 45H29.6277L26.8038 37.3636H28.0765L30.1845 43.4489H30.264L32.372 37.3636H33.6447ZM38.1216 45.1591C37.3858 45.1591 36.7511 44.9967 36.2175 44.6719C35.6872 44.3438 35.2779 43.8864 34.9895 43.2997C34.7045 42.7098 34.562 42.0237 34.562 41.2415C34.562 40.4593 34.7045 39.7699 34.9895 39.1733C35.2779 38.5734 35.6789 38.1061 36.1927 37.7713C36.7097 37.4332 37.3129 37.2642 38.0023 37.2642C38.4 37.2642 38.7928 37.3305 39.1806 37.4631C39.5684 37.5956 39.9214 37.8111 40.2395 38.1094C40.5577 38.4044 40.8113 38.7955 41.0002 39.2827C41.1891 39.7699 41.2836 40.3698 41.2836 41.0824V41.5795H35.3972V40.5653H40.0904C40.0904 40.1345 40.0042 39.75 39.8319 39.4119C39.6628 39.0739 39.4209 38.8071 39.106 38.6115C38.7945 38.416 38.4266 38.3182 38.0023 38.3182C37.535 38.3182 37.1306 38.4342 36.7893 38.6662C36.4512 38.8949 36.191 39.1932 36.0087 39.5611C35.8264 39.929 35.7353 40.3234 35.7353 40.7443V41.4205C35.7353 41.9972 35.8347 42.486 36.0336 42.8871C36.2357 43.2848 36.5158 43.5881 36.8738 43.7969C37.2317 44.0024 37.6477 44.1051 38.1216 44.1051C38.4299 44.1051 38.7083 44.062 38.9569 43.9759C39.2088 43.8864 39.4259 43.7538 39.6081 43.5781C39.7904 43.3991 39.9313 43.1771 40.0307 42.9119L41.1643 43.2301C41.0449 43.6146 40.8444 43.9527 40.5627 44.2443C40.281 44.5327 39.933 44.758 39.5187 44.9205C39.1044 45.0795 38.6387 45.1591 38.1216 45.1591ZM55.3581 38H54.1252C54.0523 37.6454 53.9247 37.3338 53.7424 37.0653C53.5634 36.7969 53.3446 36.5715 53.0861 36.3892C52.8309 36.2036 52.5475 36.0644 52.236 35.9716C51.9244 35.8788 51.5996 35.8324 51.2616 35.8324C50.6451 35.8324 50.0866 35.9882 49.5861 36.2997C49.089 36.6113 48.6929 37.0703 48.3979 37.6768C48.1062 38.2834 47.9604 39.0275 47.9604 39.9091C47.9604 40.7907 48.1062 41.5348 48.3979 42.1413C48.6929 42.7479 49.089 43.2069 49.5861 43.5185C50.0866 43.83 50.6451 43.9858 51.2616 43.9858C51.5996 43.9858 51.9244 43.9394 52.236 43.8466C52.5475 43.7538 52.8309 43.6162 53.0861 43.4339C53.3446 43.2483 53.5634 43.0213 53.7424 42.7528C53.9247 42.4811 54.0523 42.1695 54.1252 41.8182H55.3581C55.2653 42.3385 55.0963 42.8042 54.851 43.2152C54.6058 43.6262 54.3009 43.9759 53.9363 44.2642C53.5717 44.5492 53.1624 44.7663 52.7083 44.9155C52.2575 45.0646 51.7753 45.1392 51.2616 45.1392C50.3932 45.1392 49.6209 44.9271 48.9448 44.5028C48.2687 44.0786 47.7367 43.4754 47.3489 42.6932C46.9611 41.911 46.7672 40.983 46.7672 39.9091C46.7672 38.8352 46.9611 37.9072 47.3489 37.125C47.7367 36.3428 48.2687 35.7396 48.9448 35.3153C49.6209 34.8911 50.3932 34.679 51.2616 34.679C51.7753 34.679 52.2575 34.7536 52.7083 34.9027C53.1624 35.0518 53.5717 35.2706 53.9363 35.5589C54.3009 35.844 54.6058 36.192 54.851 36.603C55.0963 37.0107 55.2653 37.4763 55.3581 38ZM58.3647 34.8182V45H57.1914V34.8182H58.3647ZM60.5137 45V37.3636H61.687V45H60.5137ZM61.1103 36.0909C60.8816 36.0909 60.6844 36.013 60.5187 35.8572C60.3562 35.7015 60.275 35.5142 60.275 35.2955C60.275 35.0767 60.3562 34.8894 60.5187 34.7337C60.6844 34.5779 60.8816 34.5 61.1103 34.5C61.339 34.5 61.5345 34.5779 61.6969 34.7337C61.8626 34.8894 61.9455 35.0767 61.9455 35.2955C61.9455 35.5142 61.8626 35.7015 61.6969 35.8572C61.5345 36.013 61.339 36.0909 61.1103 36.0909ZM67.0377 45.1591C66.3019 45.1591 65.6672 44.9967 65.1335 44.6719C64.6032 44.3438 64.1939 43.8864 63.9056 43.2997C63.6205 42.7098 63.478 42.0237 63.478 41.2415C63.478 40.4593 63.6205 39.7699 63.9056 39.1733C64.1939 38.5734 64.5949 38.1061 65.1087 37.7713C65.6257 37.4332 66.2289 37.2642 66.9183 37.2642C67.3161 37.2642 67.7088 37.3305 68.0966 37.4631C68.4844 37.5956 68.8374 37.8111 69.1556 38.1094C69.4737 38.4044 69.7273 38.7955 69.9162 39.2827C70.1051 39.7699 70.1996 40.3698 70.1996 41.0824V41.5795H64.3132V40.5653H69.0064C69.0064 40.1345 68.9202 39.75 68.7479 39.4119C68.5788 39.0739 68.3369 38.8071 68.022 38.6115C67.7105 38.416 67.3426 38.3182 66.9183 38.3182C66.451 38.3182 66.0466 38.4342 65.7053 38.6662C65.3672 38.8949 65.107 39.1932 64.9247 39.5611C64.7424 39.929 64.6513 40.3234 64.6513 40.7443V41.4205C64.6513 41.9972 64.7507 42.486 64.9496 42.8871C65.1518 43.2848 65.4318 43.5881 65.7898 43.7969C66.1477 44.0024 66.5637 44.1051 67.0377 44.1051C67.3459 44.1051 67.6243 44.062 67.8729 43.9759C68.1248 43.8864 68.3419 43.7538 68.5242 43.5781C68.7065 43.3991 68.8473 43.1771 68.9467 42.9119L70.0803 43.2301C69.9609 43.6146 69.7604 43.9527 69.4787 44.2443C69.197 44.5327 68.849 44.758 68.4347 44.9205C68.0204 45.0795 67.5547 45.1591 67.0377 45.1591ZM73.1577 40.4062V45H71.9844V37.3636H73.1179V38.5568H73.2173C73.3963 38.169 73.6681 37.8575 74.0327 37.6222C74.3973 37.3835 74.8679 37.2642 75.4446 37.2642C75.9617 37.2642 76.4141 37.3703 76.8019 37.5824C77.1896 37.7912 77.4913 38.1094 77.7067 38.5369C77.9221 38.9612 78.0298 39.4981 78.0298 40.1477V45H76.8565V40.2273C76.8565 39.6274 76.7008 39.16 76.3892 38.8253C76.0777 38.4872 75.6501 38.3182 75.1065 38.3182C74.732 38.3182 74.3973 38.3994 74.1023 38.5618C73.8106 38.7242 73.5803 38.9612 73.4112 39.2727C73.2422 39.5843 73.1577 39.9621 73.1577 40.4062ZM83.4949 37.3636V38.358H79.5375V37.3636H83.4949ZM80.6909 35.5341H81.8642V42.8125C81.8642 43.1439 81.9122 43.3925 82.0084 43.5582C82.1078 43.7206 82.2337 43.83 82.3862 43.8864C82.542 43.9394 82.706 43.9659 82.8784 43.9659C83.0076 43.9659 83.1137 43.9593 83.1966 43.946C83.2794 43.9295 83.3457 43.9162 83.3954 43.9062L83.6341 44.9602C83.5545 44.9901 83.4435 45.0199 83.301 45.0497C83.1585 45.0829 82.9778 45.0994 82.7591 45.0994C82.4276 45.0994 82.1028 45.0282 81.7846 44.8857C81.4698 44.7431 81.2079 44.526 80.9991 44.2344C80.7936 43.9427 80.6909 43.5748 80.6909 43.1307V35.5341ZM90.5321 39.0739L89.4782 39.3722C89.4119 39.1965 89.3141 39.0258 89.1848 38.8601C89.0589 38.6911 88.8866 38.5518 88.6678 38.4425C88.4491 38.3331 88.169 38.2784 87.8276 38.2784C87.3603 38.2784 86.9708 38.3861 86.6593 38.6016C86.351 38.8137 86.1969 39.0838 86.1969 39.4119C86.1969 39.7036 86.303 39.9339 86.5151 40.103C86.7272 40.272 87.0587 40.4129 87.5094 40.5256L88.6429 40.804C89.3257 40.9697 89.8345 41.2232 90.1692 41.5646C90.504 41.9027 90.6714 42.3385 90.6714 42.8722C90.6714 43.3097 90.5454 43.7008 90.2935 44.0455C90.0449 44.3902 89.6969 44.6619 89.2495 44.8608C88.802 45.0597 88.2817 45.1591 87.6884 45.1591C86.9095 45.1591 86.2649 44.9901 85.7545 44.652C85.244 44.3139 84.9209 43.8201 84.785 43.1705L85.8986 42.892C86.0047 43.303 86.2052 43.6113 86.5002 43.8168C86.7985 44.0223 87.1879 44.125 87.6685 44.125C88.2154 44.125 88.6496 44.009 88.9711 43.777C89.2959 43.5417 89.4583 43.2599 89.4583 42.9318C89.4583 42.6667 89.3655 42.4446 89.1799 42.2656C88.9943 42.0833 88.7092 41.9474 88.3248 41.858L87.052 41.5597C86.3527 41.3939 85.839 41.1371 85.5108 40.7891C85.186 40.4377 85.0236 39.9986 85.0236 39.4716C85.0236 39.0407 85.1446 38.6596 85.3866 38.3281C85.6318 37.9967 85.9649 37.7365 86.3858 37.5476C86.8101 37.3587 87.2907 37.2642 87.8276 37.2642C88.5833 37.2642 89.1766 37.4299 89.6074 37.7614C90.0416 38.0928 90.3499 38.5303 90.5321 39.0739Z" fill="#0D1717" fill-opacity="0.6"/>
<defs>
<clipPath id="clip0_207_489">
<rect width="12" height="12" fill="white" transform="translate(77.0004 3)"/>
</clipPath>
</defs>
</svg>
