<svg width="159" height="56" viewBox="0 0 159 56" fill="none" xmlns="http://www.w3.org/2000/svg">
<g clip-path="url(#clip0_221_780)">
<path d="M7.79002 21.0768L7.7904 21.0767L30.4298 18.2875L30.4299 18.2875C31.1734 18.1958 31.6244 19.0881 31.1075 19.6327L24.9476 26.1217C24.9476 26.1217 24.9476 26.1217 24.9476 26.1217C24.6316 26.4545 24.391 26.8514 24.2419 27.2854C24.0928 27.7194 24.0388 28.1804 24.0835 28.6371L24.0836 28.6374L24.928 37.2132C24.9281 37.2133 24.9281 37.2133 24.9281 37.2134C25.0002 37.9505 24.1189 38.382 23.5806 37.871L7.33705 22.4514L7.33687 22.4512C7.22681 22.3468 7.14871 22.2132 7.11167 22.0661C7.07464 21.919 7.08019 21.7644 7.12769 21.6203C7.1752 21.4763 7.26269 21.3487 7.37996 21.2524C7.49723 21.1562 7.63944 21.0953 7.79002 21.0768Z" fill="#EC3B35" stroke="white" stroke-width="1.6"/>
</g>
<rect x="40" y="25" width="110" height="24" rx="12" fill="#EC3B35"/>
<path d="M57.4148 41H56.3068L59.5114 32.2727H60.6023L63.8068 41H62.6989L60.0909 33.6534H60.0227L57.4148 41ZM57.8239 37.5909H62.2898V38.5284H57.8239V37.5909ZM65.0298 41V34.4545H66.0014V35.4773H66.0866C66.223 35.1278 66.4432 34.8565 66.7472 34.6634C67.0511 34.4673 67.4162 34.3693 67.8423 34.3693C68.2741 34.3693 68.6335 34.4673 68.9205 34.6634C69.2102 34.8565 69.4361 35.1278 69.598 35.4773H69.6662C69.8338 35.1392 70.0852 34.8707 70.4205 34.6719C70.7557 34.4702 71.1577 34.3693 71.6264 34.3693C72.2116 34.3693 72.6903 34.5526 73.0625 34.919C73.4347 35.2827 73.6207 35.8494 73.6207 36.6193V41H72.6151V36.6193C72.6151 36.1364 72.483 35.7912 72.2188 35.5838C71.9545 35.3764 71.6435 35.2727 71.2855 35.2727C70.8253 35.2727 70.4688 35.4119 70.2159 35.6903C69.9631 35.9659 69.8366 36.3153 69.8366 36.7386V41H68.8139V36.517C68.8139 36.1449 68.6932 35.8452 68.4517 35.6179C68.2102 35.3878 67.8991 35.2727 67.5185 35.2727C67.2571 35.2727 67.0128 35.3423 66.7855 35.4815C66.5611 35.6207 66.3793 35.8139 66.2401 36.0611C66.1037 36.3054 66.0355 36.5881 66.0355 36.9091V41H65.0298ZM75.5959 41V32.2727H76.6016V35.4943H76.6868C76.7607 35.3807 76.8629 35.2358 76.9936 35.0597C77.1271 34.8807 77.3175 34.7216 77.5646 34.5824C77.8146 34.4403 78.1527 34.3693 78.5788 34.3693C79.13 34.3693 79.6158 34.5071 80.0362 34.7827C80.4567 35.0582 80.7848 35.4489 81.0206 35.9545C81.2564 36.4602 81.3743 37.0568 81.3743 37.7443C81.3743 38.4375 81.2564 39.0384 81.0206 39.5469C80.7848 40.0526 80.4581 40.4446 80.0405 40.723C79.6229 40.9986 79.1413 41.1364 78.5959 41.1364C78.1754 41.1364 77.8388 41.0668 77.5859 40.9276C77.3331 40.7855 77.1385 40.625 77.0021 40.446C76.8658 40.2642 76.7607 40.1136 76.6868 39.9943H76.5675V41H75.5959ZM76.5845 37.7273C76.5845 38.2216 76.657 38.6577 76.8018 39.0355C76.9467 39.4105 77.1584 39.7045 77.4368 39.9176C77.7152 40.1278 78.0561 40.233 78.4595 40.233C78.88 40.233 79.2308 40.1222 79.5121 39.9006C79.7962 39.6761 80.0092 39.375 80.1513 38.9972C80.2962 38.6165 80.3686 38.1932 80.3686 37.7273C80.3686 37.267 80.2976 36.8523 80.1555 36.483C80.0163 36.1108 79.8047 35.8168 79.5206 35.6009C79.2393 35.3821 78.8857 35.2727 78.4595 35.2727C78.0504 35.2727 77.7067 35.3764 77.4283 35.5838C77.1499 35.7884 76.9396 36.0753 76.7976 36.4446C76.6555 36.8111 76.5845 37.2386 76.5845 37.7273ZM84.8388 41.1534C84.424 41.1534 84.0476 41.0753 83.7095 40.919C83.3714 40.7599 83.103 40.5312 82.9041 40.233C82.7053 39.9318 82.6058 39.5682 82.6058 39.142C82.6058 38.767 82.6797 38.4631 82.8274 38.2301C82.9751 37.9943 83.1726 37.8097 83.4197 37.6761C83.6669 37.5426 83.9396 37.4432 84.2379 37.3778C84.5391 37.3097 84.8416 37.2557 85.1456 37.2159C85.5433 37.1648 85.8658 37.1264 86.1129 37.1009C86.3629 37.0724 86.5447 37.0256 86.6584 36.9602C86.7749 36.8949 86.8331 36.7812 86.8331 36.6193V36.5852C86.8331 36.1648 86.718 35.8381 86.4879 35.6051C86.2607 35.3722 85.9155 35.2557 85.4524 35.2557C84.9723 35.2557 84.5959 35.3608 84.3232 35.571C84.0504 35.7812 83.8587 36.0057 83.7479 36.2443L82.7933 35.9034C82.9638 35.5057 83.1911 35.196 83.4751 34.9744C83.7621 34.75 84.0746 34.5937 84.4126 34.5057C84.7536 34.4148 85.0888 34.3693 85.4183 34.3693C85.6286 34.3693 85.87 34.3949 86.1428 34.446C86.4183 34.4943 86.6839 34.5952 86.9396 34.7486C87.1982 34.902 87.4126 35.1335 87.5831 35.4432C87.7536 35.7528 87.8388 36.1676 87.8388 36.6875V41H86.8331V40.1136H86.782C86.7138 40.2557 86.6001 40.4077 86.4411 40.5696C86.282 40.7315 86.0703 40.8693 85.8061 40.983C85.5419 41.0966 85.2195 41.1534 84.8388 41.1534ZM84.9922 40.25C85.3899 40.25 85.7251 40.1719 85.9979 40.0156C86.2734 39.8594 86.4808 39.6577 86.62 39.4105C86.7621 39.1634 86.8331 38.9034 86.8331 38.6307V37.7102C86.7905 37.7614 86.6967 37.8082 86.5518 37.8509C86.4098 37.8906 86.245 37.9261 86.0575 37.9574C85.8729 37.9858 85.6925 38.0114 85.5163 38.0341C85.343 38.054 85.2024 38.071 85.0945 38.0852C84.8331 38.1193 84.5888 38.1747 84.3615 38.2514C84.1371 38.3253 83.9553 38.4375 83.8161 38.5881C83.6797 38.7358 83.6115 38.9375 83.6115 39.1932C83.6115 39.5426 83.7408 39.8068 83.9993 39.9858C84.2607 40.1619 84.5916 40.25 84.9922 40.25ZM94.3107 35.9205L93.4073 36.1761C93.3505 36.0256 93.2667 35.8793 93.1559 35.7372C93.0479 35.5923 92.9002 35.473 92.7127 35.3793C92.5252 35.2855 92.2852 35.2386 91.9925 35.2386C91.592 35.2386 91.2582 35.331 90.9911 35.5156C90.7269 35.6974 90.5948 35.929 90.5948 36.2102C90.5948 36.4602 90.6857 36.6577 90.8675 36.8026C91.0494 36.9474 91.3335 37.0682 91.7198 37.1648L92.6914 37.4034C93.2766 37.5455 93.7127 37.7628 93.9996 38.0554C94.2866 38.3452 94.43 38.7187 94.43 39.1761C94.43 39.5511 94.3221 39.8864 94.1062 40.1818C93.8931 40.4773 93.5948 40.7102 93.2113 40.8807C92.8278 41.0511 92.3817 41.1364 91.8732 41.1364C91.2056 41.1364 90.6531 40.9915 90.2156 40.7017C89.7781 40.4119 89.5011 39.9886 89.3846 39.4318L90.3391 39.1932C90.43 39.5455 90.6019 39.8097 90.8548 39.9858C91.1104 40.1619 91.4442 40.25 91.8562 40.25C92.3249 40.25 92.6971 40.1506 92.9727 39.9517C93.2511 39.75 93.3903 39.5085 93.3903 39.2273C93.3903 39 93.3107 38.8097 93.1516 38.6562C92.9925 38.5 92.7482 38.3835 92.4187 38.3068L91.3278 38.0511C90.7283 37.9091 90.288 37.6889 90.0067 37.3906C89.7283 37.0895 89.5891 36.7131 89.5891 36.2614C89.5891 35.892 89.6928 35.5653 89.9002 35.2812C90.1104 34.9972 90.396 34.7741 90.7567 34.6122C91.1204 34.4503 91.5323 34.3693 91.9925 34.3693C92.6403 34.3693 93.1488 34.5114 93.5181 34.7955C93.8903 35.0795 94.1545 35.4545 94.3107 35.9205ZM100.58 35.9205L99.6768 36.1761C99.62 36.0256 99.5362 35.8793 99.4254 35.7372C99.3175 35.5923 99.1697 35.473 98.9822 35.3793C98.7947 35.2855 98.5547 35.2386 98.2621 35.2386C97.8615 35.2386 97.5277 35.331 97.2607 35.5156C96.9964 35.6974 96.8643 35.929 96.8643 36.2102C96.8643 36.4602 96.9553 36.6577 97.1371 36.8026C97.3189 36.9474 97.603 37.0682 97.9893 37.1648L98.9609 37.4034C99.5462 37.5455 99.9822 37.7628 100.269 38.0554C100.556 38.3452 100.7 38.7187 100.7 39.1761C100.7 39.5511 100.592 39.8864 100.376 40.1818C100.163 40.4773 99.8643 40.7102 99.4808 40.8807C99.0973 41.0511 98.6513 41.1364 98.1428 41.1364C97.4751 41.1364 96.9226 40.9915 96.4851 40.7017C96.0476 40.4119 95.7706 39.9886 95.6541 39.4318L96.6087 39.1932C96.6996 39.5455 96.8714 39.8097 97.1243 39.9858C97.38 40.1619 97.7138 40.25 98.1257 40.25C98.5945 40.25 98.9666 40.1506 99.2422 39.9517C99.5206 39.75 99.6598 39.5085 99.6598 39.2273C99.6598 39 99.5803 38.8097 99.4212 38.6562C99.2621 38.5 99.0178 38.3835 98.6882 38.3068L97.5973 38.0511C96.9979 37.9091 96.5575 37.6889 96.2763 37.3906C95.9979 37.0895 95.8587 36.7131 95.8587 36.2614C95.8587 35.892 95.9624 35.5653 96.1697 35.2812C96.38 34.9972 96.6655 34.7741 97.0263 34.6122C97.3899 34.4503 97.8018 34.3693 98.2621 34.3693C98.9098 34.3693 99.4183 34.5114 99.7876 34.7955C100.16 35.0795 100.424 35.4545 100.58 35.9205ZM104.14 41.1534C103.725 41.1534 103.348 41.0753 103.01 40.919C102.672 40.7599 102.404 40.5312 102.205 40.233C102.006 39.9318 101.907 39.5682 101.907 39.142C101.907 38.767 101.98 38.4631 102.128 38.2301C102.276 37.9943 102.473 37.8097 102.721 37.6761C102.968 37.5426 103.24 37.4432 103.539 37.3778C103.84 37.3097 104.142 37.2557 104.446 37.2159C104.844 37.1648 105.167 37.1264 105.414 37.1009C105.664 37.0724 105.846 37.0256 105.959 36.9602C106.076 36.8949 106.134 36.7812 106.134 36.6193V36.5852C106.134 36.1648 106.019 35.8381 105.789 35.6051C105.561 35.3722 105.216 35.2557 104.753 35.2557C104.273 35.2557 103.897 35.3608 103.624 35.571C103.351 35.7812 103.159 36.0057 103.049 36.2443L102.094 35.9034C102.265 35.5057 102.492 35.196 102.776 34.9744C103.063 34.75 103.375 34.5937 103.713 34.5057C104.054 34.4148 104.39 34.3693 104.719 34.3693C104.929 34.3693 105.171 34.3949 105.444 34.446C105.719 34.4943 105.985 34.5952 106.24 34.7486C106.499 34.902 106.713 35.1335 106.884 35.4432C107.054 35.7528 107.14 36.1676 107.14 36.6875V41H106.134V40.1136H106.083C106.015 40.2557 105.901 40.4077 105.742 40.5696C105.583 40.7315 105.371 40.8693 105.107 40.983C104.843 41.0966 104.52 41.1534 104.14 41.1534ZM104.293 40.25C104.691 40.25 105.026 40.1719 105.299 40.0156C105.574 39.8594 105.782 39.6577 105.921 39.4105C106.063 39.1634 106.134 38.9034 106.134 38.6307V37.7102C106.091 37.7614 105.998 37.8082 105.853 37.8509C105.711 37.8906 105.546 37.9261 105.358 37.9574C105.174 37.9858 104.993 38.0114 104.817 38.0341C104.644 38.054 104.503 38.071 104.395 38.0852C104.134 38.1193 103.89 38.1747 103.662 38.2514C103.438 38.3253 103.256 38.4375 103.117 38.5881C102.98 38.7358 102.912 38.9375 102.912 39.1932C102.912 39.5426 103.042 39.8068 103.3 39.9858C103.561 40.1619 103.892 40.25 104.293 40.25ZM111.447 41.1364C110.901 41.1364 110.42 40.9986 110.002 40.723C109.585 40.4446 109.258 40.0526 109.022 39.5469C108.786 39.0384 108.668 38.4375 108.668 37.7443C108.668 37.0568 108.786 36.4602 109.022 35.9545C109.258 35.4489 109.586 35.0582 110.006 34.7827C110.427 34.5071 110.913 34.3693 111.464 34.3693C111.89 34.3693 112.227 34.4403 112.474 34.5824C112.724 34.7216 112.914 34.8807 113.045 35.0597C113.178 35.2358 113.282 35.3807 113.356 35.4943H113.441V32.2727H114.447V41H113.475V39.9943H113.356C113.282 40.1136 113.177 40.2642 113.04 40.446C112.904 40.625 112.71 40.7855 112.457 40.9276C112.204 41.0668 111.867 41.1364 111.447 41.1364ZM111.583 40.233C111.987 40.233 112.327 40.1278 112.606 39.9176C112.884 39.7045 113.096 39.4105 113.241 39.0355C113.386 38.6577 113.458 38.2216 113.458 37.7273C113.458 37.2386 113.387 36.8111 113.245 36.4446C113.103 36.0753 112.893 35.7884 112.614 35.5838C112.336 35.3764 111.992 35.2727 111.583 35.2727C111.157 35.2727 110.802 35.3821 110.518 35.6009C110.237 35.8168 110.025 36.1108 109.883 36.483C109.744 36.8523 109.674 37.267 109.674 37.7273C109.674 38.1932 109.745 38.6165 109.887 38.9972C110.032 39.375 110.245 39.6761 110.526 39.9006C110.81 40.1222 111.163 40.233 111.583 40.233ZM119.087 41.1364C118.496 41.1364 117.978 40.9957 117.532 40.7145C117.089 40.4332 116.742 40.0398 116.492 39.5341C116.245 39.0284 116.121 38.4375 116.121 37.7614C116.121 37.0795 116.245 36.4844 116.492 35.9759C116.742 35.4673 117.089 35.0724 117.532 34.7912C117.978 34.5099 118.496 34.3693 119.087 34.3693C119.678 34.3693 120.195 34.5099 120.638 34.7912C121.085 35.0724 121.431 35.4673 121.678 35.9759C121.928 36.4844 122.053 37.0795 122.053 37.7614C122.053 38.4375 121.928 39.0284 121.678 39.5341C121.431 40.0398 121.085 40.4332 120.638 40.7145C120.195 40.9957 119.678 41.1364 119.087 41.1364ZM119.087 40.233C119.536 40.233 119.906 40.1179 120.195 39.8878C120.485 39.6577 120.7 39.3551 120.839 38.9801C120.978 38.6051 121.048 38.1989 121.048 37.7614C121.048 37.3239 120.978 36.9162 120.839 36.5384C120.7 36.1605 120.485 35.8551 120.195 35.6222C119.906 35.3892 119.536 35.2727 119.087 35.2727C118.638 35.2727 118.269 35.3892 117.979 35.6222C117.69 35.8551 117.475 36.1605 117.336 36.5384C117.197 36.9162 117.127 37.3239 117.127 37.7614C117.127 38.1989 117.197 38.6051 117.336 38.9801C117.475 39.3551 117.69 39.6577 117.979 39.8878C118.269 40.1179 118.638 40.233 119.087 40.233ZM123.588 41V34.4545H124.56V35.4432H124.628C124.748 35.1193 124.963 34.8565 125.276 34.6548C125.588 34.4531 125.941 34.3523 126.333 34.3523C126.407 34.3523 126.499 34.3537 126.61 34.3565C126.721 34.3594 126.804 34.3636 126.861 34.3693V35.392C126.827 35.3835 126.749 35.3707 126.627 35.3537C126.507 35.3338 126.381 35.3239 126.248 35.3239C125.929 35.3239 125.645 35.3906 125.395 35.5241C125.148 35.6548 124.952 35.8366 124.807 36.0696C124.665 36.2997 124.594 36.5625 124.594 36.858V41H123.588ZM132.69 35.9205L131.786 36.1761C131.729 36.0256 131.646 35.8793 131.535 35.7372C131.427 35.5923 131.279 35.473 131.092 35.3793C130.904 35.2855 130.664 35.2386 130.371 35.2386C129.971 35.2386 129.637 35.331 129.37 35.5156C129.106 35.6974 128.974 35.929 128.974 36.2102C128.974 36.4602 129.065 36.6577 129.246 36.8026C129.428 36.9474 129.712 37.0682 130.099 37.1648L131.07 37.4034C131.656 37.5455 132.092 37.7628 132.379 38.0554C132.665 38.3452 132.809 38.7187 132.809 39.1761C132.809 39.5511 132.701 39.8864 132.485 40.1818C132.272 40.4773 131.974 40.7102 131.59 40.8807C131.207 41.0511 130.761 41.1364 130.252 41.1364C129.585 41.1364 129.032 40.9915 128.594 40.7017C128.157 40.4119 127.88 39.9886 127.763 39.4318L128.718 39.1932C128.809 39.5455 128.981 39.8097 129.234 39.9858C129.489 40.1619 129.823 40.25 130.235 40.25C130.704 40.25 131.076 40.1506 131.352 39.9517C131.63 39.75 131.769 39.5085 131.769 39.2273C131.769 39 131.69 38.8097 131.531 38.6562C131.371 38.5 131.127 38.3835 130.798 38.3068L129.707 38.0511C129.107 37.9091 128.667 37.6889 128.386 37.3906C128.107 37.0895 127.968 36.7131 127.968 36.2614C127.968 35.892 128.072 35.5653 128.279 35.2812C128.489 34.9972 128.775 34.7741 129.136 34.6122C129.499 34.4503 129.911 34.3693 130.371 34.3693C131.019 34.3693 131.528 34.5114 131.897 34.7955C132.269 35.0795 132.533 35.4545 132.69 35.9205Z" fill="#F8F8FF"/>
<defs>
<clipPath id="clip0_221_780">
<rect width="32" height="32" fill="white" transform="translate(0 23.208) rotate(-46.4906)"/>
</clipPath>
</defs>
</svg>
