<svg width="667" height="720" viewBox="0 0 667 720" fill="none" xmlns="http://www.w3.org/2000/svg">
<g filter="url(#filter0_dd_2968_3753)">
<g clip-path="url(#clip0_2968_3753)">
<rect x="9" y="6" width="649" height="701.797" rx="9.74718" fill="#F7F7F7"/>
<path d="M461.808 382.875L357.231 330.079L463.599 118.094L568.175 170.89L461.808 382.875Z" fill="#F16C67" stroke="#263238" stroke-width="0.47303" stroke-miterlimit="10"/>
<path d="M544.964 191.651C543.301 190.814 541.819 189.656 540.604 188.245C539.39 186.833 538.465 185.195 537.885 183.426C537.304 181.656 537.079 179.789 537.222 177.933C537.365 176.076 537.873 174.265 538.717 172.605C538.986 172.09 539.283 171.59 539.606 171.107L479.61 140.836C479.423 141.388 479.198 141.927 478.937 142.449C477.248 145.794 474.299 148.332 470.74 149.503C467.18 150.675 463.3 150.384 459.954 148.696C459.692 148.567 459.438 148.423 459.193 148.264L378.868 308.57L379.668 308.926C383.013 310.615 385.551 313.564 386.723 317.124C387.894 320.683 387.604 324.563 385.915 327.909C385.65 328.432 385.348 328.937 385.014 329.42L445.06 359.729C445.252 359.178 445.477 358.64 445.733 358.116C446.572 356.454 447.73 354.973 449.142 353.759C450.554 352.545 452.191 351.622 453.96 351.042C455.73 350.461 457.596 350.236 459.452 350.378C461.309 350.52 463.119 351.026 464.78 351.869C465.299 352.135 465.8 352.436 466.278 352.77L546.577 192.286C546.026 192.112 545.487 191.9 544.964 191.651ZM451.269 271.24C447.181 269.174 443.798 265.942 441.546 261.954C439.295 257.965 438.277 253.398 438.62 248.831C438.964 244.264 440.654 239.901 443.477 236.294C446.3 232.687 450.129 229.998 454.48 228.568C458.831 227.137 463.509 227.028 467.922 228.256C472.334 229.483 476.284 231.991 479.271 235.463C482.259 238.935 484.15 243.215 484.705 247.761C485.26 252.308 484.455 256.917 482.391 261.005C479.62 266.488 474.785 270.646 468.949 272.565C463.113 274.484 456.754 274.007 451.269 271.24Z" fill="white" stroke="#263238" stroke-width="0.47303" stroke-linecap="round" stroke-linejoin="round"/>
<path d="M460.348 383.333L362.107 319.528L490.797 120.291L589.038 184.096L460.348 383.333Z" fill="#F16C67" stroke="#263238" stroke-width="0.47303" stroke-miterlimit="10"/>
<path d="M563.718 202.227C560.575 200.185 558.37 196.978 557.59 193.312C556.809 189.645 557.515 185.819 559.554 182.673C559.88 182.189 560.232 181.723 560.608 181.276L504.205 144.631C503.951 145.159 503.667 145.672 503.354 146.167C502.348 147.729 501.044 149.078 499.517 150.135C497.989 151.192 496.268 151.938 494.451 152.33C492.635 152.721 490.76 152.751 488.932 152.417C487.104 152.083 485.36 151.392 483.8 150.383C483.559 150.23 483.33 150.04 483.089 149.875L385.94 300.48C386.194 300.62 386.448 300.76 386.689 300.925C388.254 301.935 389.604 303.245 390.661 304.778C391.718 306.312 392.461 308.039 392.848 309.861C393.235 311.683 393.259 313.564 392.916 315.395C392.574 317.225 391.873 318.971 390.854 320.53C390.531 321.02 390.179 321.49 389.8 321.939L446.203 358.572C446.459 358.045 446.743 357.532 447.054 357.035C449.098 353.894 452.305 351.692 455.972 350.913C459.638 350.135 463.463 350.843 466.608 352.883C467.091 353.21 467.558 353.562 468.004 353.937L565.242 203.078C564.718 202.824 564.209 202.54 563.718 202.227ZM461.96 271.213C458.115 268.718 455.097 265.138 453.286 260.928C451.475 256.717 450.954 252.064 451.788 247.557C452.622 243.05 454.774 238.891 457.972 235.607C461.169 232.324 465.269 230.062 469.752 229.108C474.235 228.154 478.9 228.551 483.158 230.249C487.415 231.947 491.074 234.869 493.67 238.646C496.267 242.423 497.685 246.886 497.745 251.469C497.806 256.052 496.505 260.55 494.009 264.394C490.663 269.547 485.406 273.16 479.397 274.439C473.387 275.718 467.115 274.557 461.96 271.213Z" fill="white" stroke="#263238" stroke-width="0.47303" stroke-linecap="round" stroke-linejoin="round"/>
<path d="M458.431 383.676L369.954 306.881L524.991 127.389L613.455 204.171L458.431 383.676Z" fill="#F16C67" stroke="#263238" stroke-width="0.47303" stroke-miterlimit="10"/>
<path d="M585.863 218.621C584.344 217.312 583.122 215.694 582.279 213.874C581.436 212.055 580.991 210.076 580.974 208.071C580.957 206.066 581.369 204.081 582.181 202.247C582.994 200.414 584.188 198.776 585.685 197.441L534.895 153.355C534.572 153.841 534.22 154.308 533.841 154.752C532.625 156.155 531.143 157.305 529.482 158.136C527.821 158.966 526.012 159.461 524.16 159.592C522.307 159.722 520.447 159.487 518.685 158.898C516.924 158.31 515.295 157.38 513.894 156.162C513.665 155.958 513.462 155.755 513.259 155.552L396.2 291.327C396.429 291.505 396.67 291.67 396.886 291.873C398.405 293.182 399.627 294.8 400.47 296.619C401.313 298.439 401.758 300.417 401.775 302.422C401.792 304.427 401.38 306.413 400.568 308.246C399.755 310.08 398.56 311.718 397.063 313.052L447.854 357.138C448.179 356.654 448.531 356.188 448.908 355.741C450.206 354.206 451.821 352.968 453.641 352.114C455.462 351.26 457.446 350.809 459.456 350.792C461.467 350.775 463.458 351.193 465.293 352.016C467.128 352.84 468.763 354.05 470.087 355.564L587.26 219.7C586.769 219.375 586.302 219.014 585.863 218.621ZM475.547 272.865C472.085 269.861 469.591 265.898 468.381 261.477C467.172 257.056 467.3 252.375 468.751 248.027C470.201 243.679 472.909 239.859 476.531 237.05C480.153 234.241 484.526 232.569 489.098 232.246C493.67 231.922 498.236 232.962 502.217 235.234C506.198 237.505 509.416 240.907 511.464 245.007C513.512 249.108 514.298 253.724 513.722 258.271C513.147 262.818 511.236 267.093 508.23 270.554C506.237 272.852 503.81 274.736 501.088 276.096C498.366 277.456 495.403 278.267 492.368 278.481C489.332 278.696 486.285 278.311 483.398 277.347C480.512 276.383 477.844 274.86 475.547 272.865Z" fill="white" stroke="#263238" stroke-width="0.47303" stroke-linecap="round" stroke-linejoin="round"/>
<path d="M458.164 389.441L380.76 301.524L558.398 144.354L635.802 232.284L458.164 389.441Z" fill="#F16C67" stroke="#263238" stroke-width="0.47303" stroke-miterlimit="10"/>
<path d="M606.585 242.91C604.111 240.095 602.855 236.414 603.094 232.673C603.332 228.933 605.044 225.441 607.855 222.962C608.297 222.577 608.764 222.221 609.252 221.896L564.81 171.41C563.492 172.924 561.865 174.137 560.038 174.968C558.211 175.8 556.228 176.23 554.221 176.23C552.214 176.23 550.23 175.8 548.403 174.968C546.576 174.137 544.949 172.924 543.631 171.41C543.428 171.182 543.263 170.953 543.085 170.725L408.847 289.599C409.05 289.815 409.266 290.005 409.456 290.234C410.683 291.627 411.623 293.248 412.223 295.004C412.823 296.761 413.071 298.618 412.953 300.471C412.835 302.323 412.354 304.134 411.536 305.8C410.718 307.467 409.58 308.955 408.186 310.182C407.746 310.563 407.283 310.919 406.802 311.248L451.244 361.734C451.636 361.281 452.061 360.857 452.513 360.464C453.906 359.236 455.527 358.294 457.283 357.693C459.04 357.092 460.898 356.844 462.751 356.962C464.604 357.079 466.415 357.562 468.081 358.381C469.748 359.199 471.236 360.339 472.461 361.734C472.846 362.172 473.202 362.634 473.528 363.118L607.817 244.116C607.383 243.739 606.971 243.336 606.585 242.91ZM490.009 281.904C486.984 278.465 485.046 274.207 484.441 269.667C483.836 265.127 484.59 260.509 486.609 256.398C488.627 252.287 491.82 248.866 495.782 246.569C499.745 244.272 504.299 243.202 508.87 243.493C513.441 243.784 517.823 245.424 521.462 248.205C525.101 250.986 527.834 254.784 529.314 259.118C530.795 263.452 530.958 268.128 529.781 272.555C528.605 276.981 526.143 280.959 522.705 283.987C520.42 286.006 517.758 287.554 514.873 288.542C511.988 289.53 508.937 289.939 505.893 289.746C502.85 289.553 499.875 288.76 497.138 287.415C494.401 286.069 491.957 284.196 489.946 281.904H490.009Z" fill="white" stroke="#263238" stroke-width="0.47303" stroke-linecap="round" stroke-linejoin="round"/>
<path d="M435.473 486.527L653.35 395.447C655.199 394.665 656.665 393.184 657.428 391.327C658.191 389.47 658.191 387.387 657.426 385.53L603.157 255.685C602.375 253.833 600.892 252.365 599.032 251.602C597.172 250.838 595.085 250.841 593.227 251.609L375.35 342.663C373.501 343.446 372.036 344.927 371.273 346.784C370.51 348.641 370.51 350.724 371.275 352.58L425.544 482.451C426.326 484.303 427.809 485.771 429.669 486.534C431.529 487.298 433.615 487.295 435.473 486.527Z" fill="#263238" stroke="#263238" stroke-width="0.47303" stroke-linecap="round" stroke-linejoin="round"/>
<path d="M398.398 369.599L411.516 375.302C414.742 376.705 418.494 375.227 419.897 372.001L425.6 358.882C427.003 355.657 425.525 351.905 422.299 350.502L409.18 344.798C405.955 343.396 402.203 344.874 400.8 348.1L395.096 361.218C393.694 364.444 395.172 368.196 398.398 369.599Z" fill="white" stroke="#263238" stroke-width="0.474541" stroke-miterlimit="10"/>
<path d="M609.546 389.923L634.091 379.666L629.846 369.509L605.301 379.766L609.546 389.923Z" fill="white" stroke="#263238" stroke-width="0.47303" stroke-miterlimit="10"/>
<path d="M576.968 403.554L601.512 393.297L597.267 383.139L572.723 393.396L576.968 403.554Z" fill="white" stroke="#263238" stroke-width="0.47303" stroke-miterlimit="10"/>
<path d="M544.384 417.159L568.928 406.902L564.683 396.745L540.139 407.002L544.384 417.159Z" fill="white" stroke="#263238" stroke-width="0.47303" stroke-miterlimit="10"/>
<path d="M511.804 430.779L536.349 420.521L532.104 410.364L507.56 420.621L511.804 430.779Z" fill="white" stroke="#263238" stroke-width="0.47303" stroke-miterlimit="10"/>
<path d="M479.226 444.398L503.77 434.141L499.525 423.983L474.981 434.24L479.226 444.398Z" fill="white" stroke="#263238" stroke-width="0.47303" stroke-miterlimit="10"/>
<path d="M446.634 458.013L471.178 447.756L466.934 437.598L442.389 447.855L446.634 458.013Z" fill="white" stroke="#263238" stroke-width="0.47303" stroke-miterlimit="10"/>
<path d="M570.508 366.487L616.07 347.447C618.212 346.552 619.222 344.09 618.327 341.948L604.947 309.929C604.052 307.788 601.59 306.777 599.448 307.672L553.886 326.712C551.744 327.607 550.734 330.069 551.629 332.211L565.009 364.23C565.904 366.372 568.366 367.382 570.508 366.487Z" fill="white" stroke="#263238" stroke-width="0.47303" stroke-miterlimit="10"/>
<path d="M475.214 327.773L592.008 278.965L589.53 273.037L472.737 321.845L475.214 327.773Z" fill="white" stroke="#263238" stroke-width="0.47303" stroke-miterlimit="10"/>
<path d="M439.207 114.4V509.928C439.203 515.14 437.131 520.138 433.446 523.823C429.76 527.509 424.763 529.581 419.551 529.584H248.655C243.443 529.581 238.445 527.509 234.76 523.823C231.074 520.138 229.002 515.14 228.999 509.928V114.387C228.999 109.178 231.069 104.181 234.752 100.497C238.436 96.8137 243.432 94.7441 248.642 94.7441H321.996V94.9727C323.824 101.55 328.027 105.829 332.7 105.829H335.379C340.052 105.829 344.267 101.55 346.083 94.9727L346.159 94.7441H419.551C422.132 94.7441 424.688 95.2526 427.073 96.2403C429.458 97.2281 431.624 98.676 433.45 100.501C435.275 102.326 436.723 104.493 437.71 106.878C438.698 109.263 439.207 111.819 439.207 114.4Z" fill="white" stroke="#263238" stroke-width="0.47303" stroke-linecap="round" stroke-linejoin="round"/>
<path d="M439.207 210.444V114.4C439.207 111.819 438.698 109.263 437.71 106.878C436.723 104.493 435.275 102.326 433.45 100.501C431.624 98.676 429.458 97.2281 427.073 96.2403C424.688 95.2526 422.132 94.7441 419.551 94.7441H346.286L346.21 94.9727C344.382 101.55 340.179 105.829 335.506 105.829H332.827C328.154 105.829 323.938 101.55 322.123 94.9727V94.7441H248.642C243.432 94.7441 238.436 96.8137 234.752 100.497C231.069 104.181 228.999 109.178 228.999 114.387V210.444H439.207Z" fill="#F16C67" stroke="#263238" stroke-width="0.47303" stroke-miterlimit="10"/>
<path d="M395.578 338.422H271.307C264.575 338.422 259.118 343.879 259.118 350.612V389.276C259.118 396.008 264.575 401.465 271.307 401.465H395.578C402.31 401.465 407.768 396.008 407.768 389.276V350.612C407.768 343.879 402.31 338.422 395.578 338.422Z" fill="#F16C67" stroke="#263238" stroke-width="0.47303" stroke-miterlimit="10"/>
<path d="M439.207 132.799V114.4C439.207 111.819 438.698 109.263 437.71 106.878C436.723 104.493 435.275 102.326 433.45 100.501C431.624 98.676 429.458 97.2281 427.073 96.2403C424.688 95.2526 422.132 94.7441 419.551 94.7441H346.286L346.21 94.9727C344.382 101.55 340.179 105.829 335.506 105.829H332.827C328.154 105.829 323.938 101.55 322.123 94.9727V94.7441H248.642C243.432 94.7441 238.436 96.8137 234.752 100.497C231.069 104.181 228.999 109.178 228.999 114.387V132.799H439.207Z" fill="#DBDBDB" stroke="#263238" stroke-width="0.47303" stroke-linecap="round" stroke-linejoin="round"/>
<path d="M228.999 506.83V509.928C229.002 515.14 231.074 520.138 234.76 523.823C238.445 527.509 243.443 529.581 248.655 529.584H419.551C424.763 529.581 429.76 527.509 433.446 523.823C437.131 520.138 439.203 515.14 439.207 509.928V506.83H228.999Z" fill="#DBDBDB" stroke="#263238" stroke-width="0.47303" stroke-linecap="round" stroke-linejoin="round"/>
<path d="M452.577 208.87V169.431H449.009V118.794C449.006 110.525 445.719 102.596 439.871 96.7505C434.023 90.9049 426.093 87.6211 417.824 87.6211H250.382C242.113 87.6211 234.183 90.9049 228.335 96.7505C222.487 102.596 219.2 110.525 219.196 118.794V520.67C219.2 528.939 222.487 536.868 228.335 542.713C234.183 548.559 242.113 551.843 250.382 551.843H417.824C426.093 551.843 434.023 548.559 439.871 542.713C445.719 536.868 449.006 528.939 449.009 520.67V242.594H452.577V219.193H449.009V208.87H452.577ZM439.207 498.374C439.207 506.642 435.923 514.572 430.077 520.42C424.232 526.268 416.303 529.555 408.034 529.559H260.171C251.903 529.555 243.974 526.268 238.128 520.42C232.283 514.572 228.999 506.642 228.999 498.374V125.917C228.999 117.649 232.283 109.721 238.129 103.875C243.975 98.0286 251.904 94.7444 260.171 94.7444H321.996V94.973C323.824 101.55 328.027 105.829 332.7 105.829H335.379C340.052 105.829 344.267 101.55 346.083 94.973L346.159 94.7444H407.971C416.238 94.7444 424.167 98.0286 430.013 103.875C435.859 109.721 439.143 117.649 439.143 125.917L439.207 498.374Z" fill="#F16C67" stroke="#263238" stroke-width="0.47303" stroke-linecap="round" stroke-linejoin="round"/>
<path d="M415.322 91.9766H252.883C244.908 91.9766 237.261 95.1444 231.622 100.783C225.983 106.422 222.815 114.07 222.815 122.044V517.484C222.815 525.458 225.983 533.106 231.622 538.745C237.261 544.384 244.908 547.551 252.883 547.551H415.322C423.297 547.551 430.945 544.384 436.584 538.745C442.222 533.106 445.39 525.458 445.39 517.484V121.981C445.373 114.017 442.198 106.386 436.561 100.761C430.924 95.1357 423.286 91.9765 415.322 91.9766ZM439.207 499.567C439.207 507.543 436.039 515.192 430.401 520.833C424.762 526.474 417.114 529.644 409.139 529.648H259.067C251.091 529.644 243.443 526.474 237.805 520.833C232.166 515.192 228.999 507.543 228.999 499.567V124.8C228.999 120.853 229.776 116.945 231.287 113.298C232.797 109.652 235.011 106.338 237.802 103.548C240.593 100.757 243.906 98.5428 247.552 97.0324C251.199 95.522 255.107 94.7446 259.054 94.7446H321.996V94.9732C323.824 101.551 328.027 105.83 332.7 105.83H335.379C340.052 105.83 344.267 101.551 346.083 94.9732L346.159 94.7446H409.139C417.113 94.7446 424.761 97.9125 430.4 103.551C436.039 109.19 439.207 116.838 439.207 124.812V499.567Z" fill="#263238" stroke="#263238" stroke-width="0.47303" stroke-linecap="round" stroke-linejoin="round"/>
<path d="M336.382 96.23C336.382 95.6493 336.21 95.0817 335.887 94.5991C335.564 94.1165 335.105 93.7405 334.568 93.5189C334.032 93.2973 333.441 93.24 332.872 93.3542C332.303 93.4684 331.78 93.749 331.37 94.1605C330.961 94.572 330.682 95.0958 330.57 95.6656C330.459 96.2354 330.519 96.8255 330.743 97.3613C330.967 97.897 331.344 98.3542 331.828 98.675C332.312 98.9957 332.881 99.1656 333.461 99.1631C333.846 99.1631 334.227 99.0872 334.582 98.9396C334.937 98.792 335.26 98.5758 335.531 98.3033C335.802 98.0307 336.017 97.7073 336.163 97.3515C336.309 96.9957 336.384 96.6146 336.382 96.23Z" fill="white"/>
<path d="M247.677 107.455C247.677 110.413 244.35 111.48 244.337 113.803V113.956H247.563V114.832H243.258V113.994C243.258 110.819 246.585 110.185 246.585 107.442C246.585 106.426 246.255 105.893 245.442 105.893C244.63 105.893 244.287 106.477 244.287 107.34V108.216H243.258V107.467C243.258 105.969 243.944 104.928 245.468 104.928C246.991 104.928 247.677 105.944 247.677 107.455Z" fill="#263238"/>
<path d="M253.061 107.442V107.683C253.108 108.105 253.017 108.531 252.802 108.897C252.586 109.263 252.259 109.55 251.867 109.715C252.26 109.878 252.589 110.164 252.804 110.531C253.02 110.897 253.11 111.324 253.061 111.746V112.508C253.061 114.006 252.35 115.048 250.839 115.048C249.328 115.048 248.642 114.07 248.642 112.508V111.823H249.658V112.572C249.658 113.46 250.026 113.994 250.813 113.994C251.6 113.994 251.969 113.473 251.969 112.47V111.721C251.969 110.743 251.55 110.286 250.699 110.261H250.115V109.27H250.762C250.932 109.272 251.101 109.237 251.256 109.168C251.411 109.098 251.55 108.996 251.662 108.868C251.774 108.74 251.857 108.59 251.906 108.427C251.954 108.264 251.967 108.093 251.943 107.924V107.48C251.943 106.464 251.588 105.944 250.788 105.944C249.988 105.944 249.632 106.502 249.632 107.378V107.886H248.617V107.442C248.617 105.931 249.315 104.902 250.813 104.902C252.312 104.902 253.061 105.944 253.061 107.442Z" fill="#263238"/>
<path d="M255.181 108.18V109.538H254.127V108.18H255.181ZM255.181 113.525V114.833H254.127V113.563L255.181 113.525Z" fill="#263238"/>
<path d="M257.403 109.066C257.547 108.808 257.76 108.596 258.018 108.452C258.276 108.309 258.568 108.24 258.863 108.253C260.133 108.253 260.692 109.18 260.692 110.577V112.507C260.692 114.005 259.981 115.047 258.47 115.047C256.959 115.047 256.273 114.069 256.273 112.507V111.847H257.289V112.571C257.289 113.459 257.657 113.993 258.444 113.993C259.232 113.993 259.6 113.459 259.6 112.571V110.666C259.6 109.777 259.232 109.244 258.444 109.244C258.302 109.239 258.16 109.262 258.027 109.313C257.894 109.363 257.773 109.44 257.67 109.538C257.567 109.636 257.485 109.754 257.428 109.885C257.371 110.015 257.341 110.156 257.34 110.298V110.526H256.311L256.578 105.066H260.387V106.044H257.492L257.403 109.066Z" fill="#263238"/>
<path d="M266.139 107.416V107.607H265.111V107.353C265.111 106.464 264.755 105.944 263.955 105.944C263.155 105.944 262.762 106.477 262.762 107.531V109.753C262.874 109.43 263.088 109.153 263.373 108.963C263.657 108.772 263.995 108.68 264.336 108.699C265.606 108.699 266.164 109.613 266.164 111.023V112.521C266.164 114.019 265.428 115.06 263.917 115.06C262.406 115.06 261.657 114.083 261.657 112.521V107.442C261.657 105.88 262.368 104.902 263.917 104.902C265.466 104.902 266.139 105.944 266.139 107.416ZM262.762 111.099V112.572C262.762 113.46 263.117 113.994 263.917 113.994C264.717 113.994 265.085 113.46 265.085 112.572V111.099C265.085 110.21 264.704 109.677 263.917 109.677C263.13 109.677 262.762 110.21 262.762 111.099Z" fill="#263238"/>
<path d="M373.37 107.848H370.602V114.781H373.37V107.848Z" fill="#263238"/>
<path d="M377.065 106.463H374.297V114.78H377.065V106.463Z" fill="#263238"/>
<path d="M380.76 105.473H377.992V114.78H380.76V105.473Z" fill="#263238"/>
<path d="M384.468 103.758H381.699V114.779H384.468V103.758Z" fill="#263238"/>
<path d="M418.789 114.603H402.155V104.445H418.789V114.603ZM403.069 113.676H417.862V105.347H403.069V113.676Z" fill="#263238"/>
<path d="M413.24 106.363H404.453V112.674H413.24V106.363Z" fill="#263238"/>
<path d="M420.3 108.316H418.205V110.716H420.3V108.316Z" fill="#263238"/>
<path d="M396.048 112.38C395.935 112.382 395.825 112.351 395.73 112.291C392.34 110.285 390.105 112.151 390.004 112.291C389.944 112.346 389.873 112.387 389.797 112.414C389.72 112.44 389.639 112.451 389.558 112.445C389.477 112.439 389.399 112.417 389.327 112.379C389.255 112.342 389.191 112.29 389.14 112.228C389.083 112.171 389.038 112.104 389.008 112.03C388.977 111.956 388.961 111.876 388.961 111.796C388.961 111.716 388.977 111.636 389.008 111.562C389.038 111.488 389.083 111.421 389.14 111.364C389.267 111.25 392.124 108.825 396.314 111.288C396.455 111.372 396.557 111.509 396.598 111.669C396.638 111.828 396.614 111.997 396.53 112.139C396.474 112.214 396.402 112.275 396.318 112.317C396.234 112.359 396.141 112.38 396.048 112.38Z" fill="#263238"/>
<path d="M397.305 110.298C397.192 110.302 397.081 110.271 396.987 110.209C392.086 107.302 388.797 110.108 388.759 110.209C388.697 110.264 388.626 110.305 388.548 110.332C388.47 110.358 388.388 110.369 388.306 110.364C388.224 110.358 388.144 110.337 388.07 110.301C387.997 110.264 387.931 110.214 387.877 110.152C387.822 110.091 387.781 110.019 387.755 109.941C387.728 109.863 387.717 109.781 387.723 109.699C387.728 109.617 387.749 109.537 387.785 109.463C387.822 109.39 387.872 109.324 387.934 109.27C387.934 109.27 391.946 105.841 397.622 109.27C397.761 109.357 397.86 109.493 397.901 109.652C397.941 109.81 397.918 109.978 397.838 110.121C397.768 110.188 397.683 110.238 397.591 110.269C397.499 110.3 397.401 110.31 397.305 110.298Z" fill="#263238"/>
<path d="M398.435 107.873C398.323 107.873 398.213 107.843 398.117 107.784C391.921 104.102 387.794 107.568 387.616 107.72C387.559 107.779 387.491 107.826 387.416 107.858C387.341 107.89 387.26 107.906 387.178 107.906C387.096 107.906 387.016 107.89 386.94 107.858C386.865 107.826 386.797 107.779 386.74 107.72C386.637 107.596 386.585 107.437 386.597 107.276C386.609 107.115 386.683 106.964 386.804 106.857C386.804 106.857 391.743 102.616 398.752 106.781C398.893 106.865 398.995 107.002 399.036 107.162C399.076 107.321 399.052 107.49 398.968 107.631C398.907 107.714 398.826 107.78 398.733 107.822C398.639 107.864 398.537 107.882 398.435 107.873Z" fill="#263238"/>
<path d="M394.181 113.422C394.183 113.732 394.094 114.035 393.924 114.293C393.754 114.552 393.511 114.754 393.226 114.874C392.941 114.994 392.626 115.027 392.322 114.968C392.018 114.909 391.739 114.762 391.519 114.544C391.3 114.326 391.15 114.048 391.088 113.744C391.027 113.441 391.057 113.126 391.175 112.84C391.293 112.554 391.493 112.309 391.75 112.137C392.007 111.965 392.31 111.873 392.619 111.873C393.031 111.873 393.426 112.036 393.719 112.326C394.012 112.616 394.178 113.01 394.181 113.422Z" fill="#263238"/>
<path d="M292.193 253.156L293.568 244.774H294.387L293.012 253.156H292.193ZM288.379 250.832L288.51 250.013H294.763L294.632 250.832H288.379ZM289.246 253.156L290.621 244.774H291.44L290.065 253.156H289.246ZM288.87 247.917L289.001 247.099H295.255L295.124 247.917H288.87ZM299.268 244.774V253.156H298.253V245.838H298.203L296.157 247.197V246.166L298.253 244.774H299.268ZM304.412 253.271C303.796 253.271 303.27 253.103 302.837 252.767C302.403 252.429 302.071 251.939 301.842 251.298C301.613 250.654 301.498 249.877 301.498 248.965C301.498 248.059 301.613 247.286 301.842 246.645C302.074 246.001 302.407 245.509 302.841 245.171C303.277 244.83 303.801 244.659 304.412 244.659C305.024 244.659 305.546 244.83 305.98 245.171C306.416 245.509 306.749 246.001 306.979 246.645C307.21 247.286 307.326 248.059 307.326 248.965C307.326 249.877 307.212 250.654 306.983 251.298C306.753 251.939 306.422 252.429 305.988 252.767C305.554 253.103 305.029 253.271 304.412 253.271ZM304.412 252.37C305.024 252.37 305.498 252.076 305.837 251.486C306.175 250.897 306.344 250.057 306.344 248.965C306.344 248.239 306.266 247.621 306.111 247.111C305.958 246.601 305.737 246.212 305.448 245.945C305.161 245.677 304.816 245.544 304.412 245.544C303.807 245.544 303.333 245.842 302.992 246.44C302.651 247.035 302.481 247.876 302.481 248.965C302.481 249.691 302.557 250.308 302.71 250.815C302.863 251.323 303.082 251.709 303.369 251.973C303.658 252.238 304.006 252.37 304.412 252.37ZM311.616 253.271C310.999 253.271 310.474 253.103 310.04 252.767C309.606 252.429 309.275 251.939 309.045 251.298C308.816 250.654 308.702 249.877 308.702 248.965C308.702 248.059 308.816 247.286 309.045 246.645C309.277 246.001 309.61 245.509 310.044 245.171C310.481 244.83 311.005 244.659 311.616 244.659C312.227 244.659 312.749 244.83 313.183 245.171C313.62 245.509 313.953 246.001 314.182 246.645C314.414 247.286 314.53 248.059 314.53 248.965C314.53 249.877 314.415 250.654 314.186 251.298C313.957 251.939 313.625 252.429 313.191 252.767C312.758 253.103 312.232 253.271 311.616 253.271ZM311.616 252.37C312.227 252.37 312.702 252.076 313.04 251.486C313.378 250.897 313.548 250.057 313.548 248.965C313.548 248.239 313.47 247.621 313.314 247.111C313.161 246.601 312.94 246.212 312.651 245.945C312.365 245.677 312.02 245.544 311.616 245.544C311.01 245.544 310.537 245.842 310.196 246.44C309.854 247.035 309.684 247.876 309.684 248.965C309.684 249.691 309.76 250.308 309.913 250.815C310.066 251.323 310.286 251.709 310.572 251.973C310.861 252.238 311.209 252.37 311.616 252.37ZM317.25 252.01L317.184 252.452C317.138 252.763 317.067 253.096 316.971 253.451C316.878 253.806 316.782 254.14 316.681 254.454C316.58 254.767 316.496 255.017 316.431 255.203H315.694C315.73 255.028 315.776 254.797 315.833 254.511C315.891 254.224 315.948 253.904 316.005 253.549C316.065 253.197 316.114 252.837 316.153 252.469L316.202 252.01H317.25ZM321.464 253.271C320.848 253.271 320.322 253.103 319.888 252.767C319.455 252.429 319.123 251.939 318.894 251.298C318.665 250.654 318.55 249.877 318.55 248.965C318.55 248.059 318.665 247.286 318.894 246.645C319.126 246.001 319.459 245.509 319.893 245.171C320.329 244.83 320.853 244.659 321.464 244.659C322.075 244.659 322.598 244.83 323.032 245.171C323.468 245.509 323.801 246.001 324.03 246.645C324.262 247.286 324.378 248.059 324.378 248.965C324.378 249.877 324.264 250.654 324.034 251.298C323.805 251.939 323.474 252.429 323.04 252.767C322.606 253.103 322.081 253.271 321.464 253.271ZM321.464 252.37C322.075 252.37 322.55 252.076 322.888 251.486C323.227 250.897 323.396 250.057 323.396 248.965C323.396 248.239 323.318 247.621 323.163 247.111C323.01 246.601 322.789 246.212 322.5 245.945C322.213 245.677 321.868 245.544 321.464 245.544C320.858 245.544 320.385 245.842 320.044 246.44C319.703 247.035 319.532 247.876 319.532 248.965C319.532 249.691 319.609 250.308 319.762 250.815C319.914 251.323 320.134 251.709 320.42 251.973C320.71 252.238 321.058 252.37 321.464 252.37ZM328.668 253.271C328.051 253.271 327.526 253.103 327.092 252.767C326.658 252.429 326.326 251.939 326.097 251.298C325.868 250.654 325.753 249.877 325.753 248.965C325.753 248.059 325.868 247.286 326.097 246.645C326.329 246.001 326.662 245.509 327.096 245.171C327.533 244.83 328.056 244.659 328.668 244.659C329.279 244.659 329.801 244.83 330.235 245.171C330.672 245.509 331.005 246.001 331.234 246.645C331.466 247.286 331.582 248.059 331.582 248.965C331.582 249.877 331.467 250.654 331.238 251.298C331.009 251.939 330.677 252.429 330.243 252.767C329.809 253.103 329.284 253.271 328.668 253.271ZM328.668 252.37C329.279 252.37 329.754 252.076 330.092 251.486C330.43 250.897 330.599 250.057 330.599 248.965C330.599 248.239 330.522 247.621 330.366 247.111C330.213 246.601 329.992 246.212 329.703 245.945C329.417 245.677 329.071 245.544 328.668 245.544C328.062 245.544 327.588 245.842 327.247 246.44C326.906 247.035 326.736 247.876 326.736 248.965C326.736 249.691 326.812 250.308 326.965 250.815C327.118 251.323 327.337 251.709 327.624 251.973C327.913 252.238 328.261 252.37 328.668 252.37ZM335.871 253.271C335.254 253.271 334.729 253.103 334.295 252.767C333.861 252.429 333.53 251.939 333.301 251.298C333.071 250.654 332.957 249.877 332.957 248.965C332.957 248.059 333.071 247.286 333.301 246.645C333.533 246.001 333.866 245.509 334.299 245.171C334.736 244.83 335.26 244.659 335.871 244.659C336.482 244.659 337.005 244.83 337.439 245.171C337.875 245.509 338.208 246.001 338.437 246.645C338.669 247.286 338.785 248.059 338.785 248.965C338.785 249.877 338.671 250.654 338.441 251.298C338.212 251.939 337.881 252.429 337.447 252.767C337.013 253.103 336.488 253.271 335.871 253.271ZM335.871 252.37C336.482 252.37 336.957 252.076 337.295 251.486C337.634 250.897 337.803 250.057 337.803 248.965C337.803 248.239 337.725 247.621 337.57 247.111C337.417 246.601 337.196 246.212 336.906 245.945C336.62 245.677 336.275 245.544 335.871 245.544C335.265 245.544 334.792 245.842 334.451 246.44C334.11 247.035 333.939 247.876 333.939 248.965C333.939 249.691 334.016 250.308 334.168 250.815C334.321 251.323 334.541 251.709 334.827 251.973C335.117 252.238 335.464 252.37 335.871 252.37ZM340.768 253.222C340.566 253.222 340.393 253.149 340.248 253.005C340.104 252.86 340.031 252.687 340.031 252.485C340.031 252.283 340.104 252.11 340.248 251.965C340.393 251.821 340.566 251.748 340.768 251.748C340.97 251.748 341.143 251.821 341.288 251.965C341.433 252.11 341.505 252.283 341.505 252.485C341.505 252.619 341.471 252.742 341.402 252.853C341.337 252.965 341.248 253.055 341.136 253.124C341.027 253.189 340.905 253.222 340.768 253.222ZM345.812 244.659C346.155 244.662 346.499 244.728 346.843 244.856C347.187 244.984 347.501 245.197 347.784 245.494C348.068 245.789 348.296 246.192 348.468 246.702C348.64 247.212 348.726 247.852 348.726 248.621C348.726 249.366 348.655 250.028 348.513 250.606C348.374 251.182 348.172 251.668 347.907 252.063C347.645 252.459 347.326 252.759 346.949 252.964C346.576 253.169 346.153 253.271 345.681 253.271C345.211 253.271 344.792 253.178 344.424 252.993C344.058 252.804 343.758 252.544 343.524 252.211C343.292 251.875 343.143 251.486 343.077 251.044H344.076C344.166 251.429 344.345 251.747 344.612 251.998C344.882 252.246 345.239 252.37 345.681 252.37C346.327 252.37 346.837 252.088 347.211 251.523C347.588 250.958 347.776 250.16 347.776 249.129H347.711C347.558 249.358 347.376 249.556 347.166 249.722C346.956 249.889 346.723 250.017 346.466 250.107C346.21 250.197 345.937 250.242 345.648 250.242C345.168 250.242 344.727 250.123 344.326 249.886C343.927 249.646 343.608 249.317 343.368 248.9C343.131 248.479 343.012 247.999 343.012 247.459C343.012 246.946 343.127 246.477 343.356 246.051C343.588 245.623 343.912 245.282 344.33 245.028C344.75 244.774 345.244 244.651 345.812 244.659ZM345.812 245.56C345.468 245.56 345.158 245.646 344.882 245.818C344.61 245.987 344.393 246.216 344.232 246.505C344.073 246.792 343.994 247.11 343.994 247.459C343.994 247.808 344.071 248.126 344.223 248.413C344.379 248.696 344.59 248.923 344.858 249.092C345.128 249.258 345.435 249.342 345.779 249.342C346.038 249.342 346.279 249.291 346.503 249.19C346.727 249.087 346.922 248.946 347.088 248.769C347.258 248.589 347.39 248.385 347.485 248.159C347.581 247.93 347.629 247.691 347.629 247.443C347.629 247.115 347.55 246.808 347.391 246.522C347.236 246.235 347.02 246.003 346.745 245.826C346.472 245.649 346.161 245.56 345.812 245.56ZM353.004 244.659C353.347 244.662 353.691 244.728 354.035 244.856C354.379 244.984 354.693 245.197 354.976 245.494C355.26 245.789 355.488 246.192 355.66 246.702C355.832 247.212 355.918 247.852 355.918 248.621C355.918 249.366 355.847 250.028 355.705 250.606C355.566 251.182 355.364 251.668 355.099 252.063C354.837 252.459 354.518 252.759 354.141 252.964C353.768 253.169 353.345 253.271 352.873 253.271C352.403 253.271 351.985 253.178 351.616 252.993C351.251 252.804 350.95 252.544 350.716 252.211C350.484 251.875 350.335 251.486 350.27 251.044H351.268C351.358 251.429 351.537 251.747 351.804 251.998C352.075 252.246 352.431 252.37 352.873 252.37C353.519 252.37 354.03 252.088 354.403 251.523C354.78 250.958 354.968 250.16 354.968 249.129H354.903C354.75 249.358 354.569 249.556 354.358 249.722C354.148 249.889 353.915 250.017 353.659 250.107C353.402 250.197 353.129 250.242 352.84 250.242C352.36 250.242 351.919 250.123 351.518 249.886C351.12 249.646 350.8 249.317 350.56 248.9C350.323 248.479 350.204 247.999 350.204 247.459C350.204 246.946 350.319 246.477 350.548 246.051C350.78 245.623 351.105 245.282 351.522 245.028C351.942 244.774 352.436 244.651 353.004 244.659ZM353.004 245.56C352.66 245.56 352.35 245.646 352.075 245.818C351.802 245.987 351.585 246.216 351.424 246.505C351.266 246.792 351.186 247.11 351.186 247.459C351.186 247.808 351.263 248.126 351.416 248.413C351.571 248.696 351.783 248.923 352.05 249.092C352.32 249.258 352.627 249.342 352.971 249.342C353.23 249.342 353.472 249.291 353.695 249.19C353.919 249.087 354.114 248.946 354.281 248.769C354.45 248.589 354.582 248.385 354.678 248.159C354.773 247.93 354.821 247.691 354.821 247.443C354.821 247.115 354.742 246.808 354.584 246.522C354.428 246.235 354.212 246.003 353.937 245.826C353.664 245.649 353.353 245.56 353.004 245.56Z" fill="black"/>
<path d="M289.033 183.501V162.105H296.766V163.655H291.064V171.692H295.712V173.241H291.064V182.129H296.816V183.628L289.033 183.501Z" fill="black"/>
<path d="M298.848 175.653V174.129H304.448V175.653H298.848Z" fill="black"/>
<path d="M310.098 183.501L306.479 162.105H308.193L311.025 179.488L314.25 162.423H315.914L319.215 179.514L321.831 162.105H323.519L320.066 183.501H318.504L315.088 165.851L311.736 183.501H310.098Z" fill="black"/>
<path d="M324.344 183.501L328.865 162.105H330.973L335.518 183.501H333.588L332.534 177.774H327.455L326.376 183.501H324.344ZM327.671 176.314H332.217L329.919 164.772L327.671 176.314Z" fill="black"/>
<path d="M338.109 183.501V162.105H340.115V182.003H346.197V183.501H338.109Z" fill="black"/>
<path d="M348.203 183.501V162.105H350.21V182.003H356.292V183.501H348.203Z" fill="black"/>
<path d="M358.272 183.501V162.105H366.018V163.655H360.253V171.692H364.901V173.241H360.253V182.129H366.018V183.628L358.272 183.501Z" fill="black"/>
<path d="M371.453 183.501V163.655H367.415V162.105H377.37V163.655H373.459V183.501H371.453Z" fill="black"/>
<path d="M312.904 380.212V357.357H320.523C321.699 357.311 322.865 357.583 323.9 358.144C324.787 358.654 325.479 359.445 325.868 360.391C326.329 361.527 326.549 362.746 326.516 363.972C326.598 365.371 326.3 366.767 325.652 368.01C325.11 368.905 324.276 369.587 323.291 369.94C322.212 370.308 321.078 370.488 319.938 370.473H317.907V380.212H312.904ZM317.983 367.007H319.621C320.113 367.036 320.603 366.921 321.03 366.676C321.361 366.428 321.587 366.066 321.665 365.661C321.777 365.096 321.828 364.522 321.818 363.947C321.826 363.431 321.783 362.917 321.691 362.41C321.627 361.995 321.409 361.619 321.081 361.356C320.646 361.057 320.121 360.918 319.596 360.963H317.932L317.983 367.007Z" fill="#263238"/>
<path d="M326.541 380.211L330.846 357.355H336.585L340.839 380.211H336.191L335.442 375.399H332.09L331.303 380.211H326.541ZM332.534 372.377H334.96L333.69 363.488L332.534 372.377Z" fill="#263238"/>
<path d="M344.889 380.211V370.942L340.559 357.457H345.308L347.48 364.669L349.422 357.457H353.981L349.727 370.942V380.211H344.889Z" fill="#263238"/>
<path d="M217.089 118.539C194.766 108.483 171.898 95.785 158.502 74.4786C155.556 69.8059 153.271 65.1967 151.811 63.0508C150.35 65.2602 148.077 69.8694 145.132 74.4786C131.698 95.785 108.842 108.483 86.5325 118.539C85.5421 118.996 69.594 124.558 69.6067 124.723C69.6194 124.888 72.9715 207.257 98.3539 243.394C120.029 274.223 144.979 285.181 151.811 287.721C158.642 285.181 183.554 274.223 205.267 243.394C230.662 207.295 234.014 124.735 234.014 124.723C234.014 124.71 218.041 118.996 217.089 118.539Z" fill="#F16C67"/>
<path d="M210.067 124.659C190.144 115.695 169.739 104.343 157.778 85.2967C155.15 81.1192 153.106 77.0052 151.811 75.0371C150.541 77.0052 148.471 81.1192 145.843 85.2967C133.894 104.318 113.477 115.695 93.6051 124.659C92.7162 125.053 78.4823 130.017 78.4823 130.17C78.4823 130.322 81.4916 203.815 104.144 236.08C123.444 263.583 145.665 273.36 151.811 275.633C157.905 273.36 180.177 263.583 199.515 236.08C222.168 203.866 225.177 130.182 225.177 130.17C225.177 130.157 210.943 125.053 210.067 124.659Z" fill="white"/>
<path d="M152.344 233.237C180.682 233.237 203.655 210.264 203.655 181.926C203.655 153.588 180.682 130.615 152.344 130.615C124.006 130.615 101.033 153.588 101.033 181.926C101.033 210.264 124.006 233.237 152.344 233.237Z" fill="#263238" stroke="#263238" stroke-width="0.47303" stroke-linecap="round" stroke-linejoin="round"/>
<path d="M149.169 198.037H148.7C147.849 197.966 147.026 197.701 146.295 197.26C145.564 196.82 144.944 196.216 144.484 195.497L129.158 171.131C128.739 170.517 128.447 169.824 128.302 169.095C128.156 168.365 128.159 167.614 128.31 166.886C128.461 166.157 128.757 165.467 129.181 164.855C129.605 164.244 130.147 163.725 130.776 163.328C131.405 162.931 132.108 162.665 132.842 162.545C133.577 162.426 134.327 162.456 135.05 162.633C135.772 162.81 136.451 163.131 137.047 163.577C137.643 164.023 138.142 164.584 138.516 165.227L149.944 183.359L181.548 148.085C182.021 147.505 182.607 147.026 183.27 146.679C183.933 146.332 184.66 146.122 185.406 146.064C186.152 146.005 186.902 146.099 187.612 146.338C188.321 146.578 188.974 146.959 189.532 147.458C190.089 147.958 190.54 148.565 190.856 149.243C191.173 149.922 191.348 150.657 191.372 151.405C191.396 152.153 191.268 152.899 190.996 153.596C190.724 154.293 190.313 154.928 189.789 155.462L153.283 196.196C152.766 196.775 152.132 197.239 151.423 197.556C150.714 197.874 149.946 198.037 149.169 198.037Z" fill="#F16C67" stroke="#263238" stroke-width="0.47303" stroke-miterlimit="10"/>
<path opacity="0.18" d="M168.216 187.208C139.254 196.788 114.003 215.164 95.9794 239.776C96.754 241.045 97.5412 242.226 98.3539 243.382C120.029 274.211 144.979 285.169 151.81 287.709C158.642 285.169 183.554 274.211 205.267 243.382C219.692 222.875 227.005 187.36 230.662 160.518C216.238 168.707 196.023 178.091 168.216 187.208Z" fill="black"/>
<path d="M217.089 118.539C194.766 108.483 171.898 95.785 158.502 74.4786C155.556 69.8059 153.271 65.1967 151.811 63.0508C150.35 65.2602 148.077 69.8694 145.132 74.4786C131.698 95.785 108.842 108.483 86.5325 118.539C85.5421 118.996 69.594 124.558 69.6067 124.723C69.6194 124.888 72.9715 207.257 98.3539 243.394C120.029 274.223 144.979 285.181 151.811 287.721C158.642 285.181 183.554 274.223 205.267 243.394C230.662 207.295 234.014 124.735 234.014 124.723C234.014 124.71 218.041 118.996 217.089 118.539Z" stroke="#263238" stroke-width="0.47303" stroke-miterlimit="10"/>
<path d="M173.682 626.295C198.317 601.66 198.317 561.719 173.682 537.084C149.047 512.449 109.106 512.449 84.4713 537.084C59.8365 561.719 59.8366 601.66 84.4714 626.295C109.106 650.93 149.047 650.93 173.682 626.295Z" fill="white" stroke="#263238" stroke-width="0.47303" stroke-miterlimit="10"/>
<path d="M141.144 633.268C169.632 626.602 187.321 598.105 180.655 569.617C173.989 541.13 145.492 523.44 117.005 530.106C88.5176 536.772 70.8279 565.269 77.4937 593.757C84.1596 622.244 112.657 639.934 141.144 633.268Z" fill="white" stroke="#263238" stroke-width="0.47303" stroke-miterlimit="10"/>
<path d="M139.964 629.894L138.173 621.463C131.892 622.555 126.813 621.552 122.936 618.454C119.059 615.355 116.211 610.116 114.391 602.734L126.707 597.845C127.303 600.38 128.154 602.847 129.247 605.21C129.947 606.832 131.08 608.229 132.523 609.248C133.162 609.641 133.873 609.902 134.615 610.013C135.357 610.124 136.114 610.084 136.84 609.895C137.604 609.821 138.333 609.536 138.945 609.072C139.557 608.608 140.028 607.983 140.307 607.267C140.741 605.841 140.794 604.326 140.459 602.874C139.965 600.108 138.635 597.56 136.65 595.573C134.488 593.57 132.072 591.863 129.463 590.494L120.346 585.503C118.333 584.311 116.402 582.983 114.569 581.529C112.784 580.098 111.248 578.382 110.023 576.45C108.629 574.157 107.657 571.633 107.153 568.997C105.977 563.342 106.667 558.568 109.223 554.674C112.068 550.624 116.279 547.739 121.082 546.547L119.368 538.472L123.724 537.545L125.438 545.621C128.271 545.071 131.197 545.246 133.945 546.128C136.179 546.907 138.177 548.245 139.748 550.014C141.277 551.799 142.531 553.801 143.468 555.956C144.415 558.083 145.2 560.277 145.817 562.521L133.247 567.181C132.79 565.197 132.187 563.249 131.444 561.353C130.921 559.931 130.048 558.664 128.904 557.671C128.347 557.263 127.699 556.995 127.016 556.891C126.332 556.787 125.634 556.85 124.981 557.074C124.222 557.228 123.513 557.565 122.916 558.057C122.318 558.548 121.85 559.178 121.552 559.893C120.949 561.329 120.807 562.918 121.146 564.438C121.543 566.861 122.752 569.078 124.574 570.724C126.328 572.178 128.191 573.494 130.149 574.66L139.037 579.586C141.421 580.976 143.692 582.552 145.83 584.297C147.98 586.07 149.858 588.149 151.404 590.468C153.074 593.061 154.234 595.948 154.82 598.976C155.503 601.997 155.473 605.136 154.731 608.143C154.022 611.018 152.553 613.65 150.477 615.762C148.236 617.993 145.466 619.622 142.427 620.498L144.243 629.031L139.964 629.894Z" fill="#263238"/>
<path d="M535.428 608.257C550.135 576.675 536.455 539.15 504.873 524.443C473.29 509.736 435.765 523.416 421.058 554.999C406.351 586.581 420.031 624.106 451.614 638.813C483.196 653.52 520.721 639.84 535.428 608.257Z" fill="white" stroke="#263238" stroke-width="0.47303" stroke-miterlimit="10"/>
<path d="M490.854 633.111C519.275 626.167 536.686 597.498 529.742 569.078C522.798 540.657 494.129 523.246 465.708 530.19C437.287 537.134 419.877 565.803 426.821 594.224C433.765 622.645 462.434 640.055 490.854 633.111Z" fill="white" stroke="#263238" stroke-width="0.47303" stroke-miterlimit="10"/>
<path d="M489.146 629.894L487.343 621.463C481.07 622.555 475.991 621.552 472.106 618.454C468.22 615.355 465.368 610.116 463.548 602.734L475.877 597.845C476.467 600.381 477.318 602.85 478.417 605.21C479.112 606.834 480.247 608.232 481.693 609.248C482.329 609.642 483.038 609.902 483.778 610.014C484.518 610.125 485.273 610.085 485.997 609.895C486.763 609.825 487.493 609.541 488.106 609.077C488.719 608.612 489.189 607.985 489.463 607.267C489.908 605.843 489.965 604.327 489.629 602.874C489.129 600.11 487.8 597.563 485.819 595.573C483.655 593.573 481.239 591.866 478.632 590.494L469.503 585.503C467.494 584.311 465.568 582.983 463.738 581.529C461.95 580.102 460.413 578.385 459.193 576.45C457.798 574.157 456.826 571.633 456.323 568.997C455.112 563.317 455.785 558.547 458.342 554.687C461.185 550.623 465.402 547.723 470.214 546.522L468.5 538.446L472.855 537.52L474.569 545.595C477.398 545.047 480.32 545.221 483.064 546.103C485.299 546.879 487.298 548.217 488.867 549.988C490.404 551.77 491.662 553.773 492.6 555.931C493.542 558.057 494.323 560.252 494.936 562.496L482.378 567.156C481.915 565.173 481.313 563.225 480.575 561.327C480.052 559.906 479.179 558.639 478.036 557.645C477.48 557.237 476.835 556.97 476.154 556.866C475.473 556.762 474.776 556.825 474.125 557.048C473.367 557.202 472.658 557.54 472.06 558.031C471.462 558.523 470.994 559.153 470.696 559.867C470.087 561.302 469.944 562.893 470.29 564.413C470.678 566.836 471.883 569.054 473.706 570.698C475.461 572.15 477.325 573.466 479.28 574.634L488.168 579.561C490.554 580.948 492.826 582.523 494.961 584.272C497.115 586.041 498.994 588.121 500.536 590.443C502.21 593.034 503.374 595.922 503.964 598.95C504.641 601.972 504.611 605.11 503.875 608.118C503.159 610.993 501.686 613.624 499.609 615.736C497.372 617.967 494.607 619.596 491.571 620.472L493.374 629.005L489.146 629.894Z" fill="#263238"/>
<path d="M637.669 491.707V488.24" stroke="#263238" stroke-width="0.47303" stroke-miterlimit="10"/>
<path d="M640.691 484.24H534.641V491.986H640.691V484.24Z" fill="white" stroke="#263238" stroke-width="0.47303" stroke-miterlimit="10"/>
<path d="M539.327 492.672V487.859" stroke="#263238" stroke-width="0.47303" stroke-miterlimit="10"/>
<path d="M542.602 484.582V489.394" stroke="#263238" stroke-width="0.47303" stroke-miterlimit="10"/>
<path d="M633.822 484.977V489.586" stroke="#263238" stroke-width="0.47303" stroke-miterlimit="10"/>
<path d="M628.819 484.977V489.395" stroke="#263238" stroke-width="0.47303" stroke-miterlimit="10"/>
<path d="M616.502 484.773V490.36" stroke="#263238" stroke-width="0.47303" stroke-miterlimit="10"/>
<path d="M550.488 485.357V487.859" stroke="#263238" stroke-width="0.47303" stroke-miterlimit="10"/>
<path d="M552.418 491.122V486.703" stroke="#263238" stroke-width="0.47303" stroke-miterlimit="10"/>
<path d="M566.08 484.773V490.36" stroke="#263238" stroke-width="0.47303" stroke-miterlimit="10"/>
<path d="M590.129 485.357V489.205" stroke="#263238" stroke-width="0.47303" stroke-miterlimit="10"/>
<path d="M645.338 499.326V495.859" stroke="#263238" stroke-width="0.47303" stroke-miterlimit="10"/>
<path d="M648.36 491.859H542.311V499.605H648.36V491.859Z" fill="white" stroke="#263238" stroke-width="0.47303" stroke-miterlimit="10"/>
<path d="M546.996 500.277V495.465" stroke="#263238" stroke-width="0.47303" stroke-miterlimit="10"/>
<path d="M550.272 492.203V497.015" stroke="#263238" stroke-width="0.47303" stroke-miterlimit="10"/>
<path d="M641.478 492.582V497.204" stroke="#263238" stroke-width="0.47303" stroke-miterlimit="10"/>
<path d="M636.475 492.582V497.013" stroke="#263238" stroke-width="0.47303" stroke-miterlimit="10"/>
<path d="M624.159 492.391V497.978" stroke="#263238" stroke-width="0.47303" stroke-miterlimit="10"/>
<path d="M558.157 492.965V495.466" stroke="#263238" stroke-width="0.47303" stroke-miterlimit="10"/>
<path d="M560.087 498.741V494.322" stroke="#263238" stroke-width="0.47303" stroke-miterlimit="10"/>
<path d="M573.75 492.391V497.978" stroke="#263238" stroke-width="0.47303" stroke-miterlimit="10"/>
<path d="M597.799 492.965V496.825" stroke="#263238" stroke-width="0.47303" stroke-miterlimit="10"/>
<path d="M642.646 506.931V503.465" stroke="#263238" stroke-width="0.47303" stroke-miterlimit="10"/>
<path d="M645.668 499.465H539.619V507.21H645.668V499.465Z" fill="white" stroke="#263238" stroke-width="0.47303" stroke-miterlimit="10"/>
<path d="M544.304 507.894V503.082" stroke="#263238" stroke-width="0.47303" stroke-miterlimit="10"/>
<path d="M547.58 499.82V504.62" stroke="#263238" stroke-width="0.47303" stroke-miterlimit="10"/>
<path d="M638.799 500.201V504.823" stroke="#263238" stroke-width="0.47303" stroke-miterlimit="10"/>
<path d="M633.784 500.201V504.62" stroke="#263238" stroke-width="0.47303" stroke-miterlimit="10"/>
<path d="M621.48 500.012V505.586" stroke="#263238" stroke-width="0.47303" stroke-miterlimit="10"/>
<path d="M555.465 500.582V503.083" stroke="#263238" stroke-width="0.47303" stroke-miterlimit="10"/>
<path d="M557.395 506.361V501.93" stroke="#263238" stroke-width="0.47303" stroke-miterlimit="10"/>
<path d="M571.058 500.012V505.586" stroke="#263238" stroke-width="0.47303" stroke-miterlimit="10"/>
<path d="M595.107 500.582V504.429" stroke="#263238" stroke-width="0.47303" stroke-miterlimit="10"/>
<path d="M645.338 514.548V511.082" stroke="#263238" stroke-width="0.47303" stroke-miterlimit="10"/>
<path d="M648.373 507.082H542.323V514.827H648.373V507.082Z" fill="white" stroke="#263238" stroke-width="0.47303" stroke-miterlimit="10"/>
<path d="M547.009 515.514V510.701" stroke="#263238" stroke-width="0.47303" stroke-miterlimit="10"/>
<path d="M550.285 507.426V512.238" stroke="#263238" stroke-width="0.47303" stroke-miterlimit="10"/>
<path d="M641.491 507.82V512.43" stroke="#263238" stroke-width="0.47303" stroke-miterlimit="10"/>
<path d="M636.488 507.82V512.239" stroke="#263238" stroke-width="0.47303" stroke-miterlimit="10"/>
<path d="M624.172 507.617V513.204" stroke="#263238" stroke-width="0.47303" stroke-miterlimit="10"/>
<path d="M558.17 508.199V510.701" stroke="#263238" stroke-width="0.47303" stroke-miterlimit="10"/>
<path d="M560.1 513.966V509.547" stroke="#263238" stroke-width="0.47303" stroke-miterlimit="10"/>
<path d="M573.762 507.617V513.204" stroke="#263238" stroke-width="0.47303" stroke-miterlimit="10"/>
<path d="M597.812 508.199V512.047" stroke="#263238" stroke-width="0.47303" stroke-miterlimit="10"/>
<path d="M637.669 522.168V518.701" stroke="#263238" stroke-width="0.47303" stroke-miterlimit="10"/>
<path d="M640.691 514.703H534.641V522.449H640.691V514.703Z" fill="white" stroke="#263238" stroke-width="0.47303" stroke-miterlimit="10"/>
<path d="M539.327 523.121V518.309" stroke="#263238" stroke-width="0.47303" stroke-miterlimit="10"/>
<path d="M542.602 515.045V519.857" stroke="#263238" stroke-width="0.47303" stroke-miterlimit="10"/>
<path d="M633.822 515.426V520.048" stroke="#263238" stroke-width="0.47303" stroke-miterlimit="10"/>
<path d="M628.819 515.426V519.857" stroke="#263238" stroke-width="0.47303" stroke-miterlimit="10"/>
<path d="M616.502 515.234V520.821" stroke="#263238" stroke-width="0.47303" stroke-miterlimit="10"/>
<path d="M550.488 515.805V518.306" stroke="#263238" stroke-width="0.47303" stroke-miterlimit="10"/>
<path d="M552.418 521.583V517.164" stroke="#263238" stroke-width="0.47303" stroke-miterlimit="10"/>
<path d="M566.08 515.234V520.821" stroke="#263238" stroke-width="0.47303" stroke-miterlimit="10"/>
<path d="M590.129 515.805V519.665" stroke="#263238" stroke-width="0.47303" stroke-miterlimit="10"/>
<path d="M637.669 529.773V526.307" stroke="#263238" stroke-width="0.47303" stroke-miterlimit="10"/>
<path d="M640.691 522.309H534.641V530.054H640.691V522.309Z" fill="white" stroke="#263238" stroke-width="0.47303" stroke-miterlimit="10"/>
<path d="M539.327 530.738V525.926" stroke="#263238" stroke-width="0.47303" stroke-miterlimit="10"/>
<path d="M542.602 522.65V527.463" stroke="#263238" stroke-width="0.47303" stroke-miterlimit="10"/>
<path d="M633.822 523.045V527.667" stroke="#263238" stroke-width="0.47303" stroke-miterlimit="10"/>
<path d="M628.819 523.045V527.464" stroke="#263238" stroke-width="0.47303" stroke-miterlimit="10"/>
<path d="M616.502 522.854V528.428" stroke="#263238" stroke-width="0.47303" stroke-miterlimit="10"/>
<path d="M550.488 523.426V525.927" stroke="#263238" stroke-width="0.47303" stroke-miterlimit="10"/>
<path d="M552.418 529.203V524.771" stroke="#263238" stroke-width="0.47303" stroke-miterlimit="10"/>
<path d="M566.08 522.854V528.428" stroke="#263238" stroke-width="0.47303" stroke-miterlimit="10"/>
<path d="M590.129 523.426V527.273" stroke="#263238" stroke-width="0.47303" stroke-miterlimit="10"/>
<path d="M637.669 537.392V533.926" stroke="#263238" stroke-width="0.47303" stroke-miterlimit="10"/>
<path d="M640.691 529.926H534.641V537.671H640.691V529.926Z" fill="white" stroke="#263238" stroke-width="0.47303" stroke-miterlimit="10"/>
<path d="M539.327 538.357V533.545" stroke="#263238" stroke-width="0.47303" stroke-miterlimit="10"/>
<path d="M542.602 530.27V535.082" stroke="#263238" stroke-width="0.47303" stroke-miterlimit="10"/>
<path d="M633.822 530.65V535.272" stroke="#263238" stroke-width="0.47303" stroke-miterlimit="10"/>
<path d="M628.819 530.65V535.082" stroke="#263238" stroke-width="0.47303" stroke-miterlimit="10"/>
<path d="M616.502 530.459V536.046" stroke="#263238" stroke-width="0.47303" stroke-miterlimit="10"/>
<path d="M550.488 531.043V533.544" stroke="#263238" stroke-width="0.47303" stroke-miterlimit="10"/>
<path d="M552.418 536.809V532.391" stroke="#263238" stroke-width="0.47303" stroke-miterlimit="10"/>
<path d="M566.08 530.459V536.046" stroke="#263238" stroke-width="0.47303" stroke-miterlimit="10"/>
<path d="M590.129 531.043V534.89" stroke="#263238" stroke-width="0.47303" stroke-miterlimit="10"/>
<path d="M645.96 545.009V541.543" stroke="#263238" stroke-width="0.47303" stroke-miterlimit="10"/>
<path d="M648.982 537.545H542.933V545.29H648.982V537.545Z" fill="white" stroke="#263238" stroke-width="0.47303" stroke-miterlimit="10"/>
<path d="M547.631 545.963V541.15" stroke="#263238" stroke-width="0.47303" stroke-miterlimit="10"/>
<path d="M550.894 537.889V542.701" stroke="#263238" stroke-width="0.47303" stroke-miterlimit="10"/>
<path d="M642.113 538.268V542.889" stroke="#263238" stroke-width="0.47303" stroke-miterlimit="10"/>
<path d="M637.11 538.268V542.699" stroke="#263238" stroke-width="0.47303" stroke-miterlimit="10"/>
<path d="M624.794 538.078V543.652" stroke="#263238" stroke-width="0.47303" stroke-miterlimit="10"/>
<path d="M558.792 538.648V541.15" stroke="#263238" stroke-width="0.47303" stroke-miterlimit="10"/>
<path d="M560.709 544.427V540.008" stroke="#263238" stroke-width="0.47303" stroke-miterlimit="10"/>
<path d="M574.372 538.078V543.652" stroke="#263238" stroke-width="0.47303" stroke-miterlimit="10"/>
<path d="M598.434 538.648V542.508" stroke="#263238" stroke-width="0.47303" stroke-miterlimit="10"/>
<path d="M648.855 552.617V549.15" stroke="#263238" stroke-width="0.47303" stroke-miterlimit="10"/>
<path d="M651.89 545.148H545.84V552.894H651.89V545.148Z" fill="white" stroke="#263238" stroke-width="0.47303" stroke-miterlimit="10"/>
<path d="M550.526 553.582V548.77" stroke="#263238" stroke-width="0.47303" stroke-miterlimit="10"/>
<path d="M553.802 545.494V550.306" stroke="#263238" stroke-width="0.47303" stroke-miterlimit="10"/>
<path d="M645.008 545.887V550.509" stroke="#263238" stroke-width="0.47303" stroke-miterlimit="10"/>
<path d="M640.005 545.887V550.305" stroke="#263238" stroke-width="0.47303" stroke-miterlimit="10"/>
<path d="M627.689 545.697V551.272" stroke="#263238" stroke-width="0.47303" stroke-miterlimit="10"/>
<path d="M561.687 546.268V548.769" stroke="#263238" stroke-width="0.47303" stroke-miterlimit="10"/>
<path d="M563.617 552.045V547.613" stroke="#263238" stroke-width="0.47303" stroke-miterlimit="10"/>
<path d="M577.28 545.697V551.272" stroke="#263238" stroke-width="0.47303" stroke-miterlimit="10"/>
<path d="M601.329 546.268V550.115" stroke="#263238" stroke-width="0.47303" stroke-miterlimit="10"/>
<path d="M645.351 560.236V556.77" stroke="#263238" stroke-width="0.47303" stroke-miterlimit="10"/>
<path d="M648.373 552.77H542.323V560.515H648.373V552.77Z" fill="white" stroke="#263238" stroke-width="0.47303" stroke-miterlimit="10"/>
<path d="M547.021 561.199V556.387" stroke="#263238" stroke-width="0.47303" stroke-miterlimit="10"/>
<path d="M550.285 553.111V557.924" stroke="#263238" stroke-width="0.47303" stroke-miterlimit="10"/>
<path d="M641.504 553.492V558.114" stroke="#263238" stroke-width="0.47303" stroke-miterlimit="10"/>
<path d="M636.501 553.492V557.924" stroke="#263238" stroke-width="0.47303" stroke-miterlimit="10"/>
<path d="M624.184 553.303V558.89" stroke="#263238" stroke-width="0.47303" stroke-miterlimit="10"/>
<path d="M558.182 553.887V556.388" stroke="#263238" stroke-width="0.47303" stroke-miterlimit="10"/>
<path d="M560.1 559.649V555.23" stroke="#263238" stroke-width="0.47303" stroke-miterlimit="10"/>
<path d="M573.762 553.303V558.89" stroke="#263238" stroke-width="0.47303" stroke-miterlimit="10"/>
<path d="M597.824 553.887V557.734" stroke="#263238" stroke-width="0.47303" stroke-miterlimit="10"/>
<path d="M637.669 567.853V564.387" stroke="#263238" stroke-width="0.47303" stroke-miterlimit="10"/>
<path d="M640.691 560.389H534.641V568.134H640.691V560.389Z" fill="white" stroke="#263238" stroke-width="0.47303" stroke-miterlimit="10"/>
<path d="M539.327 568.807V563.994" stroke="#263238" stroke-width="0.47303" stroke-miterlimit="10"/>
<path d="M542.602 560.73V565.543" stroke="#263238" stroke-width="0.47303" stroke-miterlimit="10"/>
<path d="M633.822 561.111V565.733" stroke="#263238" stroke-width="0.47303" stroke-miterlimit="10"/>
<path d="M628.819 561.111V565.543" stroke="#263238" stroke-width="0.47303" stroke-miterlimit="10"/>
<path d="M616.502 560.92V566.494" stroke="#263238" stroke-width="0.47303" stroke-miterlimit="10"/>
<path d="M550.488 561.492V563.994" stroke="#263238" stroke-width="0.47303" stroke-miterlimit="10"/>
<path d="M552.418 567.27V562.852" stroke="#263238" stroke-width="0.47303" stroke-miterlimit="10"/>
<path d="M566.08 560.92V566.494" stroke="#263238" stroke-width="0.47303" stroke-miterlimit="10"/>
<path d="M590.129 561.492V565.352" stroke="#263238" stroke-width="0.47303" stroke-miterlimit="10"/>
<path d="M635.104 575.459V571.992" stroke="#263238" stroke-width="0.47303" stroke-miterlimit="10"/>
<path d="M638.126 567.994H532.076V575.74H638.126V567.994Z" fill="white" stroke="#263238" stroke-width="0.47303" stroke-miterlimit="10"/>
<path d="M536.774 576.426V571.613" stroke="#263238" stroke-width="0.47303" stroke-miterlimit="10"/>
<path d="M540.037 568.336V573.148" stroke="#263238" stroke-width="0.47303" stroke-miterlimit="10"/>
<path d="M631.257 568.73V573.34" stroke="#263238" stroke-width="0.47303" stroke-miterlimit="10"/>
<path d="M626.254 568.73V573.149" stroke="#263238" stroke-width="0.47303" stroke-miterlimit="10"/>
<path d="M613.937 568.539V574.113" stroke="#263238" stroke-width="0.47303" stroke-miterlimit="10"/>
<path d="M547.935 569.109V571.611" stroke="#263238" stroke-width="0.47303" stroke-miterlimit="10"/>
<path d="M549.853 574.888V570.457" stroke="#263238" stroke-width="0.47303" stroke-miterlimit="10"/>
<path d="M563.515 568.539V574.113" stroke="#263238" stroke-width="0.47303" stroke-miterlimit="10"/>
<path d="M587.577 569.109V572.957" stroke="#263238" stroke-width="0.47303" stroke-miterlimit="10"/>
<path d="M634.596 583.078V579.611" stroke="#263238" stroke-width="0.47303" stroke-miterlimit="10"/>
<path d="M637.618 575.611H531.568V583.357H637.618V575.611Z" fill="white" stroke="#263238" stroke-width="0.47303" stroke-miterlimit="10"/>
<path d="M536.254 584.043V579.23" stroke="#263238" stroke-width="0.47303" stroke-miterlimit="10"/>
<path d="M539.53 575.953V580.766" stroke="#263238" stroke-width="0.47303" stroke-miterlimit="10"/>
<path d="M630.749 576.336V580.958" stroke="#263238" stroke-width="0.47303" stroke-miterlimit="10"/>
<path d="M625.746 576.336V580.767" stroke="#263238" stroke-width="0.47303" stroke-miterlimit="10"/>
<path d="M613.429 576.145V581.731" stroke="#263238" stroke-width="0.47303" stroke-miterlimit="10"/>
<path d="M547.415 576.73V579.232" stroke="#263238" stroke-width="0.47303" stroke-miterlimit="10"/>
<path d="M549.345 582.493V578.074" stroke="#263238" stroke-width="0.47303" stroke-miterlimit="10"/>
<path d="M563.007 576.145V581.731" stroke="#263238" stroke-width="0.47303" stroke-miterlimit="10"/>
<path d="M587.056 576.73V580.578" stroke="#263238" stroke-width="0.47303" stroke-miterlimit="10"/>
<path d="M634.85 590.697V587.23" stroke="#263238" stroke-width="0.47303" stroke-miterlimit="10"/>
<path d="M637.872 583.23H531.822V590.976H637.872V583.23Z" fill="white" stroke="#263238" stroke-width="0.47303" stroke-miterlimit="10"/>
<path d="M536.52 591.648V586.836" stroke="#263238" stroke-width="0.47303" stroke-miterlimit="10"/>
<path d="M539.784 583.574V588.387" stroke="#263238" stroke-width="0.47303" stroke-miterlimit="10"/>
<path d="M631.003 583.953V588.575" stroke="#263238" stroke-width="0.47303" stroke-miterlimit="10"/>
<path d="M626 583.953V588.385" stroke="#263238" stroke-width="0.47303" stroke-miterlimit="10"/>
<path d="M613.683 583.764V589.338" stroke="#263238" stroke-width="0.47303" stroke-miterlimit="10"/>
<path d="M547.681 584.336V586.837" stroke="#263238" stroke-width="0.47303" stroke-miterlimit="10"/>
<path d="M549.599 590.113V585.682" stroke="#263238" stroke-width="0.47303" stroke-miterlimit="10"/>
<path d="M563.262 583.764V589.338" stroke="#263238" stroke-width="0.47303" stroke-miterlimit="10"/>
<path d="M587.323 584.336V588.196" stroke="#263238" stroke-width="0.47303" stroke-miterlimit="10"/>
<path d="M633.313 598.302V594.836" stroke="#263238" stroke-width="0.47303" stroke-miterlimit="10"/>
<path d="M636.336 590.836H530.286V598.581H636.336V590.836Z" fill="white" stroke="#263238" stroke-width="0.47303" stroke-miterlimit="10"/>
<path d="M534.984 599.267V594.455" stroke="#263238" stroke-width="0.47303" stroke-miterlimit="10"/>
<path d="M538.247 591.18V595.992" stroke="#263238" stroke-width="0.47303" stroke-miterlimit="10"/>
<path d="M629.466 591.572V596.181" stroke="#263238" stroke-width="0.47303" stroke-miterlimit="10"/>
<path d="M624.464 591.572V595.991" stroke="#263238" stroke-width="0.47303" stroke-miterlimit="10"/>
<path d="M612.147 591.383V596.957" stroke="#263238" stroke-width="0.47303" stroke-miterlimit="10"/>
<path d="M546.145 591.953V594.455" stroke="#263238" stroke-width="0.47303" stroke-miterlimit="10"/>
<path d="M548.063 597.732V593.301" stroke="#263238" stroke-width="0.47303" stroke-miterlimit="10"/>
<path d="M561.725 591.383V596.957" stroke="#263238" stroke-width="0.47303" stroke-miterlimit="10"/>
<path d="M585.787 591.953V595.8" stroke="#263238" stroke-width="0.47303" stroke-miterlimit="10"/>
<path d="M633.568 605.922V602.455" stroke="#263238" stroke-width="0.47303" stroke-miterlimit="10"/>
<path d="M636.59 598.455H530.54V606.201H636.59V598.455Z" fill="white" stroke="#263238" stroke-width="0.47303" stroke-miterlimit="10"/>
<path d="M535.238 606.887V602.074" stroke="#263238" stroke-width="0.47303" stroke-miterlimit="10"/>
<path d="M538.501 598.797V603.609" stroke="#263238" stroke-width="0.47303" stroke-miterlimit="10"/>
<path d="M629.72 599.178V603.8" stroke="#263238" stroke-width="0.47303" stroke-miterlimit="10"/>
<path d="M624.718 599.178V603.609" stroke="#263238" stroke-width="0.47303" stroke-miterlimit="10"/>
<path d="M612.401 598.988V604.575" stroke="#263238" stroke-width="0.47303" stroke-miterlimit="10"/>
<path d="M546.399 599.572V602.074" stroke="#263238" stroke-width="0.47303" stroke-miterlimit="10"/>
<path d="M548.316 605.337V600.918" stroke="#263238" stroke-width="0.47303" stroke-miterlimit="10"/>
<path d="M561.979 598.988V604.575" stroke="#263238" stroke-width="0.47303" stroke-miterlimit="10"/>
<path d="M586.041 599.572V603.42" stroke="#263238" stroke-width="0.47303" stroke-miterlimit="10"/>
<path d="M634.596 613.526V610.072" stroke="#263238" stroke-width="0.47303" stroke-miterlimit="10"/>
<path d="M637.618 606.074H531.568V613.82H637.618V606.074Z" fill="white" stroke="#263238" stroke-width="0.47303" stroke-miterlimit="10"/>
<path d="M536.254 614.492V609.68" stroke="#263238" stroke-width="0.47303" stroke-miterlimit="10"/>
<path d="M539.53 606.416V611.228" stroke="#263238" stroke-width="0.47303" stroke-miterlimit="10"/>
<path d="M630.749 606.797V611.419" stroke="#263238" stroke-width="0.47303" stroke-miterlimit="10"/>
<path d="M625.746 606.797V611.228" stroke="#263238" stroke-width="0.47303" stroke-miterlimit="10"/>
<path d="M613.429 606.605V612.18" stroke="#263238" stroke-width="0.47303" stroke-miterlimit="10"/>
<path d="M547.415 607.176V609.677" stroke="#263238" stroke-width="0.47303" stroke-miterlimit="10"/>
<path d="M549.345 612.955V608.523" stroke="#263238" stroke-width="0.47303" stroke-miterlimit="10"/>
<path d="M563.007 606.605V612.18" stroke="#263238" stroke-width="0.47303" stroke-miterlimit="10"/>
<path d="M587.056 607.176V611.023" stroke="#263238" stroke-width="0.47303" stroke-miterlimit="10"/>
<path d="M634.85 621.144V617.678" stroke="#263238" stroke-width="0.47303" stroke-miterlimit="10"/>
<path d="M637.872 613.68H531.822V621.425H637.872V613.68Z" fill="white" stroke="#263238" stroke-width="0.47303" stroke-miterlimit="10"/>
<path d="M536.52 622.111V617.299" stroke="#263238" stroke-width="0.47303" stroke-miterlimit="10"/>
<path d="M539.784 614.021V618.834" stroke="#263238" stroke-width="0.47303" stroke-miterlimit="10"/>
<path d="M631.003 614.414V619.023" stroke="#263238" stroke-width="0.47303" stroke-miterlimit="10"/>
<path d="M626 614.414V618.833" stroke="#263238" stroke-width="0.47303" stroke-miterlimit="10"/>
<path d="M613.683 614.225V619.799" stroke="#263238" stroke-width="0.47303" stroke-miterlimit="10"/>
<path d="M547.681 614.797V617.298" stroke="#263238" stroke-width="0.47303" stroke-miterlimit="10"/>
<path d="M549.599 620.574V616.143" stroke="#263238" stroke-width="0.47303" stroke-miterlimit="10"/>
<path d="M563.262 614.225V619.799" stroke="#263238" stroke-width="0.47303" stroke-miterlimit="10"/>
<path d="M587.323 614.797V618.644" stroke="#263238" stroke-width="0.47303" stroke-miterlimit="10"/>
<path d="M637.669 628.763V625.297" stroke="#263238" stroke-width="0.47303" stroke-miterlimit="10"/>
<path d="M640.691 621.297H534.641V629.042H640.691V621.297Z" fill="white" stroke="#263238" stroke-width="0.47303" stroke-miterlimit="10"/>
<path d="M539.327 629.728V624.916" stroke="#263238" stroke-width="0.47303" stroke-miterlimit="10"/>
<path d="M542.602 621.641V626.453" stroke="#263238" stroke-width="0.47303" stroke-miterlimit="10"/>
<path d="M633.822 622.021V626.643" stroke="#263238" stroke-width="0.47303" stroke-miterlimit="10"/>
<path d="M628.819 622.021V626.453" stroke="#263238" stroke-width="0.47303" stroke-miterlimit="10"/>
<path d="M616.502 621.83V627.417" stroke="#263238" stroke-width="0.47303" stroke-miterlimit="10"/>
<path d="M550.488 622.414V624.915" stroke="#263238" stroke-width="0.47303" stroke-miterlimit="10"/>
<path d="M552.418 628.18V623.762" stroke="#263238" stroke-width="0.47303" stroke-miterlimit="10"/>
<path d="M566.08 621.83V627.417" stroke="#263238" stroke-width="0.47303" stroke-miterlimit="10"/>
<path d="M590.129 622.414V626.261" stroke="#263238" stroke-width="0.47303" stroke-miterlimit="10"/>
<path d="M637.669 636.37V632.916" stroke="#263238" stroke-width="0.47303" stroke-miterlimit="10"/>
<path d="M640.691 628.902H534.641V636.635H640.691V628.902Z" fill="white" stroke="#263238" stroke-width="0.47303" stroke-miterlimit="10"/>
<path d="M539.327 637.334V632.521" stroke="#263238" stroke-width="0.47303" stroke-miterlimit="10"/>
<path d="M542.602 629.26V634.072" stroke="#263238" stroke-width="0.47303" stroke-miterlimit="10"/>
<path d="M633.822 629.641V634.263" stroke="#263238" stroke-width="0.47303" stroke-miterlimit="10"/>
<path d="M628.819 629.641V634.072" stroke="#263238" stroke-width="0.47303" stroke-miterlimit="10"/>
<path d="M616.502 629.449V635.023" stroke="#263238" stroke-width="0.47303" stroke-miterlimit="10"/>
<path d="M550.488 630.021V632.523" stroke="#263238" stroke-width="0.47303" stroke-miterlimit="10"/>
<path d="M552.418 635.799V631.367" stroke="#263238" stroke-width="0.47303" stroke-miterlimit="10"/>
<path d="M566.08 629.449V635.023" stroke="#263238" stroke-width="0.47303" stroke-miterlimit="10"/>
<path d="M590.129 630.021V633.869" stroke="#263238" stroke-width="0.47303" stroke-miterlimit="10"/>
<path d="M637.669 643.988V640.521" stroke="#263238" stroke-width="0.47303" stroke-miterlimit="10"/>
<path d="M640.691 636.52H534.641V644.252H640.691V636.52Z" fill="white" stroke="#263238" stroke-width="0.47303" stroke-miterlimit="10"/>
<path d="M539.327 644.953V640.141" stroke="#263238" stroke-width="0.47303" stroke-miterlimit="10"/>
<path d="M542.602 636.865V641.678" stroke="#263238" stroke-width="0.47303" stroke-miterlimit="10"/>
<path d="M633.822 637.258V641.867" stroke="#263238" stroke-width="0.47303" stroke-miterlimit="10"/>
<path d="M628.819 637.258V641.677" stroke="#263238" stroke-width="0.47303" stroke-miterlimit="10"/>
<path d="M616.502 637.068V642.643" stroke="#263238" stroke-width="0.47303" stroke-miterlimit="10"/>
<path d="M550.488 637.639V640.14" stroke="#263238" stroke-width="0.47303" stroke-miterlimit="10"/>
<path d="M552.418 643.418V638.986" stroke="#263238" stroke-width="0.47303" stroke-miterlimit="10"/>
<path d="M566.08 637.068V642.643" stroke="#263238" stroke-width="0.47303" stroke-miterlimit="10"/>
<path d="M590.129 637.639V641.486" stroke="#263238" stroke-width="0.47303" stroke-miterlimit="10"/>
<path d="M313.539 421.691H271.904V529.392H313.539V421.691Z" fill="#263238" stroke="#263238" stroke-width="0.47303" stroke-linecap="round" stroke-linejoin="round"/>
<path d="M410.789 438.72V437.45C410.789 433.267 409.128 429.256 406.17 426.299C403.213 423.341 399.202 421.68 395.019 421.68H271.853V421.832C275.648 422.323 279.134 424.179 281.661 427.053C284.187 429.927 285.58 433.623 285.579 437.45V464.877H285.858V625.5C285.858 627.99 286.349 630.455 287.301 632.755C288.254 635.055 289.65 637.145 291.411 638.905C293.171 640.666 295.261 642.062 297.561 643.015C299.861 643.968 302.326 644.458 304.816 644.458H410.764V438.758L410.789 438.72Z" fill="#DBDBDB" stroke="#263238" stroke-width="0.47303" stroke-linecap="round" stroke-linejoin="round"/>
<path d="M327.392 616.295V628.7C327.389 632.236 326.197 635.667 324.01 638.444C321.822 641.221 318.765 643.183 315.329 644.014V644.471H369.738V616.295H327.392Z" fill="#263238" stroke="#263238" stroke-width="0.47303" stroke-linecap="round" stroke-linejoin="round"/>
<path d="M335.874 601.273V628.7C335.869 632.523 334.476 636.215 331.954 639.088C329.431 641.961 325.951 643.819 322.16 644.318V644.458H431.359C433.43 644.458 435.481 644.05 437.394 643.257C439.308 642.465 441.046 641.303 442.51 639.839C443.975 638.374 445.137 636.636 445.929 634.722C446.722 632.809 447.13 630.758 447.13 628.687V601.273H335.874Z" fill="#DBDBDB" stroke="#263238" stroke-width="0.47303" stroke-linecap="round" stroke-linejoin="round"/>
<path d="M310.136 443.137H392.2" stroke="#263238" stroke-width="0.47303" stroke-miterlimit="10"/>
<path d="M310.136 458.096H392.2" stroke="#263238" stroke-width="0.47303" stroke-miterlimit="10"/>
<path d="M310.136 470.795H392.2" stroke="#263238" stroke-width="0.47303" stroke-miterlimit="10"/>
<path d="M310.136 559.207H392.2" stroke="#263238" stroke-width="0.47303" stroke-miterlimit="10"/>
<path d="M310.136 580.982H392.2" stroke="#263238" stroke-width="0.47303" stroke-miterlimit="10"/>
<path d="M310.136 483.947H359.11" stroke="#263238" stroke-width="0.47303" stroke-miterlimit="10"/>
<path d="M310.136 495.732H359.11" stroke="#263238" stroke-width="0.47303" stroke-miterlimit="10"/>
<path d="M310.136 507.516H359.11" stroke="#263238" stroke-width="0.47303" stroke-miterlimit="10"/>
<path d="M310.136 519.311H359.11" stroke="#263238" stroke-width="0.47303" stroke-miterlimit="10"/>
<path d="M310.136 531.094H359.11" stroke="#263238" stroke-width="0.47303" stroke-miterlimit="10"/>
<path d="M310.136 542.891H359.11" stroke="#263238" stroke-width="0.47303" stroke-miterlimit="10"/>
<path d="M194.766 625.77C194.766 625.77 200.404 633.528 202.867 634.582C205.331 635.635 209.915 636.347 211.324 639.521C212.107 641.062 212.589 642.739 212.746 644.46H177.841C177.841 644.46 176.431 639.876 177.841 637.058C178.709 635.278 179.305 633.377 179.605 631.42L194.766 625.77Z" fill="white" stroke="#263238" stroke-width="0.47303" stroke-linecap="round" stroke-linejoin="round"/>
<path d="M177.244 640.93H211.895C212.359 642.055 212.646 643.246 212.746 644.46H177.84C177.515 643.308 177.315 642.124 177.244 640.93Z" fill="white" stroke="#263238" stroke-width="0.47303" stroke-linecap="round" stroke-linejoin="round"/>
<path d="M157.397 633.526L156.699 644.801H139.773C139.378 642.687 139.5 640.509 140.129 638.452C141.183 635.278 142.249 632.459 142.249 632.459L157.397 633.526Z" fill="white" stroke="#263238" stroke-width="0.47303" stroke-linecap="round" stroke-linejoin="round"/>
<path d="M156.699 644.803H139.773C139.514 643.408 139.475 641.981 139.659 640.574H156.966L156.699 644.803Z" fill="white" stroke="#263238" stroke-width="0.47303" stroke-linecap="round" stroke-linejoin="round"/>
<path d="M208.505 461.473C208.505 461.473 205.686 498.13 204.988 511.171C204.29 524.211 194.766 625.741 194.766 625.741C194.766 625.741 181.015 634.21 179.25 634.21C177.485 634.21 175.441 511.882 175.441 511.882L157.398 633.524C155.457 634.146 153.441 634.501 151.404 634.578C148.585 634.578 142.249 632.47 142.249 632.47L148.205 485.827V461.473C148.205 461.473 183.758 466.412 193.319 465.003C198.483 464.317 203.568 463.135 208.505 461.473Z" fill="#263238" stroke="#263238" stroke-width="0.47303" stroke-linecap="round" stroke-linejoin="round"/>
<path d="M165.511 483.709L173.257 489.702L175.377 511.91" stroke="#808080" stroke-width="0.47303" stroke-linecap="round" stroke-linejoin="round"/>
<path d="M162.311 312.557C162.311 312.557 176.685 310.754 180.913 315.668C185.142 320.582 185.992 330.105 188.925 332.391C191.859 334.676 193.497 331.832 194.804 334.803C196.112 337.775 193.979 341.444 193.979 341.444C193.979 341.444 194.335 355.754 192.709 356.44C191.084 357.126 183.821 357.138 183.821 357.138L185.002 363.017L166.819 363.779L165.232 357.634C165.232 357.634 151.404 349.609 147.671 343.527C143.938 337.445 144.827 323.972 148.56 319.262C152.293 314.551 162.311 312.557 162.311 312.557Z" fill="white" stroke="#263238" stroke-width="0.47303" stroke-linecap="round" stroke-linejoin="round"/>
<path d="M193.979 341.446C193.979 341.446 185.548 338.792 185.091 340.049C184.634 341.306 186.094 357.356 186.094 357.356C186.094 357.356 192.049 358.041 192.709 356.441C193.37 354.842 194.639 352.873 193.979 341.446ZM192.201 354.918C191.719 356.188 187.453 355.654 187.453 355.654C187.453 355.654 186.373 342.728 186.729 341.687C187.084 340.646 193.078 342.817 193.078 342.817C193.598 352.048 192.646 353.635 192.201 354.918Z" fill="#263238"/>
<path d="M184.583 331.692C185.027 332.772 185.738 333.495 186.17 333.318C186.602 333.14 186.589 332.124 186.17 331.045C185.751 329.965 185.015 329.242 184.583 329.419C184.151 329.597 184.138 330.613 184.583 331.692Z" fill="#263238"/>
<path d="M192.532 343.756C191.775 344.14 190.9 344.222 190.085 343.987C189.269 343.751 188.574 343.215 188.138 342.486" stroke="#263238" stroke-width="0.47303" stroke-linecap="round" stroke-linejoin="round"/>
<path d="M184.431 326.691C184.431 326.691 182.589 325.687 182.374 328.747" stroke="#263238" stroke-width="0.47303" stroke-linecap="round" stroke-linejoin="round"/>
<path d="M148.56 319.262C152.293 314.564 162.311 312.557 162.311 312.557C162.311 312.557 176.685 310.754 180.913 315.668C180.913 315.668 172.965 313.662 173.993 317.052C175.022 320.443 183.262 325.623 180.431 327.629C177.599 329.636 174.412 328.112 175.733 331.083C177.053 334.054 178.704 336.962 177.32 337.229C175.936 337.495 172.063 334.334 170.412 335.019C168.762 335.705 166.883 340.759 168.47 343.323C169.537 344.895 171.178 345.984 173.041 346.358C173.041 346.358 170.209 353.761 167.721 355.691C166.642 356.544 165.283 356.961 163.911 356.859C160.394 354.713 150.668 348.479 147.633 343.527C143.938 337.445 144.827 323.972 148.56 319.262Z" fill="#263238" stroke="#263238" stroke-width="0.47303" stroke-linecap="round" stroke-linejoin="round"/>
<path d="M147.658 373.391C147.658 373.391 137.411 380.095 134.656 385.212C131.901 390.329 125.196 438.389 124.409 443.519C123.622 448.649 135.647 484.697 135.647 484.697C135.647 484.697 134.656 492.951 135.647 497.395C136.637 501.839 139.57 504.429 141.056 504.683C142.541 504.937 143.798 500.455 143.798 500.455C144.789 501.445 146.033 500.201 146.033 498.969C146.033 497.738 146.782 488.811 146.528 487.541C146.274 486.272 145.17 482.17 145.17 482.17L147.709 450.579L147.658 373.391Z" fill="white" stroke="#263238" stroke-width="0.47303" stroke-linecap="round" stroke-linejoin="round"/>
<path d="M125.349 439.05C129.498 440.739 133.912 441.684 138.389 441.844C144.916 441.844 146.77 440.917 146.77 440.917L147.087 432.537C147.087 432.537 132.18 432.537 130.58 431.914C128.98 431.292 126.225 430.365 126.225 430.365L125.349 439.05Z" fill="#F16C67" stroke="#263238" stroke-width="0.47303" stroke-linecap="round" stroke-linejoin="round"/>
<path d="M134.656 385.212C132.536 389.136 128.117 418.226 125.768 433.983C132.814 436.261 140.24 437.124 147.62 436.523V373.391C147.62 373.391 137.412 380.095 134.656 385.212Z" fill="#F16C67" stroke="#263238" stroke-width="0.47303" stroke-linecap="round" stroke-linejoin="round"/>
<path d="M141.322 415.89L132.422 410.404" stroke="#263238" stroke-width="0.47303" stroke-linecap="round" stroke-linejoin="round"/>
<path d="M135.824 419.039L142.097 418.252" stroke="#263238" stroke-width="0.47303" stroke-linecap="round" stroke-linejoin="round"/>
<path d="M143.29 488.559C143.022 489.778 142.42 490.9 141.551 491.796L140.281 492.787L139.545 497.269C139.545 497.269 140.04 499.999 140.281 501.485" stroke="#263238" stroke-width="0.47303" stroke-linecap="round" stroke-linejoin="round"/>
<path d="M143.799 500.494L143.545 494.031" stroke="#263238" stroke-width="0.47303" stroke-linecap="round" stroke-linejoin="round"/>
<path d="M143.049 430.886C142.567 413.465 138.745 398.824 138.453 395.967C138.123 392.603 137.259 384.045 143.608 376.591C146.837 373.446 150.528 370.812 154.553 368.782C156.801 368.109 158.528 367.792 158.528 367.792L157.398 367.436C159.364 366.592 161.388 365.888 163.454 365.328C168.749 363.919 182.843 363.208 187.072 367.093C187.072 367.093 199.287 370.903 205.293 375.27C208.317 379.048 210.21 383.604 210.753 388.412C211.387 395.409 212.632 429.235 213.089 442.009C213.191 444.904 213.419 447.761 213.775 450.63C214.575 456.979 215.603 478.768 215.603 478.768C215.603 478.768 202.233 483.39 180.723 482.692C159.213 481.993 146.097 476.47 146.097 476.47L142.935 474.794C142.935 474.794 142.935 454.135 142.935 450.668C142.973 443.901 143.126 431 143.049 430.886Z" fill="#F16C67" stroke="#263238" stroke-width="0.47303" stroke-linecap="round" stroke-linejoin="round"/>
<path d="M181.218 417.428C182.165 419.161 183.284 420.794 184.557 422.304L181.218 417.428Z" fill="#F16C67"/>
<path d="M181.218 417.428C182.165 419.161 183.284 420.794 184.557 422.304" stroke="#263238" stroke-width="0.47303" stroke-linecap="round" stroke-linejoin="round"/>
<path d="M171.39 389.809C173.308 398.086 176.004 406.163 179.44 413.934L171.39 389.809Z" fill="#F16C67"/>
<path d="M171.39 389.809C173.308 398.086 176.004 406.163 179.44 413.934" stroke="#263238" stroke-width="0.47303" stroke-linecap="round" stroke-linejoin="round"/>
<path d="M172.19 404.895C173.041 406.52 173.828 407.993 174.45 409.123L172.19 404.895Z" fill="#F16C67"/>
<path d="M172.19 404.895C173.041 406.52 173.828 407.993 174.45 409.123" stroke="#263238" stroke-width="0.47303" stroke-linecap="round" stroke-linejoin="round"/>
<path d="M164.635 390.115C164.635 390.115 167.327 395.499 170.082 400.857L164.635 390.115Z" fill="#F16C67"/>
<path d="M164.635 390.115C164.635 390.115 167.327 395.499 170.082 400.857" stroke="#263238" stroke-width="0.47303" stroke-linecap="round" stroke-linejoin="round"/>
<path d="M195.579 370.129C195.579 370.129 190.424 362.751 189.37 362.053C188.316 361.355 166.933 359.082 162.35 360.491C157.766 361.901 154.553 368.783 154.553 368.783C154.553 368.783 177.244 367.297 195.579 370.129Z" fill="white" stroke="#263238" stroke-width="0.47303" stroke-linecap="round" stroke-linejoin="round"/>
<path d="M200.099 407.954L220.58 426.073C220.58 426.073 231.602 433.946 235.944 432.422C239.754 431.025 273.859 400.92 281.782 393.898L284.868 392.146C284.868 392.146 289.274 392.146 290.556 391.333C291.839 390.52 293.756 388.984 293.756 388.984H294.823C295.889 388.984 296.537 387.486 296.969 385.987C297.4 384.489 298.67 380.223 298.238 379.156C297.807 378.089 292.245 374.445 292.245 374.445C292.245 374.445 293.744 372.312 294.391 371.461C295.039 370.611 297.159 368.249 296.931 366.116C296.702 363.982 294.391 362.903 292.436 365.265C290.48 367.627 280.894 374.877 279.611 377.442C278.71 379.232 277.402 382.127 276.678 383.702L237.874 405.199C237.874 405.199 215.412 378.813 213.051 377.264C210.689 375.715 193.141 370.407 193.141 370.407" fill="white"/>
<path d="M200.099 407.954L220.58 426.073C220.58 426.073 231.602 433.946 235.944 432.422C239.754 431.025 273.859 400.92 281.782 393.898L284.868 392.146C284.868 392.146 289.274 392.146 290.556 391.333C291.839 390.52 293.756 388.984 293.756 388.984H294.823C295.889 388.984 296.537 387.486 296.969 385.987C297.4 384.489 298.67 380.223 298.238 379.156C297.807 378.089 292.245 374.445 292.245 374.445C292.245 374.445 293.744 372.312 294.391 371.461C295.039 370.611 297.159 368.249 296.931 366.116C296.702 363.982 294.391 362.903 292.436 365.265C290.48 367.627 280.894 374.877 279.611 377.442C278.71 379.232 277.402 382.127 276.678 383.702L237.874 405.199C237.874 405.199 215.412 378.813 213.051 377.264C210.689 375.715 193.141 370.407 193.141 370.407" stroke="#263238" stroke-width="0.47303" stroke-linecap="round" stroke-linejoin="round"/>
<path d="M200.099 407.954L220.58 426.073C220.58 426.073 231.602 433.946 235.944 432.422C237.468 431.863 243.855 426.708 251.461 420.27C251.367 416.797 250.693 413.364 249.467 410.112C248.422 406.936 246.602 404.069 244.172 401.77L237.913 405.237C237.913 405.237 215.451 378.851 213.089 377.302C210.727 375.753 193.179 370.445 193.179 370.445" fill="#F16C67"/>
<path d="M200.099 407.954L220.58 426.073C220.58 426.073 231.602 433.946 235.945 432.422C237.468 431.863 243.855 426.708 251.461 420.27C251.367 416.797 250.693 413.364 249.467 410.112C248.422 406.936 246.602 404.069 244.172 401.77L237.913 405.237C237.913 405.237 215.451 378.851 213.089 377.302C210.727 375.753 193.179 370.445 193.179 370.445" stroke="#263238" stroke-width="0.47303" stroke-linecap="round" stroke-linejoin="round"/>
<path d="M240.363 402.557C240.363 402.557 241.531 400.983 244.909 405.186C248.287 409.388 249.988 419.229 249.988 420.626C249.988 422.022 252.235 421.464 253.632 419.788C255.029 418.112 259.524 417.54 260.095 413.045C260.667 408.55 258.686 402.379 256.159 398.456C253.632 394.532 253.912 394.52 251.385 395.078C248.858 395.637 241.163 400.526 240.363 402.557Z" fill="#F16C67" stroke="#263238" stroke-width="0.47303" stroke-linecap="round" stroke-linejoin="round"/>
<path d="M237.925 405.186C237.925 405.186 240.528 408.83 239.487 415.89L237.925 405.186Z" fill="#F16C67"/>
<path d="M237.925 405.186C237.925 405.186 240.528 408.83 239.487 415.89" stroke="#263238" stroke-width="0.47303" stroke-linecap="round" stroke-linejoin="round"/>
<path d="M242.166 412.232C242.166 412.232 243.207 414.848 241.112 420.613L242.166 412.232Z" fill="#F16C67"/>
<path d="M242.166 412.232C242.166 412.232 243.207 414.848 241.112 420.613" stroke="#263238" stroke-width="0.47303" stroke-linecap="round" stroke-linejoin="round"/>
<path d="M292.956 388.692C293.508 387.408 293.798 386.027 293.807 384.629L292.956 388.692Z" fill="white"/>
<path d="M292.956 388.692C293.508 387.408 293.798 386.027 293.807 384.629" stroke="#263238" stroke-width="0.47303" stroke-linecap="round" stroke-linejoin="round"/>
<path d="M57.7852 644.801H644.208" stroke="#263238" stroke-width="0.47303" stroke-miterlimit="10"/>
</g>
</g>
<defs>
<filter id="filter0_dd_2968_3753" x="0.0650814" y="0.314143" width="666.87" height="719.667" filterUnits="userSpaceOnUse" color-interpolation-filters="sRGB">
<feFlood flood-opacity="0" result="BackgroundImageFix"/>
<feColorMatrix in="SourceAlpha" type="matrix" values="0 0 0 0 0 0 0 0 0 0 0 0 0 0 0 0 0 0 127 0" result="hardAlpha"/>
<feOffset dy="0.812265"/>
<feGaussianBlur stdDeviation="1.2184"/>
<feColorMatrix type="matrix" values="0 0 0 0 0 0 0 0 0 0 0 0 0 0 0 0 0 0 0.3 0"/>
<feBlend mode="normal" in2="BackgroundImageFix" result="effect1_dropShadow_2968_3753"/>
<feColorMatrix in="SourceAlpha" type="matrix" values="0 0 0 0 0 0 0 0 0 0 0 0 0 0 0 0 0 0 127 0" result="hardAlpha"/>
<feMorphology radius="2.4368" operator="dilate" in="SourceAlpha" result="effect2_dropShadow_2968_3753"/>
<feOffset dy="3.24906"/>
<feGaussianBlur stdDeviation="3.24906"/>
<feColorMatrix type="matrix" values="0 0 0 0 0 0 0 0 0 0 0 0 0 0 0 0 0 0 0.15 0"/>
<feBlend mode="normal" in2="effect1_dropShadow_2968_3753" result="effect2_dropShadow_2968_3753"/>
<feBlend mode="normal" in="SourceGraphic" in2="effect2_dropShadow_2968_3753" result="shape"/>
</filter>
<clipPath id="clip0_2968_3753">
<rect x="9" y="6" width="649" height="701.797" rx="9.74718" fill="white"/>
</clipPath>
</defs>
</svg>
