<svg width="55" height="55" viewBox="0 0 55 55" fill="none" xmlns="http://www.w3.org/2000/svg">
<circle cx="27.1057" cy="27.1057" r="26.6057" fill="#F8F8FF" stroke="#E9231B"/>
<path d="M26.655 39V37.5H37.5V26.331C37.5 23.521 36.467 21.1745 34.401 19.2915C32.334 17.4075 29.867 16.4655 27 16.4655C24.133 16.4655 21.666 17.4075 19.599 19.2915C17.532 21.1755 16.499 23.522 16.5 26.331V34.875H13.5V27.816H15L15.0255 25.98C15.0715 24.41 15.426 22.9575 16.089 21.6225C16.752 20.2875 17.624 19.126 18.705 18.138C19.786 17.15 21.0435 16.38 22.4775 15.828C23.9115 15.276 25.419 15 27 15C28.581 15 30.0875 15.276 31.5195 15.828C32.9475 16.38 34.204 17.149 35.289 18.135C36.374 19.12 37.246 20.28 37.905 21.615C38.565 22.949 38.921 24.3965 38.973 25.9575L38.9985 27.8175H40.4985V34.875H38.9985V39H26.655ZM23.0775 29.3085C22.7675 29.3085 22.4975 29.2035 22.2675 28.9935C22.0375 28.7835 21.9225 28.5235 21.9225 28.2135C21.9225 27.9035 22.0375 27.638 22.2675 27.417C22.4975 27.196 22.7675 27.086 23.0775 27.087C23.3875 27.087 23.657 27.1945 23.886 27.4095C24.116 27.6255 24.231 27.893 24.231 28.212C24.231 28.522 24.116 28.782 23.886 28.992C23.656 29.202 23.386 29.307 23.076 29.307M30.924 29.307C30.614 29.307 30.344 29.202 30.114 28.992C29.884 28.782 29.769 28.522 29.769 28.212C29.769 27.902 29.884 27.637 30.114 27.417C30.344 27.197 30.614 27.087 30.924 27.087C31.234 27.087 31.5035 27.1945 31.7325 27.4095C31.9615 27.6245 32.0765 27.892 32.0775 28.212C32.0775 28.522 31.9625 28.782 31.7325 28.992C31.5025 29.202 31.2325 29.307 30.9225 29.307M19.077 26.925C18.941 24.679 19.6645 22.7645 21.2475 21.1815C22.8295 19.5985 24.773 18.807 27.078 18.807C29.013 18.807 30.728 19.3885 32.223 20.5515C33.718 21.7145 34.6315 23.242 34.9635 25.134C32.9765 25.109 31.1325 24.602 29.4315 23.613C27.7305 22.624 26.4255 21.249 25.5165 19.488C25.1545 21.219 24.402 22.736 23.259 24.039C22.115 25.342 20.721 26.304 19.077 26.925Z" fill="#EE544E"/>
</svg>
