<svg width="572" height="348" viewBox="0 0 572 348" fill="none" xmlns="http://www.w3.org/2000/svg">
<path d="M181.631 21.3086H67.3981V210.401H181.631V21.3086Z" fill="#E0E0E0"/>
<path d="M177.833 21.3086H63.5996V210.401H177.833V21.3086Z" fill="#EBEBEB"/>
<path d="M172.967 25.1484H68.4656V206.569H172.967V25.1484Z" fill="white"/>
<path d="M152.618 48.7168H88.3595V182.985H152.618V48.7168Z" fill="#EBEBEB"/>
<path d="M88.3595 135.476C88.2105 122.93 99.4899 110.691 111.911 108.937C117.836 108.109 124.126 109.276 129.662 107.009C139.543 102.962 142.679 89.8371 152.626 85.9395L153.081 182.993H88.3595V135.476Z" fill="#E0E0E0"/>
<path d="M535.171 28.0117V133.87H383.128L377.65 28.7482L535.171 28.0117Z" fill="#E0E0E0"/>
<path d="M377.65 28.7558V133.654H529.693V28.7558L377.65 28.7558Z" fill="#F5F5F5"/>
<path d="M513.233 41.7812H394.118V120.612H513.233V41.7812Z" fill="white"/>
<path d="M513.225 41.7827H512.637H510.982L504.436 41.824L479.892 41.9151L394.151 42.0888L394.49 41.7413C394.49 65.8309 394.49 92.5189 394.49 120.564L394.118 120.183L513.225 120.258L512.927 120.564C512.993 96.5655 513.043 76.9033 513.084 63.1993C513.084 56.3556 513.142 51.0097 513.159 47.3437C513.159 45.5314 513.159 44.1411 513.159 43.206C513.159 42.2709 513.159 41.7578 513.159 41.7578C513.159 41.7578 513.159 42.2212 513.159 43.1398C513.159 44.0584 513.159 45.4652 513.159 47.2775C513.159 50.9352 513.2 56.2563 513.233 63.0752C513.233 76.8205 513.324 96.549 513.39 120.622V120.92H513.092L393.985 120.994H393.604V120.605C393.604 92.5603 393.604 65.8722 393.604 41.7827V41.4434H393.952L479.917 41.6089L504.387 41.6999H510.858H512.513L513.225 41.7827Z" fill="#E0E0E0"/>
<path d="M377.65 28.459C378.584 28.9051 379.462 29.4607 380.265 30.1141C381.812 31.2395 383.939 32.8366 386.223 34.6655C388.507 36.4944 390.518 38.2239 391.941 39.5231C392.756 40.1724 393.487 40.9201 394.118 41.7492C393.977 41.9147 390.319 38.8942 385.751 35.2531C381.183 31.6119 377.517 28.6162 377.65 28.459Z" fill="#E0E0E0"/>
<path d="M529.693 28.7487C529.825 28.9142 526.242 31.9678 521.691 35.5593C517.139 39.1508 513.357 41.9479 513.225 41.7824C513.093 41.6169 516.676 38.5716 521.227 34.9718C525.779 31.372 529.569 28.6163 529.693 28.7487Z" fill="#E0E0E0"/>
<path d="M529.577 133.663L512.621 119.926L529.577 133.663Z" fill="white"/>
<path d="M512.621 119.927C512.753 119.761 516.651 122.707 521.335 126.505C526.019 130.304 529.701 133.506 529.61 133.664C529.519 133.821 525.572 130.883 520.896 127.085C516.221 123.286 512.488 120.084 512.621 119.927Z" fill="#E0E0E0"/>
<path d="M377.65 133.646C377.517 133.488 381.059 130.468 385.561 126.91C390.063 123.351 393.836 120.595 393.944 120.761C394.051 120.926 390.534 123.939 386.033 127.497C381.531 131.056 377.774 133.811 377.65 133.646Z" fill="#E0E0E0"/>
<path d="M418.298 66.3438V92.7422H493.248V66.3438H418.298Z" fill="#E0E0E0"/>
<path d="M328.031 29.0371H243.672V116.971H328.031V29.0371Z" fill="#E0E0E0"/>
<path d="M322.321 29.0371H237.962V116.971H322.321V29.0371Z" fill="#FAFAFA"/>
<path d="M322.345 117.006H237.937V29.0137H322.345V117.006ZM238.003 116.948H322.288V29.0716H238.003V116.948Z" fill="#E0E0E0"/>
<path d="M310.975 40.8633H249.299V105.155H310.975V40.8633Z" fill="white"/>
<path d="M249.299 105.576C248.861 106.223 248.35 106.817 247.776 107.347C246.791 108.382 245.409 109.788 243.854 111.319C242.298 112.85 240.875 114.207 239.824 115.176C239.293 115.74 238.695 116.237 238.044 116.657C238.478 116.012 238.987 115.42 239.559 114.894C240.543 113.86 241.934 112.412 243.49 110.914C245.045 109.416 246.469 108.017 247.52 107.049C248.054 106.491 248.651 105.997 249.299 105.576Z" fill="#E0E0E0"/>
<path d="M310.975 105.428C311.622 105.865 312.216 106.376 312.746 106.95C313.789 107.935 315.229 109.317 316.718 110.865C318.208 112.412 319.606 113.844 320.575 114.895C321.14 115.429 321.64 116.029 322.064 116.682C321.418 116.25 320.826 115.742 320.301 115.168C319.259 114.183 317.819 112.793 316.313 111.237C314.807 109.681 313.416 108.25 312.456 107.199C311.894 106.669 311.397 106.075 310.975 105.428Z" fill="#E0E0E0"/>
<path d="M310.826 41.0284C311.261 40.3796 311.772 39.7851 312.349 39.2575C313.333 38.2148 314.715 36.7749 316.263 35.2771C317.81 33.7792 319.242 32.389 320.293 31.4207C320.826 30.8559 321.427 30.3584 322.081 29.9395C321.644 30.582 321.135 31.1733 320.566 31.7021C319.581 32.7365 318.191 34.1847 316.635 35.6826C315.08 37.1804 313.648 38.5789 312.597 39.5471C312.068 40.1097 311.473 40.607 310.826 41.0284Z" fill="#E0E0E0"/>
<path d="M249.125 41.1939C248.482 40.7545 247.891 40.2437 247.362 39.6713C246.32 38.6865 244.88 37.2963 243.382 35.7488C241.884 34.2013 240.486 32.7531 239.526 31.7187C238.961 31.1879 238.464 30.5904 238.044 29.9395C238.689 30.3735 239.281 30.8818 239.807 31.4538C240.841 32.4386 242.29 33.8206 243.787 35.3764C245.285 36.9321 246.684 38.3638 247.652 39.4147C248.215 39.9439 248.71 40.5416 249.125 41.1939Z" fill="#E0E0E0"/>
<path d="M310.826 105.154C310.819 105.05 310.819 104.945 310.826 104.84C310.826 104.625 310.826 104.327 310.826 103.946C310.826 103.119 310.826 101.977 310.826 100.479C310.826 97.4334 310.826 93.0309 310.768 87.3705C310.768 76.1078 310.694 60.0618 310.644 40.863L310.884 41.103H249.382L249.655 40.8299C249.655 64.4312 249.655 86.5016 249.613 105.121L249.382 104.889L293.92 105.005L306.424 105.072H309.734H310.561H310.826H310.553H309.725H306.457L294.002 105.129L249.315 105.254H249.084V105.014C249.084 86.394 249.084 64.3236 249.042 40.7223V40.4492H249.324H310.826H311.066V40.6892C311.016 59.9625 310.975 76.0498 310.95 87.354C310.95 92.9564 310.901 97.3672 310.884 100.396C310.884 101.886 310.884 103.028 310.884 103.822C310.884 104.194 310.884 104.484 310.884 104.699C310.884 104.914 310.826 105.163 310.826 105.154Z" fill="#E0E0E0"/>
<path d="M290.427 62.7188H269.846V83.2996H290.427V62.7188Z" fill="#EBEBEB"/>
<path d="M571.5 347.557C571.5 347.673 443.662 347.772 286 347.772C128.338 347.772 0.5 347.673 0.5 347.557C0.5 347.441 128.305 347.342 286 347.342C443.695 347.342 571.5 347.441 571.5 347.557Z" fill="#263238"/>
<path d="M335.569 116.435L346.725 113.953C350.894 117.323 355.881 119.529 361.179 120.348C366.477 121.168 371.897 120.57 376.89 118.617C381.882 116.664 386.269 113.424 389.604 109.227C392.939 105.03 395.105 100.025 395.88 94.7208C396.936 86.7615 394.787 78.7088 389.905 72.3342C385.023 65.9597 377.809 61.7854 369.85 60.7297C361.891 59.6741 353.838 61.8234 347.464 66.705C341.089 71.5866 336.915 78.8006 335.859 86.7599C334.952 93.3539 336.3 100.061 339.682 105.793L335.569 116.435Z" fill="white"/>
<path d="M335.569 116.436L335.859 115.733C336.049 115.245 336.322 114.566 336.687 113.689C337.398 111.885 338.441 109.253 339.798 105.844L339.583 105.885C339.608 105.908 339.64 105.921 339.674 105.921C339.708 105.921 339.74 105.908 339.765 105.885C339.781 105.862 339.789 105.834 339.789 105.806C339.789 105.778 339.781 105.751 339.765 105.728C336.751 100.55 335.384 94.5783 335.845 88.6051C336.306 82.632 338.574 76.9406 342.347 72.2871C344.969 69.0622 348.224 66.4097 351.912 64.4937C355.6 62.5778 359.642 61.4392 363.788 61.1485C368.351 60.871 372.918 61.6087 377.161 63.3083C379.351 64.1826 381.432 65.3102 383.36 66.6681C383.848 66.9992 384.295 67.3964 384.766 67.7605C385.244 68.1197 385.7 68.5065 386.132 68.919C387.015 69.7274 387.844 70.5926 388.614 71.5092C389.003 71.9727 389.442 72.4195 389.773 72.8912L390.807 74.3725L391.321 75.109L391.759 75.8869L392.636 77.4344C392.909 77.964 393.125 78.5102 393.365 79.0895C393.621 79.627 393.845 80.1797 394.035 80.7445C394.44 81.8244 394.771 82.9303 395.028 84.0547C396.066 88.4724 396.083 93.0686 395.078 97.4939C394.116 101.676 392.24 105.593 389.583 108.964C384.822 115.041 377.918 119.07 370.285 120.226C367.061 120.701 363.783 120.667 360.569 120.127C355.525 119.259 350.783 117.13 346.783 113.937C346.766 113.929 346.747 113.926 346.729 113.926C346.71 113.926 346.692 113.929 346.675 113.937L338.4 115.816L336.256 116.312L335.511 116.494L336.207 116.362L338.325 115.923L346.691 114.177H346.584C350.595 117.449 355.374 119.642 360.47 120.549C363.722 121.112 367.043 121.159 370.309 120.69C378.073 119.557 385.105 115.486 389.955 109.319C392.665 105.897 394.579 101.914 395.558 97.6594C396.604 93.1597 396.604 88.4799 395.558 83.9802C395.292 82.8239 394.955 81.6852 394.548 80.5707C394.353 80.0067 394.127 79.4541 393.869 78.9157C393.621 78.3695 393.398 77.8068 393.116 77.2606L392.231 75.68L391.784 74.8525L391.263 74.0994L390.27 72.5602C389.897 72.0802 389.442 71.6251 389.086 71.1534C388.292 70.2215 387.441 69.3399 386.537 68.5135C386.094 68.0951 385.627 67.7027 385.139 67.3384C384.659 66.9661 384.204 66.5606 383.707 66.2213C381.742 64.8407 379.623 63.6938 377.393 62.8035C373.076 61.0765 368.429 60.333 363.788 60.6271C359.412 60.9445 355.154 62.1944 351.301 64.2931C347.733 66.2235 344.587 68.8487 342.049 72.014C337.663 77.4701 335.321 84.2875 335.429 91.2873C335.517 96.4274 336.943 101.456 339.566 105.877L339.765 105.72C339.754 105.707 339.741 105.697 339.726 105.691C339.711 105.684 339.695 105.68 339.678 105.68C339.662 105.68 339.645 105.684 339.63 105.691C339.615 105.697 339.602 105.707 339.591 105.72C339.588 105.733 339.588 105.747 339.591 105.761C338.284 109.237 337.282 111.918 336.596 113.755C336.273 114.632 336.025 115.302 335.842 115.774C335.66 116.246 335.569 116.436 335.569 116.436Z" fill="#263238"/>
<path d="M357.069 90.6833C357.072 91.4327 356.853 92.1661 356.438 92.7906C356.024 93.415 355.434 93.9023 354.742 94.1906C354.05 94.4789 353.288 94.5552 352.553 94.4098C351.818 94.2644 351.143 93.9039 350.613 93.374C350.083 92.8441 349.722 92.1687 349.577 91.4336C349.432 90.6984 349.508 89.9366 349.796 89.2449C350.084 88.5532 350.572 87.9627 351.196 87.5485C351.821 87.1342 352.554 86.9147 353.303 86.918C354.302 86.918 355.26 87.3147 355.966 88.0208C356.672 88.727 357.069 89.6847 357.069 90.6833Z" fill="#263238"/>
<path d="M369.68 90.7649C369.687 91.517 369.47 92.2539 369.056 92.8821C368.643 93.5103 368.051 94.0012 367.358 94.2924C366.665 94.5836 365.9 94.6619 365.162 94.5174C364.424 94.3729 363.746 94.0121 363.213 93.4809C362.681 92.9497 362.319 92.2721 362.173 91.5344C362.026 90.7966 362.103 90.0321 362.393 89.338C362.682 88.644 363.172 88.0518 363.799 87.6369C364.427 87.2219 365.163 87.003 365.915 87.0079C366.912 87.0079 367.869 87.4035 368.575 88.1078C369.281 88.8121 369.678 89.7677 369.68 90.7649Z" fill="#263238"/>
<path d="M382.284 90.8396C382.287 91.5893 382.067 92.3231 381.653 92.9477C381.238 93.5724 380.647 94.0596 379.955 94.3477C379.263 94.6357 378.501 94.7115 377.765 94.5654C377.03 94.4194 376.355 94.058 375.825 93.5273C375.295 92.9966 374.936 92.3204 374.791 91.5847C374.647 90.849 374.724 90.087 375.014 89.3954C375.303 88.7039 375.792 88.114 376.417 87.7007C377.043 87.2874 377.777 87.0694 378.527 87.0743C379.524 87.0765 380.48 87.4742 381.184 88.1801C381.888 88.8859 382.284 89.8424 382.284 90.8396Z" fill="#263238"/>
<path d="M139.526 124.751L151.227 122.194C156.631 126.562 163.33 129.014 170.275 129.168C177.221 129.321 184.022 127.167 189.613 123.043C195.204 118.918 199.269 113.056 201.173 106.375C203.076 99.6929 202.71 92.5685 200.132 86.117C197.554 79.6654 192.91 74.2508 186.926 70.7209C180.942 67.1909 173.956 65.7449 167.063 66.6092C160.169 67.4736 153.757 70.5994 148.829 75.4974C143.902 80.3954 140.738 86.789 139.832 93.6773C138.89 100.584 140.301 107.606 143.838 113.613L139.526 124.751Z" fill="white"/>
<path d="M139.526 124.752L139.832 124.016C140.031 123.511 140.312 122.799 140.66 121.872L143.97 113.647L143.747 113.688C143.773 113.712 143.806 113.725 143.842 113.725C143.877 113.725 143.911 113.712 143.937 113.688C143.955 113.666 143.965 113.638 143.965 113.609C143.965 113.581 143.955 113.553 143.937 113.531C140.779 108.098 139.347 101.834 139.832 95.5684C140.316 89.3031 142.695 83.3334 146.651 78.4514C149.393 75.068 152.801 72.2837 156.662 70.2709C160.524 68.2582 164.758 67.0598 169.102 66.75C173.902 66.4541 178.707 67.2286 183.17 69.0175C185.466 69.9339 187.647 71.1171 189.667 72.5428C190.18 72.8903 190.643 73.3041 191.14 73.6931C191.645 74.0826 192.123 74.5056 192.571 74.9592C193.506 75.804 194.382 76.7108 195.194 77.6735C195.6 78.1617 196.022 78.6252 196.419 79.13L197.495 80.6775L198.033 81.4471L198.496 82.2746L199.415 83.9297C199.696 84.4841 199.928 85.0634 200.185 85.5847C200.451 86.139 200.686 86.7082 200.888 87.2895C201.307 88.4366 201.655 89.6084 201.931 90.7982C202.998 95.4268 202.998 100.238 201.931 104.866C200.925 109.252 198.961 113.362 196.179 116.899C191.184 123.268 183.942 127.487 175.938 128.691C172.558 129.195 169.12 129.161 165.751 128.592C160.472 127.688 155.508 125.465 151.319 122.129C151.3 122.121 151.281 122.116 151.261 122.116C151.241 122.116 151.221 122.121 151.203 122.129L142.563 124.107L140.354 124.611L139.576 124.793C139.576 124.793 139.808 124.793 140.304 124.653L142.53 124.198L151.302 122.369H151.194C155.402 125.797 160.415 128.095 165.759 129.047C169.17 129.638 172.652 129.688 176.078 129.196C184.209 127.973 191.562 123.682 196.626 117.205C199.469 113.614 201.478 109.436 202.51 104.974C203.606 100.256 203.606 95.3503 202.51 90.6327C202.237 89.4197 201.886 88.2256 201.459 87.0578C201.252 86.4627 201.011 85.8798 200.739 85.3117C200.474 84.7407 200.251 84.1531 199.961 83.5904L199.026 81.9353L198.554 81.1078L198.008 80.2802L196.907 78.7079C196.51 78.1948 196.08 77.7231 195.666 77.2266C194.833 76.2486 193.94 75.3228 192.993 74.4544C192.528 74.0192 192.039 73.6103 191.529 73.2296C191.024 72.8407 190.544 72.4021 190.022 72.0545C187.963 70.606 185.741 69.4034 183.402 68.4713C178.87 66.6577 173.991 65.8775 169.119 66.1873C164.701 66.5063 160.397 67.7311 156.473 69.7855C152.55 71.8399 149.091 74.6798 146.312 78.1286C141.722 83.8565 139.276 91.0065 139.394 98.3454C139.499 103.737 141.002 109.009 143.755 113.647L143.97 113.481C143.944 113.457 143.91 113.444 143.875 113.444C143.84 113.444 143.806 113.457 143.78 113.481C142.414 117.13 141.355 119.944 140.635 121.864C140.296 122.782 140.031 123.519 139.849 123.991C139.667 124.462 139.526 124.752 139.526 124.752Z" fill="#263238"/>
<path d="M183.708 93.2722C183.745 91.0409 183.18 88.8408 182.073 86.9036C180.965 84.9663 179.355 83.3636 177.413 82.2639C175.472 81.1643 173.269 80.6085 171.038 80.655C168.807 80.7016 166.63 81.3487 164.735 82.5284C162.841 83.708 161.3 85.3765 160.274 87.3583C159.248 89.34 158.775 91.5617 158.905 93.7895C159.035 96.0173 159.764 98.1688 161.013 100.018C162.263 101.866 163.988 103.344 166.007 104.295C166.007 105.751 166.007 107.39 166.007 107.39L176.881 107.44C176.881 107.44 176.956 105.702 176.98 104.129C178.991 103.112 180.683 101.561 181.869 99.6458C183.056 97.7305 183.692 95.5253 183.708 93.2722Z" fill="#FF725E"/>
<path d="M172.892 107.374C172.892 107.374 172.892 107.325 172.892 107.217C172.892 107.109 172.892 106.969 172.95 106.778C173 106.389 173.066 105.818 173.182 105.123C173.298 104.428 173.447 103.468 173.687 102.459C173.953 101.287 174.336 100.145 174.829 99.0492C175.114 98.4054 175.461 97.7902 175.863 97.2121C176.074 96.8998 176.358 96.6441 176.691 96.4673C176.877 96.38 177.082 96.3382 177.287 96.3453C177.493 96.3525 177.694 96.4085 177.874 96.5087C178.059 96.6182 178.198 96.792 178.263 96.9969C178.328 97.206 178.307 97.4321 178.205 97.6259C177.999 98.0117 177.657 98.3068 177.245 98.4534C176.814 98.5931 176.36 98.6458 175.909 98.6084C175.458 98.571 175.018 98.4443 174.616 98.2356C174.214 98.027 173.858 97.7405 173.568 97.3929C173.277 97.0453 173.059 96.6435 172.925 96.2108C172.771 95.7517 172.748 95.2588 172.859 94.7874C172.925 94.5407 173.074 94.3239 173.28 94.1734C173.486 94.0228 173.738 93.9474 173.993 93.9599C174.125 93.9768 174.252 94.0256 174.361 94.1019C174.471 94.1783 174.56 94.2801 174.622 94.3985C174.742 94.6303 174.774 94.8977 174.713 95.1515C174.561 95.6417 174.253 96.0688 173.836 96.368C173.439 96.6994 172.976 96.9442 172.479 97.0867C171.982 97.2292 171.46 97.2663 170.948 97.1955C170.435 97.1137 169.95 96.9092 169.534 96.5994C169.117 96.2896 168.782 95.8837 168.556 95.4163C168.44 95.1871 168.374 94.936 168.361 94.6795C168.348 94.4229 168.389 94.1665 168.482 93.9268C168.529 93.8031 168.602 93.691 168.696 93.5981C168.79 93.5053 168.903 93.4339 169.028 93.3889C169.152 93.3462 169.284 93.33 169.415 93.3414C169.547 93.3528 169.674 93.3916 169.789 93.4551C170.012 93.5827 170.193 93.7724 170.31 94.0012C170.415 94.2221 170.477 94.4608 170.493 94.7047C170.536 95.4072 170.375 96.1074 170.028 96.72C169.682 97.3326 169.164 97.8313 168.54 98.1555C167.751 98.5681 166.843 98.6883 165.974 98.4948C165.548 98.4256 165.156 98.2193 164.857 97.9072C164.712 97.747 164.627 97.5416 164.617 97.3259C164.606 97.1102 164.671 96.8974 164.799 96.7238C164.868 96.644 164.953 96.5793 165.049 96.5337C165.144 96.4881 165.248 96.4627 165.354 96.459C165.559 96.4428 165.765 96.4828 165.949 96.5749C166.281 96.7644 166.545 97.0541 166.702 97.4024C167.009 98.0644 167.257 98.7182 167.53 99.3389C168.515 101.821 169.185 103.857 169.673 105.272C169.905 105.976 170.07 106.53 170.186 106.927L170.319 107.358C170.319 107.449 170.319 107.498 170.319 107.498L170.269 107.358L170.128 106.936C169.996 106.563 169.814 106.009 169.582 105.281C169.102 103.874 168.391 101.838 167.398 99.3637C167.149 98.7513 166.893 98.0976 166.57 97.4438C166.428 97.112 166.181 96.836 165.867 96.6576C165.709 96.565 165.526 96.527 165.345 96.5495C165.164 96.5719 164.995 96.6536 164.865 96.7818C164.761 96.9344 164.711 97.1176 164.723 97.3021C164.735 97.4866 164.808 97.6618 164.931 97.7996C165.213 98.0873 165.578 98.2785 165.974 98.3458C166.815 98.5282 167.693 98.4111 168.457 98.0148C169.236 97.585 169.826 96.8796 170.112 96.037C170.264 95.6074 170.326 95.151 170.294 94.6964C170.295 94.4693 170.238 94.2458 170.128 94.0473C170.018 93.8487 169.858 93.6818 169.665 93.5627C169.57 93.5068 169.463 93.4727 169.353 93.4627C169.243 93.4526 169.132 93.467 169.028 93.5047C168.924 93.5454 168.829 93.6067 168.75 93.6849C168.67 93.7632 168.607 93.8567 168.564 93.9599C168.482 94.1804 168.447 94.4154 168.459 94.6503C168.472 94.8853 168.533 95.115 168.639 95.3253C168.857 95.7697 169.178 96.1556 169.575 96.4507C169.972 96.7458 170.434 96.9416 170.923 97.0218C171.417 97.0841 171.919 97.0427 172.396 96.9002C172.874 96.7577 173.316 96.5173 173.695 96.1942C174.083 95.9125 174.373 95.5159 174.523 95.0605C174.57 94.8395 174.541 94.6089 174.44 94.4067C174.391 94.3093 174.318 94.2258 174.229 94.1636C174.139 94.1015 174.035 94.0627 173.927 94.0509C173.703 94.0343 173.482 94.1022 173.306 94.2412C173.137 94.3849 173.013 94.5747 172.95 94.7874C172.849 95.2319 172.872 95.6957 173.017 96.128C173.281 96.9616 173.865 97.6567 174.64 98.0613C175.415 98.466 176.319 98.5475 177.154 98.2879C177.535 98.1601 177.854 97.8944 178.048 97.5431C178.132 97.3787 178.15 97.1882 178.097 97.0111C178.045 96.8339 177.927 96.6837 177.767 96.5914C177.606 96.5014 177.426 96.4507 177.242 96.4435C177.058 96.4363 176.875 96.4728 176.707 96.5501C176.375 96.7131 176.091 96.9581 175.88 97.2617C175.487 97.8325 175.143 98.4361 174.854 99.0658C174.36 100.154 173.972 101.288 173.695 102.45C173.447 103.477 173.29 104.37 173.165 105.107C173.041 105.843 172.967 106.406 172.901 106.762C172.901 106.952 172.851 107.101 172.834 107.209L172.892 107.374Z" fill="#263238"/>
<path d="M175.938 109.426L166.611 109.384C166.426 109.384 166.249 109.311 166.117 109.181C165.985 109.051 165.91 108.874 165.908 108.689C165.912 108.505 165.988 108.329 166.119 108.2C166.25 108.07 166.427 107.996 166.611 107.994L175.946 108.044C176.038 108.043 176.128 108.06 176.213 108.094C176.298 108.129 176.375 108.18 176.44 108.245C176.505 108.31 176.556 108.387 176.59 108.472C176.625 108.556 176.642 108.647 176.641 108.739C176.641 108.831 176.623 108.921 176.587 109.006C176.552 109.09 176.5 109.167 176.434 109.231C176.369 109.295 176.291 109.345 176.206 109.378C176.12 109.412 176.029 109.428 175.938 109.426Z" fill="#263238"/>
<path d="M175.938 110.029H166.603C166.419 110.029 166.242 110.103 166.112 110.233C165.981 110.363 165.908 110.54 165.908 110.724C165.908 110.909 165.981 111.086 166.112 111.216C166.242 111.346 166.419 111.42 166.603 111.42H167.662L169.011 113.985C169.09 114.135 169.209 114.26 169.355 114.345C169.502 114.43 169.67 114.472 169.839 114.465H173.149C173.318 114.471 173.485 114.429 173.632 114.344C173.778 114.259 173.897 114.134 173.976 113.985L175.309 111.444H175.938C176.122 111.444 176.299 111.371 176.429 111.241C176.56 111.11 176.633 110.934 176.633 110.749C176.633 110.565 176.56 110.388 176.429 110.258C176.299 110.127 176.122 110.054 175.938 110.054V110.029Z" fill="#263238"/>
<g opacity="0.2">
<path d="M161.183 88.2913C160.66 89.406 160.359 90.6118 160.297 91.8414C160.241 92.8296 160.353 93.8201 160.628 94.7709C160.81 95.4111 161.089 96.0196 161.456 96.5749C161.721 96.9639 161.928 97.1377 162.019 97.088C162.11 97.0383 161.878 96.0619 161.712 94.564C161.46 92.638 161.769 90.68 162.603 88.9256C163.437 87.1712 164.76 85.6951 166.413 84.675C167.679 83.8474 168.622 83.5164 168.573 83.293C168.573 83.1937 168.283 83.1523 167.811 83.1937C167.15 83.2793 166.506 83.4634 165.9 83.7398C163.85 84.6558 162.19 86.2683 161.216 88.2913H161.183Z" fill="white"/>
</g>
<g opacity="0.2">
<path d="M173.091 83.2353C173.091 83.0367 172.983 82.8132 172.702 82.6395C172.34 82.4516 171.939 82.3535 171.531 82.3535C171.123 82.3535 170.722 82.4516 170.36 82.6395C170.07 82.8132 169.93 83.0284 169.963 83.2353C170.037 83.6491 170.732 83.8642 171.519 83.8725C171.519 83.8394 172.743 83.707 173.091 83.2353Z" fill="white"/>
</g>
<path d="M173.761 114.176C173.545 114.122 173.332 114.056 173.124 113.977C172.607 113.835 172.072 113.768 171.535 113.778C171.002 113.79 170.475 113.885 169.971 114.06C169.764 114.149 169.551 114.224 169.334 114.283C169.514 114.144 169.715 114.035 169.93 113.96C170.44 113.753 170.984 113.641 171.535 113.629C172.097 113.611 172.658 113.695 173.19 113.878C173.393 113.951 173.585 114.051 173.761 114.176Z" fill="#455A64"/>
<path d="M175.284 111.446C175.284 111.446 173.629 111.512 171.519 111.504C169.408 111.496 167.753 111.454 167.753 111.413C167.753 111.372 169.408 111.347 171.519 111.355C173.629 111.363 175.284 111.372 175.284 111.446Z" fill="#455A64"/>
<path d="M174.696 112.537C174.394 112.598 174.086 112.628 173.778 112.628C173.207 112.628 172.421 112.686 171.552 112.694C170.683 112.703 169.897 112.694 169.326 112.694C169.018 112.699 168.71 112.674 168.407 112.62C168.713 112.601 169.02 112.601 169.326 112.62H171.552H173.778C174.082 112.575 174.389 112.547 174.696 112.537Z" fill="#455A64"/>
<path d="M296.758 75.6616C296.041 74.3159 294.927 73.223 293.569 72.5304C292.21 71.8378 290.672 71.5789 289.161 71.7887C287.381 70.4211 285.199 69.6797 282.955 69.6797C280.71 69.6797 278.528 70.4211 276.748 71.7887C275.418 70.9945 273.909 70.5466 272.361 70.4859C270.813 70.4252 269.274 70.7536 267.885 71.4411C266.518 72.1522 265.356 73.2003 264.507 74.4862C263.659 75.7721 263.152 77.2533 263.036 78.7897C261.488 78.538 259.901 78.7625 258.483 79.4334C257.066 80.1044 255.886 81.1901 255.1 82.5467C254.382 83.9222 254.103 85.4851 254.301 87.0242C254.499 88.5633 255.165 90.0045 256.209 91.1531C254.54 91.7069 253.123 92.8377 252.213 94.3423C251.303 95.847 250.959 97.6269 251.244 99.3622C251.644 101.084 252.644 102.607 254.065 103.659C255.485 104.711 257.234 105.224 258.998 105.105L295.302 83.9866C296.383 82.9248 297.105 81.551 297.367 80.058C297.628 78.5649 297.415 77.0275 296.758 75.6616Z" fill="#263238"/>
<path d="M257.864 106.082C258.684 98.4648 262.339 91.4343 268.104 86.3874C273.868 81.3405 281.32 78.6462 288.979 78.8398H290.568C307.648 80.1722 316.04 95.2747 314.219 112.14L310.57 168.412L308.087 175.446L278.66 211.941L271.212 179.063L271.104 163.869C271.104 163.869 254.719 161.006 254.852 144.737C254.91 136.875 256.374 120.705 257.864 106.082Z" fill="#FFBF9D"/>
<path d="M271.104 163.894C271.104 163.894 281.432 164.68 292.62 158.043C292.62 158.043 287.341 169.678 271.104 167.932V163.894Z" fill="#FF9A6C"/>
<path d="M261.72 120.68C261.7 121.289 261.92 121.881 262.334 122.329C262.748 122.777 263.321 123.043 263.93 123.071C264.228 123.106 264.53 123.079 264.818 122.994C265.106 122.909 265.373 122.767 265.605 122.577C265.837 122.386 266.028 122.15 266.166 121.884C266.305 121.618 266.389 121.327 266.412 121.027C266.428 120.419 266.206 119.829 265.794 119.382C265.381 118.936 264.81 118.668 264.203 118.636C263.905 118.601 263.603 118.628 263.315 118.713C263.027 118.798 262.759 118.94 262.527 119.131C262.296 119.321 262.105 119.557 261.966 119.823C261.827 120.089 261.744 120.381 261.72 120.68Z" fill="#263238"/>
<path d="M261.042 114.937C261.331 115.251 263.135 113.985 265.659 114.043C268.183 114.101 270.012 115.384 270.293 115.086C270.426 114.954 270.144 114.399 269.35 113.803C268.269 113.032 266.979 112.608 265.651 112.587C264.35 112.565 263.074 112.95 262.002 113.687C261.174 114.258 260.901 114.805 261.042 114.937Z" fill="#263238"/>
<path d="M284.345 121.938C284.329 122.545 284.551 123.136 284.964 123.582C285.376 124.029 285.947 124.297 286.555 124.329C286.853 124.362 287.154 124.335 287.442 124.25C287.729 124.164 287.996 124.022 288.228 123.832C288.459 123.641 288.65 123.406 288.789 123.14C288.928 122.875 289.012 122.584 289.037 122.285C289.053 121.677 288.831 121.087 288.418 120.64C288.006 120.194 287.435 119.926 286.828 119.894C286.529 119.859 286.227 119.885 285.94 119.97C285.652 120.055 285.384 120.198 285.152 120.388C284.921 120.579 284.73 120.815 284.591 121.081C284.452 121.347 284.369 121.638 284.345 121.938Z" fill="#263238"/>
<path d="M285.214 115.085C285.504 115.391 287.308 114.125 289.832 114.183C292.356 114.241 294.184 115.532 294.466 115.234C294.598 115.101 294.317 114.547 293.522 113.943C292.442 113.171 291.151 112.749 289.823 112.734C288.511 112.701 287.222 113.083 286.141 113.827C285.355 114.406 285.073 114.944 285.214 115.085Z" fill="#263238"/>
<path d="M276.508 133.441C276.508 133.3 274.961 133.002 272.42 132.614C271.783 132.539 271.171 132.398 271.071 131.96C271.032 131.297 271.197 130.639 271.543 130.073L273.554 125.257C276.343 118.388 278.379 112.736 278.097 112.629C277.816 112.521 275.325 117.999 272.536 124.868C271.858 126.523 271.22 128.178 270.608 129.717C270.188 130.473 270.051 131.352 270.219 132.2C270.309 132.427 270.449 132.631 270.63 132.796C270.811 132.961 271.027 133.083 271.262 133.151C271.617 133.255 271.984 133.314 272.354 133.325C274.911 133.54 276.5 133.582 276.508 133.441Z" fill="#263238"/>
<path d="M285.33 107.943C285.619 108.597 287.812 108.059 290.452 108.159C293.092 108.258 295.285 108.845 295.566 108.159C295.691 107.852 295.26 107.257 294.35 106.686C293.166 105.985 291.82 105.603 290.444 105.577C289.087 105.531 287.742 105.845 286.546 106.487C285.636 107.05 285.173 107.629 285.33 107.943Z" fill="#263238"/>
<path d="M261.761 108.06C262.142 108.673 263.93 108.259 266.015 108.449C268.1 108.64 269.822 109.219 270.293 108.673C270.5 108.4 270.293 107.804 269.565 107.191C268.592 106.446 267.422 106.003 266.2 105.916C264.978 105.829 263.757 106.103 262.688 106.703C261.894 107.233 261.588 107.804 261.761 108.06Z" fill="#263238"/>
<path d="M259.61 98.6585C259.61 98.6585 264.161 88.5626 269.176 86.2869C275.242 83.5312 277.692 90.1101 283.451 88.6371C289.211 87.164 295.037 84.4994 300.772 89.026C307.077 93.9912 303.999 97.26 304.247 104.484C305.24 133.779 310.47 142.162 312.291 128.408C312.49 126.902 316.751 125.793 317.513 119.421C318.497 111.146 319.027 101.125 317.289 95.216C315.816 90.2507 313.036 86.7586 308.004 82.8857C300.06 76.7702 288.971 76.4226 281.432 77.0184C273.893 77.6143 259.188 85.8896 259.61 98.6585Z" fill="#263238"/>
<path d="M311.257 127.921C311.294 127.322 311.453 126.737 311.723 126.202C311.993 125.666 312.368 125.191 312.827 124.804C313.285 124.418 313.817 124.128 314.391 123.952C314.964 123.777 315.567 123.719 316.164 123.783C319.217 124.131 322.594 125.926 322.263 132.191C321.675 143.305 310.52 140.466 310.52 140.102C310.52 139.738 310.967 132.596 311.257 127.921Z" fill="#FFBF9D"/>
<path d="M313.185 136.055C313.234 136.055 313.375 136.204 313.698 136.37C314.151 136.594 314.673 136.633 315.154 136.477C316.362 136.105 317.463 134.293 317.637 132.298C317.718 131.345 317.583 130.386 317.24 129.493C317.152 129.14 316.979 128.814 316.737 128.543C316.495 128.272 316.19 128.064 315.849 127.937C315.629 127.862 315.389 127.868 315.173 127.952C314.956 128.037 314.777 128.196 314.666 128.401C314.5 128.707 314.558 128.93 314.492 128.947C314.426 128.963 314.269 128.748 314.376 128.293C314.456 128.022 314.625 127.785 314.856 127.623C315.18 127.407 315.575 127.326 315.957 127.399C316.412 127.511 316.831 127.738 317.173 128.058C317.515 128.378 317.769 128.781 317.91 129.228C318.335 130.213 318.511 131.287 318.423 132.356C318.233 134.591 316.958 136.626 315.311 137.007C315.006 137.08 314.688 137.082 314.381 137.015C314.075 136.948 313.787 136.812 313.541 136.618C313.193 136.328 313.143 136.08 313.185 136.055Z" fill="#FF9A6C"/>
<path d="M311.488 106.405C310.007 107.365 308.443 108.35 306.68 108.482C304.917 108.615 302.923 107.58 302.667 105.851C302.551 105.073 302.758 104.196 302.253 103.567C301.748 102.938 300.523 103.045 299.58 103.12C297.941 103.221 296.318 102.756 294.981 101.802C293.645 100.848 292.677 99.4641 292.24 97.8816C291.412 99.098 289.434 99.007 288.193 98.1795C286.952 97.3519 286.166 96.0113 285.197 94.8693C284.229 93.7273 282.872 92.7012 281.382 92.875C280.555 92.9743 279.727 93.4542 278.9 93.3632C277.427 93.1977 276.74 91.4764 276.55 90.0531C276.359 88.6297 276.219 86.9084 274.986 86.0892C273.752 85.2699 272.329 85.7333 270.972 85.8988C269.615 86.0643 267.86 85.7168 267.538 84.401C267.488 84.0463 267.511 83.6852 267.605 83.3396C267.699 82.9939 267.862 82.6709 268.084 82.3901C269.034 81.0605 270.401 80.0871 271.968 79.6252C273.536 79.1632 275.213 79.2393 276.732 79.8413C277.34 77.9951 278.477 76.3681 280.002 75.162C281.526 73.956 283.371 73.2238 285.308 73.0564C287.244 72.889 289.188 73.2937 290.896 74.2203C292.605 75.1468 294.005 76.5546 294.921 78.2689C296.149 77.232 297.604 76.4978 299.168 76.1255C300.731 75.7533 302.361 75.7533 303.924 76.1256C305.477 76.5218 306.913 77.2792 308.117 78.3363C309.321 79.3933 310.258 80.72 310.851 82.208C312.233 81.9009 313.673 81.9913 315.006 82.4687C316.339 82.9461 317.509 83.7911 318.382 84.9058C319.207 86.0431 319.687 87.3946 319.764 88.7979C319.84 90.2013 319.509 91.5969 318.812 92.817C320.806 94.0004 322.494 96.0196 322.494 98.3284C322.494 100.637 320.169 102.88 317.943 102.226C318.338 103.15 318.384 104.185 318.072 105.14C317.76 106.095 317.111 106.903 316.246 107.415C315.342 107.871 314.303 107.985 313.321 107.734C312.34 107.482 311.483 106.884 310.909 106.049" fill="#263238"/>
<path d="M318.762 102.268C318.803 102.655 318.757 103.047 318.628 103.414C318.499 103.782 318.291 104.117 318.017 104.394C317.443 105.087 316.632 105.544 315.742 105.677C315.17 105.755 314.589 105.707 314.038 105.535C313.488 105.364 312.981 105.073 312.556 104.684L313.036 104.626C312.416 105.651 311.64 106.572 310.735 107.357C310.123 107.886 309.419 108.298 308.658 108.573C307.929 108.821 307.147 108.875 306.391 108.731C305.75 108.667 305.131 108.464 304.578 108.135C304.024 107.806 303.55 107.36 303.188 106.827C302.762 106.111 302.481 105.318 302.36 104.494C302.276 104.201 302.25 103.894 302.286 103.592C302.336 103.592 302.427 103.89 302.6 104.419C302.816 105.179 303.151 105.9 303.594 106.554C304.628 108.209 308.079 109.037 310.346 106.852C311.202 106.115 311.941 105.253 312.539 104.295L312.746 103.972L313.019 104.229C313.376 104.565 313.801 104.82 314.265 104.977C314.729 105.134 315.221 105.19 315.709 105.139C316.492 105.055 317.22 104.694 317.761 104.121C318.218 103.578 318.559 102.947 318.762 102.268Z" fill="#455A64"/>
<path d="M298.057 76.398C298.057 76.4394 297.768 76.4725 297.23 76.6711C296.51 76.9605 295.893 77.4591 295.459 78.1027L295.318 78.3179L295.169 78.1027C293.792 76.1885 291.953 74.6541 289.823 73.6423C288.445 72.9898 286.945 72.6319 285.421 72.5913C283.926 72.5717 282.449 72.9109 281.113 73.5805C279.776 74.25 278.62 75.2304 277.741 76.4394C277.048 77.423 276.6 78.5578 276.434 79.7495L276.392 80.0971L276.053 79.9978C274.491 79.5544 272.819 79.7231 271.378 80.4695C270.249 81.0594 269.335 81.9885 268.763 83.1258C268.282 84.165 268.02 85.2916 267.993 86.436C267.893 86.1435 267.854 85.8338 267.877 85.5257C267.886 84.6684 268.074 83.8225 268.431 83.0431C268.998 81.8008 269.946 80.7716 271.138 80.1053C272.693 79.2552 274.517 79.0416 276.227 79.5095L275.846 79.7578C276.002 78.4582 276.473 77.2166 277.22 76.1414C278.15 74.8354 279.384 73.7759 280.816 73.0549C282.248 72.3339 283.834 71.9731 285.437 72.0038C287.047 72.0598 288.627 72.4575 290.072 73.1706C292.263 74.2503 294.124 75.8995 295.459 77.9455H295.169C295.661 77.264 296.365 76.766 297.172 76.5304C297.451 76.4111 297.756 76.3655 298.057 76.398Z" fill="#455A64"/>
<path d="M283.17 137.354C283.17 137.354 286.414 144.057 279.471 145.629C278.867 145.767 278.236 145.732 277.65 145.53C277.122 145.357 276.646 145.054 276.266 144.649C275.885 144.244 275.613 143.75 275.474 143.212L274.514 139.563C274.837 139.687 283.17 137.354 283.17 137.354Z" fill="#FF9A6C"/>
<path d="M276.897 145.646C277.199 145.654 277.501 145.682 277.799 145.729C278.607 145.772 279.415 145.651 280.174 145.373C281.432 144.938 282.475 144.038 283.091 142.857C283.706 141.677 283.847 140.306 283.484 139.026C283.34 138.467 283.099 137.938 282.773 137.462L283.004 137.545C280.323 138.223 277.956 138.802 276.252 139.2L274.249 139.655C274.006 139.721 273.756 139.758 273.504 139.762C273.728 139.649 273.964 139.563 274.208 139.506L276.186 138.927C277.841 138.455 280.216 137.826 282.889 137.131H283.038L283.12 137.247C283.476 137.766 283.74 138.342 283.898 138.951C284.099 139.705 284.144 140.491 284.03 141.262C283.916 142.034 283.646 142.773 283.236 143.437C282.651 144.32 281.83 145.021 280.865 145.46C279.901 145.899 278.833 146.058 277.783 145.919C277.472 145.887 277.171 145.795 276.897 145.646Z" fill="#263238"/>
<path d="M227.576 187.504C227.576 187.504 215.817 193.801 213.417 210.294C211.365 224.462 198.976 300.413 198.976 300.413L187.937 347.218H216.553L232.119 264.217L227.576 187.504Z" fill="#E9231B"/>
<path d="M235.967 347.342L252.055 201.663L266.09 169.538L270.79 166.286L274.175 180.585L278.718 196.756L291.131 181.156L310.735 165.963L311.19 173.46L320.599 200.984L312.796 272.798V347.185L235.967 347.342Z" fill="white"/>
<path d="M271.104 347.218C271.131 347.09 271.144 346.959 271.146 346.829C271.146 346.547 271.146 346.175 271.204 345.695C271.204 344.661 271.295 343.212 271.361 341.334C271.493 337.502 271.675 332.024 271.907 325.271C272.387 311.708 273.14 292.997 274.216 272.309C275.292 251.621 276.508 232.918 277.443 219.347C277.923 212.602 278.271 207.141 278.577 203.317C278.701 201.455 278.8 200.007 278.875 198.956C278.875 198.485 278.875 198.129 278.933 197.823C278.955 197.694 278.955 197.562 278.933 197.434C278.905 197.562 278.886 197.692 278.875 197.823C278.875 198.104 278.809 198.476 278.759 198.948C278.66 199.982 278.527 201.431 278.354 203.301C278.014 207.083 277.567 212.553 277.046 219.322C275.995 232.852 274.729 251.596 273.645 272.243C272.561 292.89 271.874 311.658 271.502 325.205C271.32 331.991 271.195 337.478 271.137 341.276C271.137 343.146 271.096 344.586 271.088 345.645V346.779C271.077 346.925 271.083 347.072 271.104 347.218Z" fill="#263238"/>
<path d="M336.629 268.444L359.163 198.674L319.284 177.241L310.959 168.221C310.959 168.221 309.179 205.65 308.906 215.564C308.633 225.478 304.264 263.056 302.286 285.905C301.252 298.111 301.914 318.51 302.526 330.004C303.229 343.187 303.08 347.548 303.08 347.548L342.099 347.333L329.189 295.959L336.629 268.444Z" fill="#E9231B"/>
<path d="M254.761 177.077L227.576 187.504L223.356 288.596L212.854 347.351L242.844 347.914C243.117 340.755 250.747 281.107 250.747 281.107L260.768 187.76L268.622 167.809L254.761 177.077Z" fill="#E9231B"/>
<path d="M255.257 176.521C255.074 176.689 254.907 176.875 254.761 177.076L253.387 178.731L248.281 185.062L248.173 185.194L248.314 185.302L252.642 188.554L252.7 188.198L247.627 189.787L247.462 189.837V190.002C247.561 198.956 247.685 210.235 247.818 222.458C248.033 237.354 248.231 250.876 248.38 260.698C248.48 265.556 248.554 269.503 248.612 272.284C248.653 273.616 248.686 274.667 248.711 275.429C248.711 275.76 248.711 276.033 248.711 276.256C248.702 276.35 248.702 276.444 248.711 276.538C248.722 276.444 248.722 276.35 248.711 276.256C248.711 276.041 248.711 275.768 248.711 275.429C248.711 274.667 248.711 273.608 248.711 272.276C248.711 269.495 248.711 265.548 248.662 260.69C248.554 250.859 248.413 237.354 248.264 222.441C248.091 210.219 247.925 198.948 247.793 189.994L247.635 190.209L252.7 188.554L253.081 188.438L252.758 188.198L248.521 185.02V185.26L253.486 178.839L254.794 177.117C254.965 176.932 255.12 176.733 255.257 176.521Z" fill="#263238"/>
<path d="M304.744 274.213C304.744 274.213 304.793 274.122 304.851 273.94C304.909 273.758 305.009 273.468 305.116 273.113L306.134 270.026C307.019 267.353 308.335 263.488 310.032 258.738C310.859 256.363 311.827 253.773 312.837 250.976C313.941 248.012 314.891 244.993 315.684 241.931C317.396 234.899 318.727 227.78 319.673 220.605C321.055 210.675 321.94 201.316 322.486 193.297V193.189L322.403 193.106L318.026 188.969V189.308L322.163 186.188L322.321 186.064L322.205 185.907L314.716 175.852L312.655 173.138L312.109 172.443C311.976 172.286 311.91 172.211 311.902 172.219C311.947 172.309 312 172.395 312.059 172.476C312.192 172.666 312.357 172.906 312.556 173.212L314.534 175.985C316.288 178.426 318.795 181.885 321.874 186.139V185.857L317.736 188.944L317.529 189.101L317.72 189.291L322.064 193.495L321.99 193.305C321.402 201.332 320.484 210.683 319.11 220.614C318.164 227.771 316.852 234.875 315.179 241.898C314.346 245.125 313.416 248.132 312.39 250.918L309.651 258.672C307.996 263.447 306.746 267.328 305.919 270.026C305.505 271.383 305.199 272.434 305.009 273.146C304.926 273.485 304.851 273.75 304.793 273.973C304.769 274.051 304.752 274.132 304.744 274.213Z" fill="#263238"/>
<g opacity="0.3">
<path d="M336.629 325.966L315.03 334.341L313.59 329.582L302.89 338.412L302.302 325.238L311.712 312.188L335.048 319.668L336.629 325.966Z" fill="black"/>
</g>
<path d="M374.546 303.136C375.686 302.436 376.635 301.465 377.309 300.31C377.984 299.155 378.362 297.852 378.411 296.515C378.485 292.744 378.266 288.973 377.757 285.236C376.21 272.517 359.154 198.676 359.154 198.676L333.997 256.19L341.263 281.239L304.247 298.783L314.55 327.565C314.55 327.565 363.788 309.781 374.546 303.136Z" fill="#E9231B"/>
<path d="M349.315 215.697C349.214 215.903 349.136 216.12 349.083 216.343L348.512 218.221C348.024 219.926 347.354 222.276 346.526 225.156C344.871 231.023 342.612 239.125 340.311 248.137C338.011 257.149 336.174 265.366 335.04 271.349C334.461 274.345 334.03 276.769 333.774 278.458C333.65 279.285 333.55 279.889 333.476 280.394C333.434 280.618 333.411 280.845 333.41 281.073C333.5 280.861 333.561 280.638 333.592 280.411C333.691 279.914 333.823 279.277 333.989 278.491C334.345 276.753 334.816 274.353 335.437 271.432C336.678 265.474 338.565 257.273 340.866 248.261C343.166 239.249 345.368 231.139 346.923 225.255C347.668 222.359 348.289 219.992 348.727 218.271C348.918 217.485 349.075 216.856 349.191 216.359C349.26 216.145 349.301 215.922 349.315 215.697Z" fill="#263238"/>
<path d="M362.299 309.051C362.216 309.063 362.136 309.085 362.059 309.117L361.364 309.357L358.699 310.35L348.769 314.132L314.5 327.373L314.856 327.538L307.955 308.223C306.804 304.996 305.662 301.827 304.562 298.748L304.421 299.096L341.006 281.618C345.93 280.005 351.271 280.228 356.043 282.247C357.327 282.796 358.566 283.443 359.75 284.183L360.669 284.779C360.768 284.854 360.876 284.915 360.991 284.961C360.901 284.877 360.804 284.8 360.702 284.73L359.816 284.084C358.647 283.301 357.412 282.62 356.126 282.048C354.08 281.14 351.905 280.559 349.679 280.327C346.715 280.035 343.723 280.345 340.882 281.237L304.222 298.574L303.991 298.682L304.082 298.922L307.466 308.397L314.393 327.704L314.484 327.968L314.749 327.861L348.893 314.446L358.782 310.516L361.413 309.448L362.092 309.159L362.299 309.051Z" fill="#263238"/>
<path d="M279.181 196.175C279.557 195.897 279.906 195.584 280.224 195.24L282.98 192.526C285.371 190.118 288.598 186.849 292.298 183.108H291.9C293.733 185.368 294.669 188.222 294.532 191.127L294.491 191.765L294.987 191.367C299.704 187.585 303.519 183.919 306.382 181.346C307.797 180.071 308.948 179.054 309.742 178.367C310.174 178.028 310.581 177.657 310.959 177.258C310.482 177.534 310.03 177.853 309.61 178.209C308.782 178.847 307.582 179.823 306.126 181.064C303.205 183.547 299.323 187.197 294.64 190.929L295.095 191.169C295.16 190.126 295.082 189.079 294.863 188.057C294.48 186.1 293.603 184.274 292.314 182.753L292.116 182.521L291.909 182.736L282.731 192.294C281.655 193.453 280.773 194.396 280.083 195.124C279.752 195.447 279.45 195.799 279.181 196.175Z" fill="#263238"/>
<path d="M266.71 175.57C266.656 175.843 266.642 176.121 266.669 176.398C266.669 176.961 266.669 177.788 266.776 178.814C267.011 181.606 267.473 184.373 268.158 187.09L268.332 187.776L268.663 187.148C269.607 185.319 270.823 183.645 272.271 182.182C272.685 181.769 273.099 181.355 273.521 181.024L273.066 180.867C273.905 184.619 275.031 188.301 276.434 191.881C276.963 193.238 277.435 194.314 277.783 195.051C277.936 195.441 278.133 195.813 278.37 196.159C278.278 195.75 278.145 195.351 277.973 194.968C277.659 194.14 277.261 193.031 276.798 191.749C275.51 188.195 274.438 184.566 273.587 180.883L273.479 180.42L273.124 180.726C272.693 181.09 272.255 181.487 271.833 181.918C270.342 183.407 269.099 185.125 268.15 187.007L268.647 187.065C267.936 184.365 267.411 181.619 267.074 178.847C266.859 176.745 266.776 175.57 266.71 175.57Z" fill="#263238"/>
<g opacity="0.3">
<path d="M247.693 189.986L244.623 194.24C244.623 194.24 245.492 258.333 248.761 274.246L247.693 189.986Z" fill="black"/>
</g>
<path d="M212.854 347.341C212.854 347.341 212.854 347.234 212.896 347.035C212.937 346.836 212.987 346.522 213.053 346.141C213.193 345.314 213.409 344.18 213.673 342.699C214.244 339.695 215.055 335.358 216.073 329.988C218.142 319.188 221.038 304.202 224.258 287.345V287.386C224.258 285.127 224.208 282.727 224.183 280.302C224.001 261.484 223.836 244.453 223.711 232.107C223.711 225.95 223.645 220.968 223.62 217.501V213.528C223.62 213.09 223.62 212.751 223.62 212.494C223.608 212.379 223.608 212.262 223.62 212.146C223.631 212.262 223.631 212.378 223.62 212.494V213.528C223.62 214.455 223.67 215.788 223.703 217.501C223.761 220.968 223.836 225.95 223.935 232.107C224.084 244.453 224.299 261.484 224.531 280.294C224.531 282.727 224.58 285.119 224.605 287.378V287.427C221.295 304.276 218.39 319.255 216.28 330.037L213.798 342.732C213.5 344.205 213.26 345.355 213.094 346.158L212.904 347.043C212.9 347.144 212.884 347.244 212.854 347.341Z" fill="#263238"/>
<path d="M216.388 284.969C216.388 285.094 214.236 284.911 211.613 285.102C208.99 285.292 206.888 285.747 206.863 285.623C208.367 285.03 209.964 284.708 211.58 284.671C213.188 284.49 214.815 284.591 216.388 284.969Z" fill="#263238"/>
<path d="M304.669 300.734C304.669 300.734 283.799 305.087 280.671 305.766C277.543 306.444 265.32 315.647 264.12 316.325C262.92 317.004 259.37 319.246 259.37 319.246C259.37 319.246 261.646 322.987 265.692 321.63C268.131 320.81 270.406 319.567 272.412 317.955L263.781 325.825L253.95 331.833C253.357 332.183 252.908 332.732 252.684 333.383C252.459 334.033 252.474 334.743 252.725 335.383C252.867 335.792 253.158 336.132 253.54 336.334C253.923 336.537 254.367 336.587 254.785 336.476C257.574 335.979 266.636 332.446 266.636 332.446C266.636 332.446 267.058 337.916 272.048 338.594C272.048 338.594 273.124 343.286 277.468 342.285C277.468 342.285 281.738 345.785 285.512 343.783C289.285 341.78 299.108 337.775 301.136 333.703C302.475 331.059 304.007 328.517 305.72 326.098L313.309 324.791L304.669 300.734Z" fill="#FFBF9D"/>
<path d="M266.644 332.446C266.71 332.595 269.325 331.544 272.371 329.856C275.416 328.167 277.592 326.306 277.476 326.165C277.361 326.024 275.077 327.638 272.056 329.293C269.036 330.948 266.561 332.272 266.644 332.446Z" fill="#FF9A6C"/>
<path d="M282.566 331.636C282.467 331.47 279.885 332.927 276.922 335.004C273.959 337.081 271.526 338.711 271.609 338.86C271.692 339.009 274.307 337.627 277.286 335.55C280.265 333.473 282.69 331.785 282.566 331.636Z" fill="#FF9A6C"/>
<path d="M286.463 335.83C286.348 335.714 284.453 337.303 281.912 339.024C279.371 340.746 277.369 342.244 277.476 342.401C277.584 342.558 279.727 341.3 282.276 339.554C284.825 337.808 286.604 335.963 286.463 335.83Z" fill="#FF9A6C"/>
<path d="M283.948 309.291C283.191 309.296 282.444 309.459 281.755 309.771C280.049 310.393 278.456 311.287 277.038 312.419C275.624 313.551 274.352 314.849 273.248 316.284C272.745 316.846 272.342 317.489 272.056 318.187C272.23 318.328 274.191 315.506 277.435 312.932C280.679 310.359 284.006 309.481 283.948 309.291Z" fill="#FF9A6C"/>
<path d="M393.58 228.276C393.696 229.228 385.015 252.788 385.015 252.788L372.891 208.846L356.183 212.33C356.183 212.33 360.718 273.063 363.631 281.272C366.768 290.035 385.097 296.589 395.351 284.706C398.28 281.305 407.64 259.607 407.64 259.607L393.58 228.276Z" fill="#A26760"/>
<path d="M372.891 208.846C372.891 208.846 374.927 203.392 373.313 198.683C371.7 193.975 366.271 190.317 366.602 187.503C366.933 184.69 364.045 177.887 361.422 178.401C358.798 178.914 356.87 181.487 359.08 185.848C360.497 188.698 361.668 191.663 362.58 194.711C362.58 194.711 335.272 180.643 333.079 180.345C330.886 180.047 328.626 179.741 328.047 181.496C327.468 183.25 332.913 185.501 332.913 185.501L340.237 194.951C341.455 198.553 343.168 201.967 345.326 205.097C348.471 209.309 354.669 212.123 354.669 212.123L362.622 221.598C362.622 221.598 374.679 217.518 372.891 208.846Z" fill="#A26760"/>
<path d="M333.376 185.889C333.418 185.889 333.616 185.724 334.047 185.525C334.653 185.251 335.329 185.17 335.983 185.294C337.638 185.591 339.748 186.998 341.478 188.976C342.927 190.739 344.164 192.666 345.161 194.719C345.533 195.599 346.008 196.433 346.576 197.202C346.395 196.252 346.08 195.332 345.64 194.471C344.759 192.296 343.545 190.272 342.041 188.471C340.212 186.394 337.969 184.954 336.049 184.747C335.295 184.653 334.531 184.832 333.898 185.252C333.467 185.583 333.343 185.848 333.376 185.889Z" fill="#7B4B45"/>
<path d="M343.373 189.416C343.266 189.598 345.028 190.782 347.296 192.073C349.563 193.363 351.491 194.257 351.599 194.083C351.706 193.91 349.944 192.718 347.668 191.427C345.392 190.136 343.472 189.242 343.373 189.416Z" fill="#7B4B45"/>
<path d="M357.822 195.481C357.913 195.307 355.761 194.587 353.237 195.439C350.713 196.292 349.431 198.129 349.613 198.212C349.795 198.294 351.169 196.888 353.477 196.143C355.786 195.398 357.789 195.704 357.822 195.481Z" fill="#7B4B45"/>
<path d="M424.695 186.395L434.129 182.307L466.635 183.134L478.841 188.265L481.323 219.48C481.323 219.48 435.097 235.931 434.915 235.931C434.733 235.931 407.391 209.111 407.391 209.111L424.695 186.395Z" fill="#A26760"/>
<path d="M413.705 204.807C416.233 205.609 418.805 206.261 421.41 206.76C434.706 209.732 448.566 208.941 461.438 204.476L473.967 200.123C473.967 200.123 494.655 241.5 495.027 242.932C495.4 244.363 477.045 347.631 477.045 347.631H403.444L405.24 288.28C405.24 288.28 403.998 233.738 404.205 233.125L413.705 204.807Z" fill="#263238"/>
<path d="M433.301 178.459L423.752 185.203C416.403 187.537 403.345 191.997 399.381 195.961C393.389 201.887 385.544 241.699 385.544 241.699C385.544 241.699 384.171 238.282 381.051 238.282L359.651 271.805C359.651 271.805 361.819 289.341 366.983 291.178C372.147 293.015 386.339 292.005 386.546 292.005H395.4L392.09 347.558L409.336 347.632L410.031 285.881L413.242 247.384L422.188 211.503L433.301 178.459Z" fill="#455A64"/>
<path d="M397.428 219.496C397.472 219.745 397.494 219.997 397.494 220.249L397.593 222.401C397.668 224.279 397.742 226.985 397.8 230.337C397.924 237.032 397.924 246.283 397.618 256.504C397.312 266.724 396.749 275.967 396.228 282.67C395.971 285.98 395.731 288.711 395.549 290.573C395.45 291.467 395.375 292.179 395.318 292.717C395.301 292.967 395.265 293.216 395.21 293.461C395.186 293.211 395.186 292.959 395.21 292.708C395.21 292.17 395.293 291.459 395.351 290.557C395.475 288.637 395.657 285.947 395.88 282.645C396.311 275.967 396.815 266.724 397.122 256.512C397.428 246.3 397.477 237.056 397.444 230.362C397.444 227.052 397.444 224.354 397.395 222.434C397.395 221.532 397.395 220.779 397.395 220.274C397.385 220.014 397.396 219.754 397.428 219.496Z" fill="#263238"/>
<path d="M397.213 216.599C396.618 215.117 396.167 213.582 395.864 212.014C395.415 210.484 395.124 208.912 394.995 207.322C396.053 210.329 396.797 213.438 397.213 216.599Z" fill="#263238"/>
<g opacity="0.3">
<path d="M397.502 221.217C397.411 221.655 397.328 222.086 397.237 222.524C392.893 244.206 392.628 270.075 395.4 292.037C396.228 292.145 399.224 224.593 397.411 221.697" fill="black"/>
</g>
<path d="M517.371 211.221C515.269 202.698 510.353 198.643 510.353 198.643L488.837 226.555L496.914 347.558H527.963L524.413 286.13C524.413 286.13 519.473 219.778 517.371 211.221Z" fill="#455A64"/>
<path d="M508.061 205.709L512.273 200.429C506.258 194.569 499.138 189.962 491.328 186.874C485.271 184.582 475.994 180.403 475.994 180.403L469.332 172.186L467.719 195.903C467.719 195.903 466.544 248.294 465.716 257.786C464.888 266.889 455.339 308.464 455.463 347.607L501.921 347.532L491.593 286.667C491.593 286.667 495.813 247.872 496.078 246.606C496.343 245.34 508.061 205.709 508.061 205.709Z" fill="#455A64"/>
<path d="M510.345 205.412C510.453 205.494 507.085 209.549 502.831 214.457C498.578 219.364 495.044 223.27 494.945 223.187C494.845 223.104 498.205 219.05 502.459 214.142C506.712 209.235 510.262 205.321 510.345 205.412Z" fill="#263238"/>
<path d="M416.61 218.818C416.573 218.686 416.548 218.55 416.536 218.413C416.536 218.098 416.461 217.709 416.403 217.229C416.296 216.129 416.147 214.623 415.965 212.752L416.221 212.843C413.161 216.333 410.465 220.126 408.177 224.164L407.664 225.074L407.747 224.032C408.545 213.404 411.861 203.118 417.421 194.025C418.795 191.642 420.003 189.772 420.839 188.481L421.832 187.016C421.939 186.839 422.064 186.672 422.204 186.52C422.121 186.709 422.025 186.891 421.915 187.066C421.675 187.455 421.377 187.959 421.004 188.58C420.177 189.896 419.06 191.799 417.694 194.191C414.117 200.368 411.442 207.026 409.75 213.961C408.987 217.29 408.462 220.669 408.177 224.073L407.747 223.941C410.071 219.89 412.826 216.103 415.965 212.645L416.205 212.397V212.736C416.337 214.606 416.436 216.112 416.511 217.213C416.511 217.701 416.552 218.09 416.569 218.405C416.603 218.54 416.617 218.679 416.61 218.818Z" fill="#263238"/>
<path d="M377.641 287.767C377.683 287.608 377.744 287.455 377.823 287.312L378.411 286.029C378.676 285.475 378.999 284.796 379.33 283.993C379.661 283.191 380.091 282.297 380.472 281.271C380.852 280.245 381.299 279.136 381.713 277.911C382.127 276.686 382.54 275.387 382.962 274.005C383.82 270.989 384.513 267.928 385.04 264.836C385.531 261.739 385.852 258.617 385.999 255.485C386.041 254.037 386.099 252.663 386.066 251.347C386.033 250.031 386.008 248.865 385.958 247.772C385.908 246.68 385.809 245.687 385.743 244.826C385.677 243.966 385.602 243.212 385.52 242.6C385.437 241.988 385.412 241.566 385.371 241.202C385.349 241.037 385.349 240.87 385.371 240.705C385.424 240.861 385.46 241.022 385.478 241.185C385.544 241.549 385.619 242.013 385.71 242.584C385.801 243.155 385.925 243.932 386.008 244.801C386.091 245.67 386.231 246.655 386.281 247.747C386.33 248.84 386.438 250.048 386.446 251.339C386.455 252.63 386.446 254.012 386.446 255.477C386.221 261.785 385.195 268.039 383.393 274.088C382.954 275.478 382.565 276.802 382.102 278.01C381.638 279.219 381.225 280.344 380.803 281.362C380.381 282.38 379.975 283.274 379.603 284.068C379.23 284.862 378.907 285.533 378.61 286.079L377.948 287.328C377.868 287.489 377.764 287.637 377.641 287.767Z" fill="#263238"/>
<path d="M475.994 180.428C476.032 180.652 476.049 180.879 476.044 181.106C476.044 181.595 476.044 182.248 476.102 183.068C476.102 184.814 476.168 187.263 476.209 190.275C476.275 196.366 476.35 204.774 476.308 214.067C476.308 216.152 476.267 218.205 476.242 220.166C476.242 221.151 476.242 222.127 476.151 223.087C476.151 223.327 476.151 223.559 476.102 223.807V223.998C476.108 224.036 476.108 224.075 476.102 224.113C476.103 224.135 476.103 224.158 476.102 224.18L476.044 224.229C476.004 224.244 475.96 224.244 475.92 224.229C475.884 224.237 475.847 224.237 475.812 224.229C475.685 224.164 475.567 224.08 475.464 223.981C475.109 223.658 474.786 223.319 474.471 222.988C471.989 220.29 469.812 217.733 467.934 215.54L468.223 215.457C467.652 219.049 467.181 221.978 466.85 224.064C466.684 225.048 466.552 225.826 466.452 226.406L466.337 227.018C466.329 227.089 466.312 227.158 466.287 227.225C466.274 227.154 466.274 227.081 466.287 227.01C466.287 226.844 466.287 226.637 466.353 226.389C466.428 225.81 466.535 225.024 466.668 224.031C466.957 221.945 467.379 219.007 467.892 215.408L467.942 215.052L468.174 215.325C470.069 217.501 472.254 220.05 474.794 222.715C475.109 223.046 475.431 223.377 475.771 223.683L475.977 223.849C475.977 223.849 475.977 223.915 475.977 223.998C475.977 224.08 475.895 223.948 475.812 223.956V223.906V223.741C475.812 223.518 475.812 223.278 475.862 223.046C475.903 222.094 475.928 221.126 475.944 220.141C475.944 218.163 475.944 216.128 476.002 214.051C476.002 204.782 476.002 196.391 476.002 190.267C476.002 187.255 476.002 184.797 476.002 183.051C476.002 182.223 476.002 181.578 476.002 181.09C475.986 180.869 475.983 180.648 475.994 180.428Z" fill="#263238"/>
<path d="M494.945 229.41C494.95 229.504 494.95 229.598 494.945 229.692C494.945 229.898 494.945 230.171 494.945 230.519C494.945 231.272 494.854 232.34 494.787 233.705C494.63 236.502 494.398 240.516 494.117 245.481C493.505 255.461 492.661 269.289 491.717 284.756V284.706C491.941 286.022 492.189 287.42 492.429 288.844C495.218 305.064 497.75 319.752 499.579 330.403C500.473 335.707 501.234 340.01 501.697 343.006C501.929 344.479 502.119 345.629 502.252 346.44C502.301 346.813 502.351 347.111 502.384 347.334C502.395 347.436 502.395 347.538 502.384 347.64L502.31 347.342C502.31 347.119 502.21 346.829 502.136 346.457C501.987 345.629 501.78 344.504 501.507 343.039C500.969 340.043 500.2 335.749 499.256 330.461C497.386 319.81 494.821 305.13 491.982 288.918C491.742 287.503 491.494 286.105 491.27 284.781V284.731C492.272 269.264 493.157 255.444 493.803 245.456C494.142 240.491 494.415 236.494 494.63 233.697C494.738 232.331 494.812 231.264 494.87 230.519L494.945 229.692C494.932 229.598 494.932 229.504 494.945 229.41Z" fill="#263238"/>
<path d="M423.114 100.754C415.716 100.911 409.377 111.777 410.47 117.9C411.008 120.871 412.365 124.289 409.932 126.49C407.499 128.692 402.484 128.485 400.167 130.727C400.167 130.727 397.229 133.624 397.552 137.348C397.875 141.071 397.254 146.103 394.242 147.435L409.237 152.748C410.784 151.201 411.405 148.751 412.952 147.204C411.181 148.859 409.46 154.651 417.487 155.28L422.452 150.927C436.099 154.403 450.448 158.731 461.347 152.864" fill="#263238"/>
<path d="M492.636 133.308C491.651 130.503 490.037 127.904 489.326 125.033C487.861 118.802 490.807 111.701 487.671 106.124C485.42 102.16 480.736 100.273 476.308 99.0152C471.881 97.7573 467.661 97.0042 464.326 93.8679C461.843 91.5673 460.453 88.373 458.012 86.0642C454.536 82.7541 449.472 81.7279 444.672 81.521C439.707 81.3059 434.642 81.8686 430.256 84.1029C425.87 86.3373 422.246 90.4419 421.55 95.2747C421.203 97.6332 421.55 100.099 420.83 102.375C420.053 104.858 418.116 106.852 416.941 109.202C415.753 111.72 415.445 114.564 416.068 117.278C416.691 119.991 418.208 122.417 420.375 124.164L454.999 166.815C462.158 169.347 469.953 160.352 475.357 155.056C480.761 149.76 495.127 140.417 492.636 133.308Z" fill="#263238"/>
<path d="M421.17 119.091C422.386 109.243 429.727 97.5088 439.616 99.1225L470.234 108.705C473.238 109.202 474.852 111.577 474.612 114.581L468.298 187.702C468.372 187.702 467.537 188.877 467.611 188.894C467.686 188.91 459.336 209.408 439.16 201.869C435.163 200.38 433.368 201.762 432.805 197.186C431.928 196.838 427.765 195.398 427.79 194.885L433.301 178.458C433.583 172.467 433.765 170.655 433.757 170.704C433.748 170.754 421.12 168.329 419.457 151.671C418.604 143.437 419.821 130.031 421.17 119.091Z" fill="#A26760"/>
<path d="M445.326 133.259C445.291 133.813 445.474 134.358 445.836 134.779C446.198 135.199 446.709 135.462 447.262 135.51C447.531 135.549 447.804 135.533 448.067 135.464C448.33 135.396 448.576 135.276 448.792 135.111C449.008 134.946 449.188 134.74 449.323 134.504C449.459 134.269 449.545 134.009 449.579 133.739C449.614 133.185 449.431 132.639 449.069 132.217C448.708 131.795 448.196 131.531 447.643 131.48C447.373 131.443 447.099 131.46 446.837 131.529C446.574 131.599 446.328 131.72 446.112 131.885C445.897 132.051 445.716 132.258 445.581 132.494C445.446 132.729 445.359 132.99 445.326 133.259Z" fill="#263238"/>
<path d="M424.05 132.712C424.013 133.264 424.194 133.81 424.555 134.23C424.915 134.651 425.426 134.914 425.978 134.963C426.247 135.001 426.52 134.985 426.783 134.917C427.046 134.848 427.292 134.728 427.508 134.563C427.723 134.398 427.904 134.192 428.039 133.957C428.174 133.721 428.261 133.461 428.295 133.192C428.33 132.638 428.148 132.093 427.788 131.672C427.428 131.25 426.918 130.985 426.367 130.932C426.097 130.894 425.823 130.91 425.56 130.979C425.297 131.048 425.05 131.169 424.834 131.335C424.618 131.501 424.438 131.708 424.303 131.944C424.168 132.181 424.082 132.442 424.05 132.712Z" fill="#263238"/>
<path d="M423.131 126.158C423.371 126.539 425.332 125.264 427.823 125.579C430.314 125.893 431.961 127.548 432.259 127.234C432.408 127.093 432.209 126.406 431.506 125.661C430.579 124.693 429.345 124.076 428.013 123.915C426.684 123.761 425.343 124.077 424.223 124.809C423.371 125.388 423.015 125.984 423.131 126.158Z" fill="#263238"/>
<path d="M445.905 128.236C446.203 128.592 448.131 127.152 450.804 127.218C453.477 127.285 455.397 128.741 455.695 128.402C455.844 128.253 455.546 127.624 454.71 126.945C453.588 126.082 452.219 125.6 450.804 125.572C449.401 125.543 448.027 125.979 446.898 126.813C446.054 127.467 445.756 128.079 445.905 128.236Z" fill="#263238"/>
<path d="M436.918 143.9C436.918 143.768 435.519 143.445 433.227 143.015C432.639 142.924 432.093 142.775 432.019 142.369C432.003 141.766 432.176 141.172 432.515 140.673C433.144 139.299 433.814 137.859 434.51 136.353C437.29 130.204 439.342 125.132 439.094 125.016C438.846 124.9 436.38 129.807 433.599 135.964L431.646 140.333C431.238 141.014 431.083 141.817 431.208 142.601C431.283 142.809 431.403 142.999 431.561 143.155C431.718 143.311 431.909 143.43 432.118 143.503C432.441 143.605 432.774 143.671 433.111 143.701C435.453 143.933 436.901 144.024 436.918 143.9Z" fill="#263238"/>
<path d="M433.732 170.704C441.556 171.278 449.388 169.692 456.373 166.119C456.373 166.119 450.059 177.854 433.492 175.346L433.732 170.704Z" fill="#7B4B45"/>
<path d="M445.979 120.473C446.17 121.11 448.462 120.944 451.16 121.424C453.857 121.904 455.976 122.757 456.365 122.252C456.539 121.995 456.191 121.424 455.347 120.738C454.225 119.919 452.922 119.383 451.549 119.174C450.171 118.919 448.752 118.998 447.411 119.405C446.426 119.745 445.905 120.2 445.979 120.473Z" fill="#263238"/>
<path d="M423.843 117.991C424.281 118.537 426.118 118.107 428.295 118.206C430.471 118.306 432.292 118.786 432.747 118.273C432.946 118.016 432.689 117.445 431.919 116.948C430.849 116.277 429.616 115.91 428.353 115.889C427.099 115.827 425.853 116.113 424.753 116.717C423.942 117.164 423.661 117.693 423.843 117.991Z" fill="#263238"/>
<path d="M502.483 130.155C500.911 127.284 503.948 124.073 501.532 121.425C499.331 119 493.53 118.942 491.469 116.46C489.814 114.532 489.814 114.027 489.731 112.223C489.665 109.955 488.631 100.455 474.612 98.5188L472.667 107.158C471.79 106.753 470.88 106.397 469.986 106.074C458.555 101.933 446.675 99.1556 434.592 97.7988C433.136 100.281 434.592 103.592 436.876 105.321C439.16 107.051 442.098 107.713 444.821 108.631C447.543 109.55 450.357 111.114 451.516 113.704C452.757 116.493 451.813 119.836 452.914 122.683C454.793 127.574 461.769 129.038 463.631 133.946C465.029 137.661 462.919 141.675 462.439 145.606C462.191 147.849 462.475 150.119 463.267 152.232C464.059 154.345 465.338 156.243 466.999 157.77C469.63 160.162 474.116 164.498 474.447 163.629L511.917 140.458C514.11 135.245 504.643 134.095 502.483 130.155Z" fill="#263238"/>
<path d="M420.168 158.307C420.049 158.384 419.921 158.448 419.788 158.498C419.414 158.674 419.026 158.82 418.629 158.936C417.159 159.357 415.618 159.467 414.103 159.259C411.842 158.955 409.725 157.978 408.029 156.454C407.045 155.546 406.251 154.452 405.695 153.235C405.118 151.927 404.79 150.524 404.727 149.097C404.588 146.303 405.551 143.567 407.408 141.475C408.939 139.786 410.968 138.627 413.201 138.165C414.7 137.859 416.248 137.888 417.735 138.248C418.136 138.348 418.529 138.478 418.911 138.637C419.047 138.686 419.18 138.744 419.308 138.811C419.163 138.788 419.022 138.749 418.886 138.695C418.5 138.569 418.108 138.464 417.711 138.38C416.24 138.069 414.721 138.069 413.25 138.38C411.078 138.853 409.108 139.993 407.615 141.641C405.83 143.683 404.91 146.339 405.049 149.047C405.111 150.433 405.425 151.796 405.976 153.069C406.515 154.249 407.28 155.312 408.227 156.197C409.872 157.691 411.922 158.664 414.119 158.994C415.606 159.218 417.122 159.145 418.58 158.779C418.975 158.678 419.365 158.553 419.746 158.407C419.882 158.355 420.024 158.322 420.168 158.307Z" fill="#E0E0E0"/>
<path d="M494.39 150.859C494.412 150.774 494.443 150.691 494.481 150.611C494.585 150.367 494.671 150.115 494.738 149.858C495.008 148.882 495.05 147.857 494.862 146.862C494.584 145.272 493.79 143.818 492.603 142.725C491.863 142.049 490.972 141.56 490.004 141.301C488.978 141.012 487.836 140.921 486.694 140.523C486.083 140.332 485.519 140.013 485.039 139.588C484.56 139.139 484.19 138.588 483.955 137.975C483.51 136.684 483.347 135.312 483.475 133.953C483.631 132.532 483.65 131.099 483.533 129.674C483.438 128.944 483.196 128.24 482.821 127.606C482.419 126.965 481.879 126.422 481.241 126.017C479.84 125.243 478.322 124.703 476.747 124.42C475.064 124.114 473.446 123.52 471.964 122.665C471.219 122.178 470.599 121.523 470.152 120.754C469.725 119.98 469.429 119.141 469.274 118.271C468.935 116.517 468.935 114.721 468.604 112.967C468.258 111.255 467.482 109.659 466.35 108.328C465.219 106.998 463.767 105.977 462.133 105.361C460.523 104.861 458.853 104.583 457.168 104.534C456.326 104.479 455.493 104.329 454.685 104.087C453.893 103.85 453.17 103.427 452.575 102.854C451.408 101.679 451.002 100.115 450.489 98.7164C450.033 97.3637 449.301 96.1208 448.338 95.0669C446.566 93.17 444.179 91.9621 441.602 91.6575C439.47 91.4197 437.319 91.8784 435.47 92.965C434.079 93.7789 432.877 94.879 431.944 96.1924C431.359 97.0232 430.904 97.9385 430.595 98.9067C430.508 99.1536 430.433 99.405 430.372 99.6598C430.352 99.7503 430.324 99.8389 430.289 99.9246C430.347 99.5722 430.427 99.2239 430.529 98.8819C430.819 97.8982 431.26 96.9657 431.837 96.1179C432.763 94.7736 433.968 93.6447 435.37 92.8078C437.252 91.6833 439.446 91.1958 441.626 91.4175C444.271 91.715 446.724 92.9442 448.545 94.8849C449.539 95.9597 450.298 97.2311 450.771 98.6171C451.284 99.999 451.698 101.522 452.798 102.614C453.899 103.706 455.546 104.054 457.159 104.195C458.864 104.233 460.555 104.511 462.182 105.022C463.871 105.652 465.37 106.702 466.539 108.074C467.707 109.445 468.507 111.092 468.861 112.859C469.2 114.663 469.2 116.459 469.531 118.163C469.672 119.009 469.951 119.826 470.359 120.58C470.777 121.312 471.364 121.934 472.071 122.392C474.926 124.229 478.568 123.998 481.332 125.752C481.995 126.179 482.56 126.743 482.987 127.407C483.374 128.08 483.624 128.822 483.723 129.592C483.843 131.033 483.821 132.483 483.657 133.92C483.524 135.244 483.676 136.582 484.104 137.842C484.321 138.419 484.666 138.94 485.113 139.365C485.58 139.811 486.144 140.142 486.76 140.333C487.869 140.722 489.019 140.83 490.07 141.161C491.063 141.443 491.975 141.953 492.735 142.65C493.934 143.777 494.73 145.265 495.003 146.887C495.181 147.9 495.116 148.941 494.812 149.924C494.735 150.177 494.638 150.423 494.523 150.661L494.39 150.859Z" fill="#455A64"/>
<path d="M445.003 147.295C444.862 147.081 444.656 146.919 444.415 146.831C444.131 146.789 443.842 146.838 443.588 146.972L436.785 149.661C436.967 153.435 439.359 154.891 441.155 154.924C442.052 154.93 442.933 154.69 443.703 154.23C444.473 153.771 445.103 153.109 445.524 152.318C445.911 151.514 446.067 150.619 445.975 149.732C445.883 148.845 445.546 148.002 445.003 147.295Z" fill="#7B4B45"/>
<path d="M440.203 154.791C441.208 154.851 442.213 154.69 443.149 154.319C443.645 154.129 444.098 153.844 444.482 153.479C444.867 153.114 445.176 152.677 445.392 152.192C445.859 150.958 445.859 149.595 445.392 148.361C445.191 147.849 444.912 147.371 444.564 146.946L444.804 147.004C442.495 147.93 440.41 148.659 438.912 149.081C438.106 149.364 437.275 149.572 436.43 149.701C437.191 149.352 437.977 149.056 438.78 148.816C440.253 148.294 442.305 147.55 444.572 146.615L444.713 146.557L444.812 146.672C445.193 147.13 445.495 147.647 445.706 148.203C446.226 149.534 446.226 151.011 445.706 152.341C445.468 152.868 445.125 153.34 444.698 153.73C444.271 154.12 443.77 154.419 443.224 154.609C442.51 154.887 441.746 155.011 440.981 154.973C440.712 154.968 440.446 154.906 440.203 154.791Z" fill="#263238"/>
<path d="M142.456 258.175L153.909 254.865L168.109 249.502L179.389 243.387C179.389 243.387 180.373 242.41 178.991 241.194C177.609 239.977 171.477 243.378 171.477 243.378L166.62 245.191C166.62 245.191 162.482 245.522 162.755 245.141C163.028 244.76 169.375 241.682 169.375 241.682L180.208 235.79C180.208 235.79 183.261 234.209 182.318 232.182C181.863 231.222 180.737 230.651 178.66 231.445C176.583 232.24 173.306 234.3 172.131 234.755C170.956 235.211 164.261 238.239 164.261 238.239L178.131 228.739C178.131 228.739 182.649 226.05 181.201 224.146C179.753 222.243 176.997 224.337 175.408 224.974C173.819 225.611 165.122 231.147 161.729 232.687C158.824 234.011 159.528 232.91 159.528 232.91L167.753 227.829C171.386 225.586 174.142 223.36 171.775 221.887C170.236 220.927 163.276 224.635 163.276 224.635L152.998 230.378L148.099 232.546L152.179 228.888C154.128 227.456 155.668 225.539 156.648 223.327C158.079 219.794 155.175 219.678 155.175 219.678L138.409 231.147C135.802 233.423 132.724 244.388 132.724 244.388L100.342 257.347L113.765 276.985L142.456 258.175Z" fill="#FFBF9D"/>
<path d="M147.644 232.189C147.644 232.189 147.851 232.372 148.149 232.777C148.555 233.35 148.907 233.959 149.2 234.598C150.179 236.729 150.529 239.095 150.209 241.419C149.89 243.742 148.914 245.926 147.396 247.714C146.949 248.258 146.447 248.755 145.898 249.195C145.708 249.37 145.493 249.515 145.261 249.626C145.211 249.559 146.088 248.906 147.164 247.524C148.582 245.736 149.493 243.599 149.801 241.338C150.11 239.077 149.805 236.775 148.919 234.672C148.257 233.067 147.578 232.189 147.644 232.189Z" fill="#FF9A6C"/>
<path d="M146.759 187.437C147.007 186.254 148.215 185.559 149.241 184.847C151.001 183.569 152.377 181.834 153.222 179.83C154.066 177.825 154.347 175.628 154.033 173.476C153.637 171.323 152.671 169.315 151.234 167.663C149.797 166.01 147.943 164.774 145.865 164.084C144.801 163.855 143.784 163.444 142.861 162.867C140.743 161.212 141.421 157.952 140.618 155.42C138.914 150.057 131.077 148.998 128.263 144.099C126.55 141.112 127.121 137.479 127.278 134.028C127.436 130.577 126.765 126.621 123.728 124.925C122.073 124.006 120.046 123.948 118.449 122.964C115.139 120.936 115.287 116.343 114.071 112.719C112.151 107.034 105.605 103.227 99.5643 104.278C99.5643 104.278 101.972 99.1306 95.6087 96.4908C87.9209 93.313 87.4326 98.692 83.8908 95.3405C81.938 93.5976 79.4612 92.5534 76.8501 92.3721C74.239 92.1908 71.6416 92.8828 69.4668 94.3392C68.1427 95.2743 67.0339 96.4991 65.5857 97.2356C63.823 98.1459 61.7624 98.2369 59.7929 98.6589C52.3451 100.256 46.5523 107.298 46.6268 114.705L95.1535 197.31C96.8086 205.163 91.9179 208.688 98.803 213.099C100.243 214.017 110.579 216.748 112.284 217.038C114.402 217.402 119.508 217.584 121.477 216.732C125.756 214.886 132.235 212.081 133.891 207.836C136.213 208.799 138.777 209.02 141.23 208.469C143.684 207.918 145.907 206.621 147.595 204.757C149.17 202.851 150.087 200.488 150.209 198.018C150.331 195.548 149.652 193.106 148.273 191.053C147.512 189.936 146.477 188.745 146.759 187.437Z" fill="#263238"/>
<path d="M47.5123 127.093L46.842 121.408L81.1103 111.717C91.769 109.615 104.439 119.066 106.16 129.534C108.063 141.169 109.925 155.452 109.362 164.291C108.229 182.116 94.6488 185.616 94.6488 185.616L97.7852 215.929L97.2473 223.724L63.3183 194.074L47.5123 127.093Z" fill="#FFBF9D"/>
<path d="M102.668 144.115C102.728 144.71 102.552 145.304 102.177 145.768C101.802 146.233 101.259 146.531 100.665 146.598C100.376 146.649 100.081 146.643 99.7945 146.579C99.5083 146.516 99.2376 146.396 98.9977 146.228C98.7578 146.06 98.5535 145.846 98.3966 145.598C98.2396 145.351 98.1331 145.074 98.0831 144.786C98.0271 144.192 98.2051 143.601 98.5793 143.137C98.9534 142.673 99.4941 142.374 100.086 142.303C100.374 142.251 100.671 142.256 100.957 142.319C101.244 142.382 101.515 142.502 101.755 142.67C101.995 142.839 102.2 143.053 102.356 143.301C102.513 143.549 102.619 143.826 102.668 144.115Z" fill="#263238"/>
<path d="M103.114 137.346C102.858 137.669 100.988 136.568 98.5051 136.8C96.0225 137.031 94.3178 138.455 94.0198 138.14C93.8709 138.024 94.1109 137.47 94.8474 136.833C95.8584 136 97.1003 135.498 98.4058 135.393C99.6977 135.275 100.994 135.564 102.113 136.22C102.899 136.692 103.214 137.205 103.114 137.346Z" fill="#263238"/>
<path d="M79.9435 146.292C80.0017 146.886 79.8245 147.478 79.4499 147.943C79.0754 148.407 78.5335 148.706 77.9409 148.774C77.6521 148.828 77.3555 148.823 77.0685 148.761C76.7815 148.698 76.5099 148.579 76.2695 148.41C76.0291 148.242 75.8248 148.027 75.6684 147.778C75.5121 147.529 75.4069 147.252 75.359 146.962C75.2962 146.369 75.4707 145.775 75.8444 145.31C76.218 144.845 76.7605 144.546 77.3533 144.48C77.6424 144.428 77.9388 144.435 78.2254 144.498C78.5121 144.561 78.7834 144.681 79.024 144.849C79.2646 145.017 79.4696 145.231 79.6274 145.479C79.7851 145.726 79.8926 146.003 79.9435 146.292Z" fill="#263238"/>
<path d="M78.7022 140.052C78.4457 140.366 76.5672 139.265 74.0846 139.505C71.6019 139.745 69.8972 141.119 69.5993 140.846C69.4586 140.722 69.6903 140.167 70.4268 139.53C71.4386 138.704 72.6758 138.203 73.977 138.09C75.2712 137.977 76.5687 138.266 77.6926 138.918C78.5202 139.398 78.8263 139.903 78.7022 140.052Z" fill="#263238"/>
<path d="M89.4849 157.19C89.4849 157.058 90.9828 156.652 93.4571 156.106C94.086 155.99 94.6736 155.808 94.7398 155.378C94.7247 154.732 94.514 154.106 94.1357 153.582L91.7938 149.039C88.525 142.567 86.1003 137.23 86.3651 137.106C86.6299 136.982 89.5015 142.121 92.762 148.592L95.0294 153.16C95.4985 153.867 95.7009 154.717 95.6004 155.56C95.5271 155.789 95.4025 155.998 95.2362 156.171C95.0698 156.345 94.8661 156.478 94.6405 156.561C94.2982 156.685 93.9428 156.768 93.5812 156.809C91.0738 157.173 89.5098 157.331 89.4849 157.19Z" fill="#263238"/>
<path d="M94.6405 185.69C85.9835 186.619 77.2352 185.228 69.2931 181.66C69.2931 181.66 76.6913 193.999 95.1701 190.672L94.6405 185.69Z" fill="#FF9A6C"/>
<path d="M78.4126 130.494C78.2305 131.172 75.7148 131.089 72.835 131.702C69.9551 132.314 67.6711 133.307 67.2243 132.744C67.0257 132.48 67.3732 131.826 68.2587 131.089C69.4622 130.187 70.8518 129.564 72.3262 129.267C73.8007 128.969 75.3229 129.004 76.7823 129.368C77.8912 129.699 78.487 130.171 78.4126 130.494Z" fill="#263238"/>
<path d="M101.459 130.403C101.07 130.991 99.3079 130.577 97.2473 130.742C95.1867 130.908 93.482 131.462 93.0186 130.924C92.82 130.66 93.0186 130.097 93.7468 129.493C94.6985 128.756 95.8546 128.331 97.0569 128.276C98.2675 128.191 99.475 128.48 100.516 129.104C101.352 129.575 101.65 130.13 101.459 130.403Z" fill="#263238"/>
<path d="M106.83 116.493C102.324 111.639 96.3818 108.355 89.8739 107.125L60.8522 111.71L53.1148 116.476C52.4776 114.821 52.0638 113.754 52.0638 113.754C49.2171 111.925 41.4631 108.234 35.1821 114.904C32.9229 117.312 31.2513 123.535 31.3671 126.729C31.4168 127.946 31.6154 129.411 30.5396 130.122C30.1447 130.346 29.7131 130.497 29.2652 130.569C21.9249 132.381 17.059 140.21 19.0699 147.004C19.2395 147.441 19.3184 147.909 19.3016 148.378C19.0935 149.098 18.6723 149.738 18.0934 150.215C16.4605 151.996 15.4482 154.258 15.208 156.663C14.9679 159.068 15.5127 161.486 16.7611 163.555C17.5886 164.829 18.6313 166.037 18.9624 167.452C19.5499 170.026 17.6217 172.418 16.1487 174.669C11.738 181.405 11.1835 190.946 17.1335 196.664C18.5734 198.055 20.394 199.271 21.0064 201.108C21.2369 202.022 21.3399 202.963 21.3126 203.905C21.536 208.655 24.5317 213.836 29.5879 214.663C32.4015 215.11 35.7531 214.241 37.8633 216.054C38.6471 216.914 39.2921 217.891 39.7749 218.95C42.0837 222.79 47.5703 224.743 52.039 223.228C56.5077 221.714 59.3958 217.055 58.502 212.743C63.8893 210.675 67.4643 205.172 66.9181 199.793C66.9181 199.793 63.7321 183.242 65.114 178.616C66.496 173.99 62.7225 164.548 60.6122 159.947C58.502 155.346 60.1323 144.389 60.3971 140.086C60.3622 138.839 60.1675 137.601 59.8178 136.403C59.5613 135.361 59.2303 134.185 58.8496 132.928C58.686 131.776 58.5893 130.615 58.56 129.452C58.411 125.364 62.6976 122.252 66.9595 123.378C67.9956 123.655 69.0648 123.788 70.1372 123.775C71.833 123.751 73.5024 123.352 75.0251 122.605C76.5477 121.858 77.8856 120.782 78.9422 119.455C81.131 121.324 83.7547 122.612 86.5718 123.2C89.3889 123.789 92.3087 123.659 95.0626 122.823C97.479 125.637 99.9285 128.492 103.048 130.627C106.168 132.762 110.099 134.144 113.922 133.59C113.655 127.231 111.142 121.173 106.83 116.493Z" fill="#263238"/>
<path d="M104.025 122.21C103.975 122.21 104.025 121.565 103.876 120.423C103.64 118.791 103.052 117.229 102.155 115.846C100.798 113.741 98.7492 112.176 96.3619 111.419C94.8654 110.955 93.2902 110.801 91.7323 110.966C90.1744 111.131 88.6664 111.612 87.3003 112.379L87.1017 112.495L86.9362 112.321C85.734 111.038 84.3378 109.952 82.7985 109.102C79.4389 107.283 75.5725 106.626 71.8006 107.232C68.7304 107.747 65.8648 109.109 63.5252 111.163C61.9644 112.522 60.6634 114.154 59.6854 115.979C59.0069 117.27 58.7586 118.048 58.7007 118.031C58.7275 117.835 58.7775 117.644 58.8496 117.46C59.0224 116.92 59.2297 116.392 59.4703 115.879C60.3941 113.978 61.6753 112.273 63.2439 110.856C65.6052 108.71 68.5258 107.275 71.6682 106.719C75.5619 106.079 79.5577 106.758 83.022 108.647C84.6203 109.515 86.0701 110.633 87.3169 111.957L86.9445 111.907C88.3804 111.104 89.9665 110.605 91.6038 110.441C93.2411 110.277 94.8946 110.452 96.4612 110.956C98.9536 111.761 101.076 113.431 102.444 115.664C103.345 117.099 103.893 118.727 104.041 120.414C104.086 120.863 104.086 121.315 104.041 121.763C104.057 121.912 104.051 122.063 104.025 122.21Z" fill="#455A64"/>
<path d="M20.7912 149.627C23.1419 149.438 25.4711 149.04 27.7508 148.436C33.1968 146.893 38.0379 143.715 41.6203 139.333L42.2409 138.547L42.3237 138.439H42.4561C45.4301 138.19 48.2716 137.099 50.6487 135.294C52.5794 133.862 54.1749 132.027 55.3243 129.915C56.3387 127.972 56.9814 125.855 57.2193 123.676C57.2193 123.676 57.2193 123.833 57.2193 124.131C57.2213 124.574 57.1937 125.016 57.1366 125.455C56.9206 127.077 56.422 128.648 55.6636 130.097C54.5348 132.278 52.9348 134.181 50.9797 135.667C48.5351 137.573 45.5869 138.723 42.4975 138.977L42.7209 138.861L42.092 139.689C40.112 142.151 37.7073 144.239 34.9917 145.854C32.7712 147.188 30.3721 148.199 27.8666 148.858C26.1779 149.308 24.4477 149.585 22.7028 149.685C22.0904 149.727 21.6105 149.685 21.2794 149.685C21.1148 149.689 20.9503 149.67 20.7912 149.627Z" fill="#455A64"/>
<path d="M24.9041 199.685C25.2455 199.962 25.6049 200.217 25.9798 200.447C26.4401 200.704 26.9327 200.899 27.4446 201.026C28.1469 201.187 28.871 201.232 29.5879 201.158C30.4665 201.069 31.3144 200.787 32.0705 200.331C32.5004 200.064 32.8881 199.735 33.2208 199.354C33.57 198.942 33.8495 198.475 34.0483 197.972C34.4907 196.854 34.5859 195.628 34.3214 194.455C34.0374 193.13 33.2816 191.954 32.1946 191.145L31.8802 190.922H32.2691C34.4253 190.887 36.5334 190.279 38.3763 189.159C40.3691 187.908 42.0638 186.236 43.3416 184.26C43.6974 183.763 43.9788 183.209 44.2932 182.671C44.6077 182.133 44.8642 181.554 45.1208 180.958C45.6094 179.765 45.9646 178.522 46.18 177.251C46.6238 174.589 46.6823 171.877 46.3538 169.199C45.8104 165.215 44.9639 161.278 43.8215 157.423V157.315L43.9126 157.257C47.8486 154.526 51.0655 150.884 53.2885 146.64C54.2398 144.846 55.0158 142.964 55.6056 141.021C55.8374 140.103 56.127 139.234 56.2677 138.373C56.3504 137.943 56.4332 137.545 56.5077 137.115C56.5821 136.685 56.6152 136.288 56.6732 135.907C56.989 133.434 56.989 130.932 56.6732 128.459C56.5821 127.59 56.4001 126.936 56.3422 126.49C56.3008 126.274 56.276 126.109 56.2511 125.977V125.803C56.4808 126.673 56.6659 127.554 56.8056 128.443C57.1708 130.909 57.2069 133.414 56.9132 135.89C56.8635 136.288 56.8469 136.718 56.7642 137.115C56.6814 137.512 56.607 137.943 56.5325 138.381C56.4001 139.25 56.1104 140.127 55.8787 141.054C55.2977 143.017 54.5273 144.918 53.5782 146.731C51.3518 151.031 48.1109 154.724 44.136 157.489L44.2022 157.324C45.3507 161.195 46.2 165.148 46.7427 169.149C47.0792 171.855 47.0207 174.595 46.5689 177.284C46.3463 178.577 45.9828 179.843 45.4849 181.057C45.2614 181.661 44.947 182.224 44.6573 182.795C44.3677 183.366 44.045 183.904 43.6808 184.45C42.3631 186.459 40.62 188.154 38.575 189.415C36.7008 190.539 34.5617 191.145 32.3767 191.17L32.4512 190.946C33.5787 191.788 34.3612 193.012 34.6524 194.389C34.9196 195.606 34.8129 196.875 34.3462 198.03C34.1274 198.551 33.8287 199.034 33.4608 199.462C33.1063 199.85 32.6997 200.187 32.2526 200.463C31.4602 200.932 30.5717 201.215 29.6541 201.291C28.9217 201.355 28.1837 201.299 27.4694 201.125C26.9507 200.984 26.4528 200.775 25.9881 200.504C25.6892 200.34 25.4113 200.14 25.1606 199.909L24.9041 199.685Z" fill="#455A64"/>
<path d="M124.415 209.847C124.415 209.847 124.473 209.797 124.589 209.723L125.11 209.392C125.396 209.216 125.672 209.026 125.938 208.821C126.32 208.566 126.687 208.289 127.039 207.993C129.331 206.088 131.166 203.693 132.409 200.984C133.273 199.104 133.832 197.098 134.064 195.042C134.321 192.661 134.096 190.252 133.402 187.959C132.629 185.39 131.336 183.007 129.604 180.958C127.729 178.705 125.362 176.913 122.686 175.72L122.479 175.628L122.644 175.463C125.106 172.995 126.781 169.853 127.461 166.435C127.694 165.324 127.813 164.193 127.816 163.058C127.831 161.947 127.729 160.838 127.51 159.748C127.308 158.672 126.992 157.621 126.567 156.612C126.163 155.622 125.665 154.674 125.077 153.782C122.897 150.399 119.645 147.847 115.842 146.532L115.693 146.483L115.759 146.342C117.379 142.948 117.749 139.091 116.802 135.452C116.049 132.646 114.527 130.106 112.408 128.12C111.045 126.827 109.469 125.78 107.749 125.025C107.153 124.76 106.681 124.586 106.358 124.478L106.003 124.354C105.92 124.354 105.878 124.338 105.878 124.305C106.529 124.464 107.166 124.677 107.782 124.942C109.53 125.675 111.136 126.712 112.524 128.004C114.689 129.995 116.249 132.556 117.025 135.394C118.014 139.085 117.653 143.008 116.007 146.458L115.933 146.267C119.803 147.582 123.121 150.155 125.359 153.575C125.954 154.487 126.461 155.454 126.873 156.463C127.305 157.488 127.629 158.556 127.841 159.649C128.064 160.763 128.166 161.897 128.147 163.033C128.148 164.19 128.029 165.344 127.792 166.476C127.102 169.958 125.391 173.156 122.876 175.662V175.405C125.593 176.623 127.994 178.449 129.894 180.743C131.644 182.825 132.948 185.244 133.725 187.851C134.422 190.18 134.639 192.627 134.362 195.042C133.745 200.164 131.142 204.838 127.113 208.06C126.753 208.355 126.377 208.631 125.988 208.887C125.723 209.086 125.447 209.268 125.16 209.433L124.622 209.748L124.415 209.847Z" fill="#455A64"/>
<path d="M82.7985 161.395C85.1146 161.735 87.3816 162.352 89.5512 163.232V163.29C89.3526 164.854 88.9554 166.6 87.6313 167.427C87.1277 167.74 86.551 167.915 85.9586 167.935C85.3662 167.956 84.7788 167.82 84.255 167.543C83.7512 167.285 83.3124 166.917 82.9713 166.466C82.6302 166.014 82.3957 165.491 82.2854 164.936C82.1748 163.732 82.3506 162.518 82.7985 161.395Z" fill="#FF9A6C"/>
<path d="M86.2742 167.766C86.2742 167.766 86.0921 167.957 85.6535 168.023C85.0321 168.104 84.4013 167.979 83.8578 167.667C83.0346 167.222 82.4129 166.479 82.1199 165.59C81.7896 164.511 81.7896 163.359 82.1199 162.28C82.1926 161.978 82.2951 161.684 82.4261 161.403C82.5033 161.282 82.6141 161.186 82.745 161.127C82.8758 161.068 83.021 161.049 83.1626 161.072C83.3053 161.103 83.4461 161.141 83.5847 161.188L85.0411 161.593L87.5238 162.33C88.3012 162.489 89.0493 162.769 89.7415 163.157C88.9423 163.171 88.1459 163.057 87.3831 162.818L84.9005 162.238L83.4275 161.866L83.0799 161.783C83.0799 161.841 83.0799 161.634 83.0799 161.659C83.0799 161.684 83.2123 161.783 83.1626 161.759C83.0789 161.978 83.0071 162.202 82.9475 162.429C82.6741 163.365 82.6598 164.357 82.9061 165.3C83.1258 166.05 83.6036 166.698 84.255 167.129C84.8592 167.518 85.5563 167.738 86.2742 167.766Z" fill="#263238"/>
<path d="M36.9778 347.557H135.653L133.328 308.274L129.836 261.154C129.17 252.267 126.066 243.737 120.865 236.501L113.359 226.058L104.083 213.645L98.3727 202.456L62.9459 187.975L58.5682 197.011C58.5682 197.011 53.4127 200.71 50.1108 203.532C43.6891 209.019 39.9321 216.243 37.7888 224.361C37.7888 224.436 37.7888 224.519 37.7309 224.601C35.662 232.571 37.2757 244.09 37.2757 244.09L49.0516 300.71C44.9539 308.982 41.9523 317.754 40.1225 326.802C39.6177 329.318 38.0288 339.348 36.9778 347.557Z" fill="#455A64"/>
<path d="M99.9367 208.35C99.6025 207.921 99.3244 207.451 99.1092 206.951L97.1314 202.963H97.6279C96.5604 205.594 95.2363 208.863 93.7468 212.521L93.6061 212.868L93.242 212.727L87.6396 210.452C81.8468 208.102 76.6747 205.925 72.926 204.32L68.5235 202.4C67.9635 202.192 67.4323 201.914 66.9429 201.572C67.5124 201.687 68.0675 201.865 68.5979 202.102L73.1163 203.815C76.923 205.288 82.1613 207.382 87.9209 209.732L93.5151 212.032L93.0103 212.239L97.1066 202.764L97.3548 202.185L97.6031 202.756C98.2982 204.411 98.8775 205.735 99.3575 206.844C99.6087 207.321 99.8031 207.827 99.9367 208.35Z" fill="#263238"/>
<path d="M97.4706 322.88C96.8918 322.85 96.319 322.748 95.7659 322.574C94.6819 322.334 93.1261 321.92 91.2228 321.349C81.2958 318.366 71.8278 314.027 63.0865 308.456C61.4314 307.381 60.0991 306.479 59.2137 305.816C58.7272 305.507 58.2774 305.143 57.873 304.732C58.4116 304.942 58.9206 305.22 59.3874 305.56L63.3844 307.985C67.8083 310.604 72.3629 312.996 77.0305 315.151C81.7127 317.287 86.5023 319.179 91.38 320.82L95.8321 322.276C96.4001 322.413 96.9501 322.615 97.4706 322.88Z" fill="#263238"/>
<path opacity="0.3" d="M41.2065 244.826C41.2065 244.826 59.4123 294.727 65.3706 303.763C71.3289 312.8 74.308 315.349 83.4357 313.801C92.5634 312.254 132.641 299.071 132.641 299.071L132.053 290.895L94.955 298.74L73.5467 294.346L54.0003 264.24L41.2065 244.826Z" fill="black"/>
<path d="M119.185 264.241L117.166 260.931L107.368 263.265L92.5469 266.575C92.5469 266.575 83.9488 216.443 71.5192 208.399C59.0896 200.355 50.0033 201.779 42.3651 215.971C34.7269 230.163 38.8398 238.422 38.8398 238.422C38.8398 238.422 58.6179 293.677 71.5192 304.956C84.4205 316.235 126.964 294.951 126.964 294.951L135.587 287.793L119.185 264.241Z" fill="#455A64"/>
<path d="M119.185 264.24C119.292 264.361 119.392 264.488 119.483 264.621L120.311 265.788L123.555 270.339L135.753 287.717L135.868 287.883L135.711 288.015L127.113 295.165C119.738 298.774 112.123 301.871 104.323 304.434C99.84 305.907 95.2575 307.057 90.6105 307.876C88.1487 308.294 85.6591 308.526 83.1626 308.571C80.5525 308.657 77.9468 308.296 75.4583 307.504C74.8223 307.294 74.205 307.031 73.6129 306.718L72.7191 306.238C72.4378 306.047 72.173 305.84 71.8916 305.633C71.3461 305.238 70.849 304.78 70.4103 304.268L69.0035 302.803C68.176 301.777 67.3484 300.66 66.5209 299.584C65.6934 298.508 65.0313 297.308 64.27 296.166C61.3477 291.385 58.682 286.451 56.2843 281.387C51.3191 271.1 46.7345 260.119 42.3155 248.749C40.9831 245.298 39.6839 241.88 38.4757 238.537V238.578C37.3729 235.546 37.043 232.287 37.5157 229.095C37.9367 226.001 38.7717 222.978 39.9984 220.108C41.1586 217.282 42.6032 214.581 44.3098 212.047C45.9335 209.5 48.0322 207.289 50.4915 205.535C52.9739 203.829 55.9492 202.988 58.9572 203.143C61.8422 203.387 64.6525 204.188 67.2326 205.502C68.4739 206.155 69.7152 206.793 70.8737 207.546C72.0791 208.241 73.1728 209.114 74.1177 210.136C75.8582 212.165 77.3398 214.403 78.5284 216.797C80.7378 221.295 82.5943 225.957 84.0812 230.741C85.5625 235.293 86.8038 239.704 87.8796 243.916C90.0312 252.348 91.5952 259.962 92.7538 266.549L92.4807 266.375L107.616 263.065L117.183 260.872H117.249V260.922L118.73 263.404C119.053 263.959 119.194 264.232 119.194 264.232C119.194 264.232 119.003 263.984 118.656 263.404L117.1 260.922H117.191L107.716 263.255L92.6048 266.698L92.3814 266.756L92.3317 266.516C91.1318 259.962 89.5181 252.357 87.3665 243.957C86.2742 239.753 85.0163 235.359 83.5185 230.832C82.0068 226.096 80.1309 221.484 77.9078 217.037C76.7391 214.701 75.2883 212.517 73.5881 210.533C72.6839 209.555 71.6378 208.718 70.4848 208.05C69.3345 207.314 68.118 206.685 66.9016 206.048C64.4146 204.789 61.7093 204.02 58.9324 203.78C56.0863 203.641 53.2736 204.443 50.9301 206.064C48.5526 207.764 46.5266 209.909 44.9636 212.378C43.288 214.869 41.8685 217.522 40.7266 220.298C39.5432 223.108 38.739 226.064 38.335 229.086C37.8884 232.129 38.1953 235.235 39.2287 238.131V238.173C40.4287 241.483 41.7114 244.925 43.0602 248.368C47.471 259.722 52.0225 270.711 56.9877 280.956C59.3656 285.999 62.012 290.911 64.9155 295.67C65.6602 296.804 66.3306 297.987 67.1333 299.063C67.936 300.139 68.6973 301.223 69.5497 302.232L70.8986 303.647C71.3186 304.138 71.7934 304.58 72.3136 304.963C72.5702 305.154 72.8184 305.352 73.075 305.526L73.9025 305.981C74.4631 306.279 75.0471 306.531 75.6486 306.734C78.0551 307.497 80.5729 307.85 83.0964 307.777C85.5621 307.739 88.0213 307.515 90.4532 307.107C95.0699 306.314 99.6224 305.186 104.074 303.73C111.857 301.22 119.458 298.178 126.823 294.627H126.774L135.438 287.635L135.397 287.932C130.233 280.427 126.17 274.518 123.373 270.463L120.228 265.846C119.889 265.332 119.632 264.944 119.4 264.654C119.317 264.522 119.245 264.384 119.185 264.24Z" fill="#263238"/>
<path d="M85.5376 291.848C85.4383 291.848 85.2562 290.375 85.3059 287.967C85.3982 284.824 85.8537 281.703 86.6631 278.665C87.4651 275.626 88.6118 272.688 90.0808 269.91C90.6324 268.715 91.3452 267.601 92.1993 266.6C92.3151 266.666 91.5869 267.957 90.5939 270.117C89.287 272.926 88.2292 275.845 87.4327 278.839C86.6513 281.823 86.128 284.868 85.8686 287.942C85.8418 289.25 85.7313 290.554 85.5376 291.848Z" fill="#263238"/>
<path d="M126.964 294.967C126.964 295.009 126.534 294.653 125.872 293.983C125.21 293.312 124.283 292.327 123.166 291.053C120.255 287.766 117.597 284.263 115.213 280.576C112.814 276.891 110.869 272.928 109.42 268.776C108.985 267.519 108.628 266.237 108.353 264.936C108.215 264.468 108.143 263.984 108.138 263.496C108.278 263.496 108.767 265.474 109.95 268.585C111.534 272.635 113.519 276.516 115.875 280.171C118.248 283.824 120.82 287.344 123.58 290.714C124.783 292.07 125.913 293.49 126.964 294.967Z" fill="#263238"/>
<path d="M161.299 265.077L172.743 261.766L186.952 256.404L198.223 250.289C198.223 250.289 199.208 249.312 197.826 248.096C196.444 246.879 190.312 250.28 190.312 250.28L185.463 252.084C185.463 252.084 181.366 252.424 181.59 252.043C181.813 251.662 188.169 248.584 188.169 248.584L199.001 242.692C199.001 242.692 202.063 241.111 201.111 239.084C200.664 238.115 199.539 237.544 197.454 238.347C195.368 239.15 192.099 241.202 190.924 241.657C189.749 242.112 183.063 245.141 183.063 245.141L196.924 235.641C196.924 235.641 201.442 232.952 199.994 231.04C198.546 229.128 195.798 231.239 194.201 231.868C192.604 232.496 183.915 238.041 180.522 239.58C177.609 240.904 178.313 239.804 178.313 239.804L186.588 234.723C190.213 232.48 192.968 230.254 190.61 228.781C189.071 227.813 182.103 231.528 182.103 231.528L171.8 237.288L166.901 239.456L170.989 235.798C172.937 234.367 174.474 232.449 175.449 230.237C176.881 226.704 173.985 226.588 173.985 226.588L157.219 238.058C154.604 240.333 151.534 251.298 151.534 251.298L119.185 263.761L132.947 283.622L161.299 265.077Z" fill="#FFBF9D"/>
<path d="M161.299 265.076L160.819 265.407L159.387 266.366L153.842 270.032L133.005 283.77L132.898 283.844L132.831 283.736L119.045 263.876L118.929 263.71L119.119 263.636L151.451 251.148L151.335 251.272C151.972 249.071 152.7 246.812 153.561 244.528C153.991 243.394 154.455 242.244 154.993 241.118C155.502 239.943 156.207 238.863 157.078 237.924L173.869 226.396H173.927H173.993C174.521 226.435 175.022 226.641 175.425 226.984C175.62 227.17 175.775 227.393 175.882 227.641C175.988 227.888 176.044 228.155 176.045 228.424C176 229.455 175.699 230.46 175.168 231.345C174.172 233.175 172.785 234.763 171.105 235.996L167.05 239.637L166.818 239.281L171.717 237.113L180.406 232.264C181.887 231.401 183.415 230.621 184.983 229.93C185.81 229.582 186.572 229.251 187.399 228.97C188.235 228.649 189.119 228.47 190.014 228.441C190.248 228.444 190.478 228.504 190.684 228.614C190.87 228.727 191.042 228.861 191.197 229.012C191.37 229.166 191.503 229.359 191.587 229.574C191.67 229.79 191.701 230.023 191.677 230.253C191.61 230.683 191.43 231.089 191.156 231.428C190.911 231.755 190.633 232.057 190.329 232.33C189.119 233.368 187.817 234.293 186.439 235.094L178.42 240.001L178.486 239.935C178.18 240.125 178.925 240.018 179.314 239.836C179.8 239.662 180.275 239.46 180.737 239.232C181.664 238.776 182.575 238.28 183.477 237.767C185.289 236.749 187.06 235.698 188.822 234.647L191.462 233.091C192.338 232.561 193.241 232.078 194.168 231.643C195.07 231.262 195.948 230.716 196.916 230.377C197.411 230.183 197.94 230.087 198.472 230.096C198.746 230.106 199.017 230.171 199.266 230.286C199.516 230.401 199.741 230.564 199.928 230.766C200.128 230.966 200.273 231.214 200.35 231.487C200.427 231.759 200.433 232.046 200.367 232.322C200.219 232.83 199.956 233.298 199.597 233.687C198.928 234.44 198.157 235.095 197.305 235.632C195.65 236.724 194.077 237.833 192.48 238.942L183.104 245.364L182.914 245.016L189.038 242.31C190.047 241.847 191.048 241.482 191.992 240.928L194.839 239.381C195.78 238.856 196.762 238.411 197.776 238.048C198.309 237.871 198.871 237.795 199.431 237.825C199.718 237.84 199.999 237.913 200.258 238.038C200.516 238.163 200.747 238.338 200.938 238.553C201.121 238.771 201.259 239.025 201.343 239.298C201.427 239.571 201.455 239.858 201.426 240.142C201.339 240.689 201.088 241.197 200.706 241.598C200.347 241.989 199.941 242.334 199.498 242.624C199.051 242.914 198.596 243.129 198.149 243.378C194.59 245.297 191.164 247.192 187.813 248.963C186.108 249.791 184.445 250.618 182.848 251.446C182.464 251.645 182.094 251.869 181.739 252.116C181.739 252.116 181.739 252.158 181.739 252.075C181.744 252.063 181.747 252.051 181.747 252.038C181.747 252.025 181.744 252.012 181.739 252H181.855H182.169H182.831C183.717 252 184.602 251.934 185.471 251.868H185.43L190.287 250.064C191.886 249.169 193.572 248.44 195.319 247.888C195.746 247.762 196.183 247.673 196.626 247.623C197.09 247.544 197.566 247.645 197.958 247.904C198.314 248.188 198.576 248.571 198.711 249.005C198.768 249.232 198.766 249.471 198.707 249.697C198.648 249.924 198.533 250.133 198.372 250.304L187.085 256.395L172.859 261.724L164.303 264.149L162.126 264.761L161.39 264.951L162.11 264.72L164.269 264.074L172.81 261.592L187.002 256.196L198.265 250.064C198.391 249.929 198.481 249.764 198.528 249.585C198.574 249.405 198.574 249.217 198.529 249.038C198.409 248.659 198.178 248.325 197.867 248.078C197.531 247.871 197.13 247.797 196.742 247.871C196.316 247.921 195.896 248.007 195.484 248.128C193.762 248.682 192.099 249.406 190.519 250.287L185.661 252.1C184.784 252.166 183.899 252.224 182.997 252.232C182.773 252.232 182.55 252.232 182.318 252.232C182.2 252.24 182.081 252.24 181.962 252.232C181.89 252.226 181.82 252.207 181.755 252.174L181.681 252.125C181.641 252.085 181.617 252.032 181.615 251.976C181.615 251.827 181.673 251.835 181.697 251.802C182.077 251.516 182.482 251.264 182.906 251.049C184.519 250.221 186.216 249.394 187.871 248.525C191.181 246.754 194.632 244.851 198.19 242.922C198.629 242.674 199.092 242.451 199.506 242.186C199.923 241.919 200.302 241.596 200.631 241.226C200.967 240.882 201.19 240.443 201.269 239.968C201.29 239.734 201.266 239.498 201.196 239.274C201.126 239.05 201.013 238.841 200.863 238.661C200.706 238.482 200.514 238.337 200.299 238.235C200.084 238.132 199.851 238.075 199.613 238.065C199.109 238.044 198.604 238.114 198.124 238.272C197.133 238.631 196.172 239.071 195.252 239.587L192.414 241.135C191.462 241.681 190.42 242.078 189.427 242.533L183.319 245.248L183.121 244.908L192.497 238.47C194.094 237.386 195.691 236.269 197.321 235.16C198.135 234.638 198.875 234.009 199.522 233.29C199.835 232.949 200.067 232.541 200.201 232.098C200.255 231.89 200.252 231.671 200.192 231.464C200.133 231.257 200.018 231.071 199.862 230.923C199.258 230.203 198.207 230.294 197.296 230.642C196.386 230.989 195.525 231.469 194.566 231.9C192.778 232.727 191.04 233.861 189.278 234.879C187.515 235.897 185.744 236.989 183.932 238.007C183.021 238.52 182.111 239.025 181.159 239.488C180.683 239.722 180.194 239.929 179.695 240.109C179.427 240.208 179.15 240.277 178.867 240.316C178.774 240.337 178.677 240.338 178.583 240.32C178.489 240.301 178.399 240.263 178.321 240.208C178.271 240.163 178.233 240.106 178.211 240.042C178.189 239.979 178.184 239.91 178.197 239.844C178.211 239.747 178.245 239.654 178.296 239.571H178.346L186.307 234.647C187.661 233.857 188.943 232.948 190.138 231.933C190.422 231.681 190.683 231.404 190.916 231.105C191.149 230.833 191.301 230.5 191.355 230.145C191.373 229.979 191.35 229.81 191.288 229.654C191.226 229.498 191.127 229.36 190.999 229.251C190.87 229.127 190.728 229.016 190.577 228.92C190.394 228.856 190.196 228.841 190.006 228.879C189.155 228.91 188.316 229.084 187.523 229.392C186.696 229.665 185.918 229.988 185.14 230.336C183.584 231.02 182.067 231.791 180.597 232.644L171.908 237.502L166.992 239.637L165.759 240.183L166.76 239.289L170.848 235.632C172.472 234.434 173.816 232.898 174.787 231.13C175.278 230.308 175.562 229.38 175.615 228.424C175.616 228.209 175.573 227.996 175.489 227.799C175.405 227.601 175.282 227.422 175.127 227.274C174.798 226.997 174.389 226.831 173.96 226.802L174.084 226.761L157.31 238.23C156.486 239.139 155.815 240.176 155.324 241.3C154.794 242.409 154.331 243.543 153.9 244.677C153.073 246.944 152.312 249.203 151.683 251.38V251.479H151.592L119.235 263.892L119.309 263.652L133.038 283.571L132.864 283.53L153.785 269.892L159.354 266.275L160.794 265.349L161.299 265.076Z" fill="#FF9A6C"/>
</svg>
