<svg width="55" height="55" viewBox="0 0 55 55" fill="none" xmlns="http://www.w3.org/2000/svg">
<circle cx="27.1057" cy="27.1057" r="26.6057" fill="#F8F8FF" stroke="#E9231B"/>
<path d="M30.0516 30.3605L32.3663 26.3595C32.5151 26.1115 32.449 25.7973 32.234 25.6155L29.7871 23.6976C29.8367 23.3339 29.8698 22.9536 29.8698 22.5733C29.8698 22.1931 29.8367 21.8128 29.7871 21.4325L32.234 19.5147C32.449 19.3328 32.5151 19.0187 32.3663 18.7707L30.0516 14.7696C29.9028 14.5216 29.6052 14.4224 29.3407 14.5216L26.4639 15.6789C25.8687 15.216 25.2239 14.8357 24.513 14.5381L24.0831 11.4795C24.0335 11.2149 23.7855 11 23.5045 11H18.8751C18.5941 11 18.3461 11.2149 18.2965 11.496L17.8666 14.5547C17.1722 14.8523 16.5109 15.2325 15.9157 15.6955L13.0389 14.5381C12.7743 14.4389 12.4767 14.5381 12.3279 14.7861L10.0133 18.7872C9.86446 19.0352 9.9306 19.3493 10.1455 19.5312L12.5925 21.4491C12.5429 21.8128 12.5098 22.1931 12.5098 22.5733C12.5098 22.9536 12.5429 23.3339 12.5925 23.7141L10.1455 25.632C9.9306 25.8139 9.86446 26.128 10.0133 26.376L12.3279 30.377C12.4767 30.625 12.7743 30.7242 13.0389 30.625L15.9157 29.4677C16.5109 29.9306 17.1557 30.3109 17.8666 30.6085L18.2965 33.6672C18.3461 33.9317 18.5941 34.1466 18.8751 34.1466H23.5045C23.7855 34.1466 24.0335 33.9317 24.0831 33.6506L24.513 30.592C25.2074 30.2944 25.8687 29.9141 26.4639 29.4512L29.3407 30.6085C29.6052 30.7077 29.9028 30.6085 30.0516 30.3605ZM21.1898 25.88C19.3711 25.88 17.8831 24.392 17.8831 22.5733C17.8831 20.7547 19.3711 19.2667 21.1898 19.2667C23.0085 19.2667 24.4965 20.7547 24.4965 22.5733C24.4965 24.392 23.0085 25.88 21.1898 25.88Z" fill="#EE544E"/>
<path d="M42.8649 38.5599L41.2777 37.3365C41.3108 37.105 41.3439 36.857 41.3439 36.609C41.3439 36.361 41.3273 36.113 41.2777 35.8815L42.8484 34.6581C42.9807 34.5423 43.0303 34.3439 42.9311 34.1786L41.4431 31.6159C41.3604 31.4506 41.162 31.401 40.9801 31.4506L39.1449 32.1946C38.7647 31.897 38.3513 31.649 37.8884 31.4671L37.6073 29.5162C37.5908 29.3178 37.4255 29.1855 37.2601 29.1855H34.3007C34.1188 29.1855 33.9535 29.3178 33.937 29.4997L33.6559 31.4506C33.2095 31.649 32.7796 31.8805 32.3994 32.1781L30.5642 31.4341C30.3988 31.3679 30.2004 31.4341 30.1012 31.5994L28.6132 34.1621C28.5306 34.3274 28.5471 34.5258 28.6959 34.6415L30.2666 35.865C30.2335 36.0965 30.217 36.3445 30.217 36.5925C30.217 36.8405 30.2335 37.0885 30.2666 37.3199L28.6959 38.5434C28.5636 38.6591 28.514 38.8575 28.6132 39.0229L30.1012 41.5855C30.1839 41.7509 30.3823 41.8005 30.5642 41.7509L32.3994 41.0069C32.7796 41.3045 33.193 41.5525 33.6559 41.7343L33.937 43.6853C33.97 43.8671 34.1188 43.9994 34.3007 43.9994H37.2601C37.442 43.9994 37.6073 43.8671 37.6239 43.6853L37.9049 41.7343C38.3513 41.5359 38.7812 41.3045 39.1449 41.0069L40.9967 41.7509C41.162 41.817 41.3604 41.7509 41.4596 41.5855L42.9476 39.0229C43.0468 38.8741 42.9972 38.6757 42.8649 38.5599ZM35.7721 38.8245C34.5487 38.8245 33.5402 37.8325 33.5402 36.5925C33.5402 35.3525 34.5321 34.3605 35.7721 34.3605C37.0121 34.3605 38.0041 35.3525 38.0041 36.5925C38.0041 37.8325 36.9956 38.8245 35.7721 38.8245Z" fill="#EE544E"/>
</svg>
